<svg width="72" height="25" viewBox="0 0 72 25" fill="none" xmlns="http://www.w3.org/2000/svg">
<g filter="url(#filter0_d_102_26448)">
<line x1="6.21512" y1="16.8804" x2="66.2151" y2="17.8804" stroke="black"/>
</g>
<path d="M2.12365 18.1383L7.22615 18.8933L7.78365 18.9008L20.4986 19.0833L52.9061 19.5483L65.3437 19.7283L65.5662 19.6908L70.5462 18.8533C71.2786 18.7308 71.7987 18.0708 71.7486 17.3283C71.7486 17.3283 71.8961 14.9933 71.6536 13.6483C71.6036 13.3733 71.5387 13.1408 71.4511 12.9783C70.8437 11.8358 70.1512 10.9933 69.4237 10.3658C67.5287 8.72832 65.3886 8.53332 63.8611 8.23582C61.2461 7.72832 55.7536 7.12832 52.8911 6.83332C52.6961 6.81332 52.5161 6.79332 52.3461 6.77832C52.2211 6.76582 52.0986 6.74832 51.9761 6.72832C51.2861 6.61582 50.6212 6.38332 50.0062 6.04582C47.5212 4.67332 44.3561 3.19082 42.1511 2.19582C41.8362 2.05332 41.5161 1.91832 41.1911 1.79082C41.0811 1.74832 40.9686 1.70582 40.8561 1.66332C39.5286 1.17332 38.1436 0.830822 36.7386 0.725822L31.0086 0.380821C25.5511 0.358321 20.7811 1.18332 17.0111 2.18832C16.8786 2.22332 16.7486 2.25832 16.6186 2.29332C13.2611 3.21582 10.7361 4.26582 9.28115 4.94332C8.86115 5.13832 8.42865 5.30082 7.98365 5.42582C7.85115 5.46582 7.71615 5.49832 7.58115 5.53082C7.07115 5.65082 6.55115 5.72332 6.02615 5.75082C6.02615 5.75082 3.38114 5.63832 2.56614 5.93082C2.05614 6.11332 1.51114 8.59582 1.51114 8.59582L1.04364 11.1508L0.243649 15.5283C0.0161487 16.7733 0.866149 17.9608 2.11865 18.1458L2.12365 18.1383Z" fill="#83760E"/>
<path d="M2.12365 18.1383L7.22615 18.8933L7.78365 18.9008L20.4986 19.0833L52.9061 19.5483L65.3437 19.7283L65.5662 19.6908L70.5462 18.8533C71.2786 18.7308 71.7987 18.0708 71.7486 17.3283C71.7486 17.3283 71.8961 14.9933 71.6536 13.6483C71.6036 13.3733 71.5387 13.1408 71.4511 12.9783C70.8437 11.8358 70.1512 10.9933 69.4237 10.3658C67.5287 8.72832 65.3886 8.53332 63.8611 8.23582C61.2461 7.72832 55.7536 7.12832 52.8911 6.83332C52.6961 6.81332 52.5161 6.79332 52.3461 6.77832C52.2211 6.76582 52.0986 6.74832 51.9761 6.72832C51.2861 6.61582 50.6212 6.38332 50.0062 6.04582C47.5212 4.67332 44.3561 3.19082 42.1511 2.19582C41.8362 2.05332 41.5161 1.91832 41.1911 1.79082C41.0811 1.74832 40.9686 1.70582 40.8561 1.66332C39.5286 1.17332 38.1436 0.830822 36.7386 0.725822L31.0086 0.380821C25.5511 0.358321 20.7811 1.18332 17.0111 2.18832C16.8786 2.22332 16.7486 2.25832 16.6186 2.29332C13.2611 3.21582 10.7361 4.26582 9.28115 4.94332C8.86115 5.13832 8.42865 5.30082 7.98365 5.42582C7.85115 5.46582 7.71615 5.49832 7.58115 5.53082C7.07115 5.65082 6.55115 5.72332 6.02615 5.75082C6.02615 5.75082 3.38114 5.63832 2.56614 5.93082C2.05614 6.11332 1.51114 8.59582 1.51114 8.59582L1.04364 11.1508L0.243649 15.5283C0.0161487 16.7733 0.866149 17.9608 2.11865 18.1458L2.12365 18.1383Z" fill="url(#paint0_radial_102_26448)"/>
<path d="M8.54865 17.1533C8.54865 17.7583 8.62864 18.3433 8.78114 18.8983L21.4961 19.0808C21.6836 18.4708 21.7811 17.8233 21.7811 17.1533C21.7811 13.4983 18.8186 10.5358 15.1636 10.5358C11.5086 10.5358 8.54614 13.4983 8.54614 17.1533H8.54865Z" fill="black"/>
<path d="M20.7759 17.4106C20.9221 14.2854 18.5072 11.6332 15.3819 11.4869C12.2567 11.3407 9.60453 13.7556 9.45824 16.8809C9.31195 20.0061 11.7269 22.6583 14.8522 22.8046C17.9774 22.9508 20.6296 20.5359 20.7759 17.4106Z" fill="#1A1A1A"/>
<path d="M11.5113 17.0283C11.4413 19.0258 13.0038 20.7008 14.9988 20.7708C16.9963 20.8408 18.6713 19.2783 18.7388 17.2808C18.8088 15.2833 17.2463 13.6083 15.2513 13.5383C13.2538 13.4683 11.5788 15.0308 11.5113 17.0283Z" fill="#2D2E36"/>
<path d="M13.4613 17.0832C13.4288 18.0032 14.1488 18.7732 15.0663 18.8057C15.9863 18.8382 16.7563 18.1182 16.7888 17.2007C16.8213 16.2807 16.1013 15.5107 15.1838 15.4782C14.2638 15.4457 13.4938 16.1657 13.4613 17.0832Z" fill="#595C59"/>
<path d="M14.2138 17.2333L14.4788 16.5083C14.5188 16.3958 14.4688 16.2708 14.3588 16.2208L12.2463 15.2483C12.1238 15.1933 11.9813 15.2533 11.9338 15.3783L11.5388 16.4608C11.4938 16.5858 11.5638 16.7258 11.6938 16.7608L13.9363 17.3733C14.0513 17.4058 14.1713 17.3433 14.2113 17.2308L14.2138 17.2333Z" fill="#595C59"/>
<path d="M14.9214 18.0408L14.3139 17.5658C14.2189 17.4933 14.0864 17.5033 14.0039 17.5908L12.4264 19.2983C12.3364 19.3958 12.3489 19.5508 12.4539 19.6333L13.3614 20.3433C13.4664 20.4258 13.6214 20.4008 13.6939 20.2883L14.9689 18.3458C15.0339 18.2458 15.0114 18.1133 14.9189 18.0383L14.9214 18.0408Z" fill="#595C59"/>
<path d="M15.9087 17.6182L15.2687 18.0507C15.1687 18.1182 15.1387 18.2482 15.1962 18.3532L16.3337 20.3807C16.3987 20.4982 16.5512 20.5332 16.6612 20.4582L17.6162 19.8132C17.7262 19.7382 17.7512 19.5832 17.6662 19.4807L16.2137 17.6657C16.1387 17.5732 16.0062 17.5532 15.9062 17.6182H15.9087Z" fill="#595C59"/>
<path d="M15.8113 16.5482L16.0238 17.2907C16.0563 17.4057 16.1713 17.4757 16.2888 17.4532L18.5688 16.9982C18.7013 16.9707 18.7813 16.8382 18.7438 16.7107L18.4263 15.6032C18.3888 15.4732 18.2513 15.4057 18.1238 15.4507L15.9488 16.2732C15.8363 16.3157 15.7763 16.4357 15.8088 16.5507L15.8113 16.5482Z" fill="#595C59"/>
<path d="M14.7662 16.3107L15.5387 16.3382C15.6587 16.3432 15.7612 16.2532 15.7737 16.1357L16.0462 13.8282C16.0612 13.6957 15.9612 13.5757 15.8262 13.5732L14.6737 13.5332C14.5387 13.5282 14.4312 13.6382 14.4362 13.7732L14.5462 16.0957C14.5512 16.2157 14.6487 16.3107 14.7662 16.3132V16.3107Z" fill="#595C59"/>
<path d="M13.9487 17.1007C13.9262 17.7507 14.4337 18.2957 15.0837 18.3182C15.7337 18.3407 16.2787 17.8332 16.3012 17.1832C16.3237 16.5332 15.8162 15.9882 15.1662 15.9657C14.5162 15.9432 13.9712 16.4507 13.9487 17.1007Z" fill="#2D2E36"/>
<path d="M51.6412 17.6858C51.6412 18.3333 51.7337 18.9583 51.9062 19.5483L64.3437 19.7283L64.5662 19.6908C64.7662 19.0583 64.8737 18.3858 64.8737 17.6883C64.8737 14.0333 61.9112 11.0708 58.2562 11.0708C54.6012 11.0708 51.6387 14.0333 51.6387 17.6883L51.6412 17.6858Z" fill="black"/>
<path d="M63.9566 17.9607C64.1034 14.8355 61.6889 12.183 58.5637 12.0361C55.4384 11.8893 52.7859 14.3038 52.639 17.429C52.4922 20.5542 54.9067 23.2068 58.0319 23.3536C61.1572 23.5005 63.8097 21.086 63.9566 17.9607Z" fill="#1A1A1A"/>
<path d="M54.6712 17.5609C54.6012 19.5584 56.1637 21.2334 58.1587 21.3034C60.1562 21.3734 61.8312 19.8109 61.8987 17.8134C61.9687 15.8159 60.4062 14.1409 58.4112 14.0709C56.4137 14.0009 54.7387 15.5634 54.6712 17.5609Z" fill="#2D2E36"/>
<path d="M56.6237 17.6158C56.5912 18.5358 57.3112 19.3058 58.2287 19.3383C59.1487 19.3708 59.9187 18.6508 59.9512 17.7333C59.9837 16.8133 59.2637 16.0433 58.3462 16.0108C57.4262 15.9783 56.6562 16.6983 56.6237 17.6158Z" fill="#595C59"/>
<path d="M57.3762 17.7658L57.6412 17.0409C57.6812 16.9284 57.6312 16.8033 57.5212 16.7533L55.4087 15.7808C55.2862 15.7258 55.1437 15.7858 55.0962 15.9108L54.7012 16.9933C54.6562 17.1183 54.7261 17.2583 54.8561 17.2933L57.0987 17.9058C57.2137 17.9383 57.3337 17.8758 57.3737 17.7633L57.3762 17.7658Z" fill="#595C59"/>
<path d="M58.0811 18.5734L57.4737 18.0984C57.3787 18.0259 57.2461 18.0359 57.1636 18.1234L55.5861 19.8309C55.4961 19.9284 55.5087 20.0834 55.6137 20.1659L56.5212 20.8759C56.6262 20.9584 56.7811 20.9334 56.8536 20.8209L58.1286 18.8784C58.1937 18.7784 58.1711 18.6459 58.0786 18.5709L58.0811 18.5734Z" fill="#595C59"/>
<path d="M59.0686 18.1508L58.4286 18.5833C58.3286 18.6508 58.2986 18.7808 58.3561 18.8858L59.4936 20.9133C59.5586 21.0308 59.7111 21.0658 59.8211 20.9908L60.7761 20.3458C60.8861 20.2708 60.9111 20.1158 60.8261 20.0133L59.3736 18.1983C59.2986 18.1058 59.1661 18.0858 59.0661 18.1508H59.0686Z" fill="#595C59"/>
<path d="M58.9737 17.0808L59.1862 17.8233C59.2187 17.9383 59.3337 18.0083 59.4512 17.9858L61.7312 17.5308C61.8637 17.5033 61.9437 17.3708 61.9062 17.2433L61.5887 16.1358C61.5512 16.0058 61.4137 15.9383 61.2862 15.9833L59.1112 16.8058C58.9987 16.8483 58.9387 16.9683 58.9712 17.0833L58.9737 17.0808Z" fill="#595C59"/>
<path d="M57.9261 16.8433L58.6986 16.8708C58.8186 16.8758 58.9211 16.7858 58.9336 16.6683L59.2061 14.3608C59.2211 14.2283 59.1211 14.1083 58.9861 14.1058L57.8336 14.0658C57.6986 14.0608 57.5911 14.1708 57.5961 14.3058L57.7061 16.6283C57.7111 16.7483 57.8086 16.8433 57.9261 16.8458V16.8433Z" fill="#595C59"/>
<path d="M57.1112 17.6333C57.0887 18.2833 57.5962 18.8283 58.2462 18.8508C58.8962 18.8733 59.4412 18.3658 59.4637 17.7158C59.4862 17.0658 58.9787 16.5208 58.3287 16.4983C57.6787 16.4758 57.1337 16.9833 57.1112 17.6333Z" fill="#2D2E36"/>
<path d="M41.2362 2.46077C43.1487 3.37327 48.1962 5.86327 49.3587 7.27077C49.5337 7.48077 49.8087 7.57576 50.0737 7.52576C50.6762 7.41326 51.7437 7.18576 52.8937 6.83076C52.6987 6.81076 52.5187 6.79076 52.3487 6.77576C52.2237 6.76326 52.1012 6.74577 51.9787 6.72577C51.2887 6.61327 50.6237 6.38077 50.0087 6.04327C47.5237 4.67077 44.3587 3.18827 42.1537 2.19327C41.8387 2.05077 41.5187 1.91577 41.1937 1.78827C41.0837 1.74577 40.9712 1.70327 40.8587 1.66077C40.7787 1.97327 40.9237 2.31327 41.2337 2.46077H41.2362Z" fill="#717B80"/>
<path d="M41.2063 1.91827C41.2338 2.01577 41.2988 2.09577 41.3888 2.13827C43.4688 3.13077 48.4363 5.59577 49.6313 7.04327C49.7038 7.13077 49.8138 7.18327 49.9338 7.18327C49.9588 7.18327 49.9838 7.18077 50.0088 7.17577C50.4213 7.09827 51.1438 6.94827 51.9813 6.72327C51.2913 6.61077 50.6263 6.37827 50.0113 6.04077C47.5263 4.66827 44.3613 3.18577 42.1563 2.19077C41.8413 2.04827 41.5213 1.91327 41.1963 1.78577C41.1913 1.82827 41.1938 1.87327 41.2063 1.91827Z" fill="#373E41"/>
<path d="M36.2737 1.61333C35.0412 1.53333 33.3362 1.44834 31.4287 1.42334C31.6137 3.56334 32.2937 5.49334 33.3887 7.36084L47.7262 7.61834C47.8737 7.62084 47.9412 7.43584 47.8237 7.34584C45.9312 5.84584 42.2737 3.84084 40.0862 2.68834C38.9062 2.06834 37.6062 1.70084 36.2737 1.61584V1.61333Z" fill="#717B80"/>
<path d="M31.8214 1.78333C31.8814 2.29333 31.9713 2.79582 32.0913 3.29582C32.3938 4.55082 32.8913 5.77832 33.5938 7.00832L44.0938 7.19582L47.1138 7.25082C45.1213 5.80082 41.8113 3.99582 39.9188 3.00082C38.7713 2.39832 37.5388 2.05082 36.2488 1.96832C35.2213 1.90082 33.6463 1.81832 31.8188 1.78582L31.8214 1.78333Z" fill="#717B80"/>
<path d="M31.8214 1.78333C31.8814 2.29333 31.9713 2.79582 32.0913 3.29582C36.9638 4.23082 41.1113 5.79832 44.0938 7.19582L47.1138 7.25082C45.1213 5.80082 41.8113 3.99582 39.9188 3.00082C38.7713 2.39832 37.5388 2.05082 36.2488 1.96832C35.2213 1.90082 33.6463 1.81832 31.8188 1.78582L31.8214 1.78333Z" fill="#373E41"/>
<path d="M20.8563 7.17079L30.1538 7.37329H30.1888C30.4813 5.62329 30.3388 3.62329 29.7063 1.37329H29.6463C27.6038 1.37329 25.4313 1.50329 23.4038 1.74829C23.1563 1.77579 22.9113 1.84079 22.6738 1.88079C21.4088 2.81079 19.7663 5.63579 20.8563 7.17329V7.17079Z" fill="#717B80"/>
<path d="M21.0538 6.76582L29.8863 6.90832C30.0538 5.69332 29.9939 4.35082 29.7039 2.89832C29.6314 2.52832 29.5413 2.15081 29.4363 1.76831C27.3664 1.77581 25.2989 1.89581 23.4464 2.12081C23.2464 2.14331 23.0288 2.16831 22.8163 2.20081C22.7188 2.27831 22.6163 2.36832 22.5138 2.46832C21.4838 3.48082 20.3913 5.55581 21.0513 6.76831L21.0538 6.76582Z" fill="#717B80"/>
<path d="M22.5137 2.46581C25.0137 2.41081 27.4237 2.57832 29.7012 2.89832C29.6287 2.52832 29.5387 2.15081 29.4337 1.76831C27.3637 1.77581 25.2962 1.89581 23.4437 2.12081C23.2437 2.14331 23.0262 2.16831 22.8137 2.20081C22.7162 2.27831 22.6137 2.36832 22.5112 2.46832L22.5137 2.46581Z" fill="#373E41"/>
<path d="M7.58618 5.52078C7.86868 5.79828 8.15368 6.04329 8.40868 6.20329C9.42618 6.84329 16.1287 3.09829 16.7212 2.74329C16.8587 2.66079 16.9537 2.45329 17.0187 2.18079C16.8862 2.21579 16.7562 2.25078 16.6262 2.28578C13.2687 3.20828 10.7437 4.25828 9.28868 4.93578C8.86868 5.13078 8.43618 5.29328 7.99118 5.41828C7.85868 5.45828 7.72368 5.49078 7.58868 5.52328L7.58618 5.52078Z" fill="#717B80"/>
<path d="M7.98858 5.41826C8.19858 5.61576 8.40858 5.76076 8.59608 5.87826C8.59608 5.87826 8.63358 5.87326 8.74358 5.87326C10.2061 5.87326 15.5086 3.03076 16.5336 2.41576C16.5661 2.39076 16.5936 2.35076 16.6211 2.27576C13.2636 3.19826 10.7386 4.25326 9.28358 4.93076C8.86358 5.12576 8.43108 5.29326 7.98608 5.41826H7.98858Z" fill="#717B80"/>
<path d="M65.8536 11.0209C66.1286 11.4909 66.4611 11.9534 66.8511 12.4159C67.2711 12.9134 67.8461 13.2584 68.4811 13.4059C69.2761 13.5909 70.4561 13.7784 71.6561 13.6484C71.6061 13.3734 71.5411 13.1409 71.4536 12.9784C70.8461 11.8359 70.1537 10.9934 69.4262 10.3659C68.3812 10.2184 67.2011 10.1684 66.1236 10.3984C65.8461 10.4584 65.7086 10.7784 65.8511 11.0259L65.8536 11.0209Z" fill="white"/>
<path d="M0.783691 12.6508C1.57619 12.7008 2.36619 12.7008 3.15869 12.6308C3.40119 12.6083 3.63119 12.5183 3.81618 12.3633C4.40369 11.8733 4.80118 11.2833 5.19868 10.7158C5.35368 10.4958 5.26619 10.2408 4.96619 10.1983C3.72119 10.0183 2.48119 10.0158 1.25119 10.0983L0.783691 12.6533V12.6508Z" fill="#CB1F2E"/>
<path d="M68.4487 16.9783H70.1887C70.4662 16.9783 70.6937 16.7508 70.6937 16.4733C70.6937 16.1958 70.4662 15.9683 70.1887 15.9683H68.4487C68.1712 15.9683 67.9437 16.1958 67.9437 16.4733C67.9437 16.7508 68.1712 16.9783 68.4487 16.9783Z" fill="#575757"/>
<path d="M2.23621 16.4733H3.9762C4.2537 16.4733 4.4812 16.2458 4.4812 15.9683C4.4812 15.6908 4.2537 15.4633 3.9762 15.4633H2.23621C1.95871 15.4633 1.7312 15.6908 1.7312 15.9683C1.7312 16.2458 1.95871 16.4733 2.23621 16.4733Z" fill="#575757"/>
<path d="M33.8961 9.62329H34.0111C34.0936 9.37329 34.2911 9.12329 34.5236 9.12329H35.5661C35.7986 9.12329 35.9961 9.37329 36.0786 9.62329H36.1936C36.3211 9.62329 36.6686 9.65829 36.6686 9.78579V9.89829C36.6686 10.0258 36.3211 10.1233 36.1936 10.1233H36.0786C35.9961 10.3733 35.7986 10.6233 35.5661 10.6233H34.5236C34.2911 10.6233 34.0936 10.3733 34.0111 10.1233H33.8961C33.7686 10.1233 33.9211 10.0258 33.9211 9.89829V9.78579C33.9211 9.65829 33.7686 9.62329 33.8961 9.62329Z" fill="#818590"/>
<path d="M19.8786 9.62329H19.9936C20.0761 9.37329 20.2736 9.12329 20.5061 9.12329H21.5486C21.7811 9.12329 21.9786 9.37329 22.0611 9.62329H22.1761C22.3036 9.62329 22.4186 9.65829 22.4186 9.78579V9.89829C22.4186 10.0258 22.3036 10.1233 22.1761 10.1233H22.0611C21.9786 10.3733 21.7811 10.6233 21.5486 10.6233H20.5061C20.2736 10.6233 20.0761 10.3733 19.9936 10.1233H19.8786C19.7511 10.1233 19.6711 10.0258 19.6711 9.89829V9.78579C19.6711 9.65829 19.7511 9.62329 19.8786 9.62329Z" fill="#818590"/>
<path d="M45.7586 9.24578C45.6461 9.23828 45.5486 9.15829 45.5286 9.04579C45.3961 8.26329 46.1336 6.45329 46.1336 6.45329C46.3336 6.06329 46.7411 5.83078 47.0811 6.12078L47.9736 6.88079C48.1636 7.04329 48.2536 7.29078 48.2136 7.53578L48.1761 7.77078C48.1486 7.94328 48.0586 8.10079 47.9211 8.21079L46.8911 9.04579C46.6211 9.26329 46.0461 9.26078 45.7586 9.24578Z" fill="#818590"/>
<path d="M30.5012 1.72327C32.1112 6.94827 33.0412 12.5333 32.6762 18.0033C33.4137 12.5783 32.4987 6.79827 30.5012 1.72327Z" fill="#818590"/>
<path d="M63.3487 11.0683C60.0587 8.57326 54.9387 8.55826 51.1487 9.86326C55.0162 8.94576 59.9237 8.85826 63.3487 11.0683Z" fill="#818590"/>
<path d="M46.5587 16.8382C40.1537 13.9232 29.8762 13.5207 23.3137 16.1757C30.0112 13.8732 39.9537 14.2132 46.5587 16.8382Z" fill="#818590"/>
<defs>
<filter id="filter0_d_102_26448" x="4.20679" y="16.3805" width="64.0166" height="7.99988" filterUnits="userSpaceOnUse" color-interpolation-filters="sRGB">
<feFlood flood-opacity="0" result="BackgroundImageFix"/>
<feColorMatrix in="SourceAlpha" type="matrix" values="0 0 0 0 0 0 0 0 0 0 0 0 0 0 0 0 0 0 127 0" result="hardAlpha"/>
<feOffset dy="4"/>
<feGaussianBlur stdDeviation="1"/>
<feComposite in2="hardAlpha" operator="out"/>
<feColorMatrix type="matrix" values="0 0 0 0 0 0 0 0 0 0 0 0 0 0 0 0 0 0 0.5 0"/>
<feBlend mode="normal" in2="BackgroundImageFix" result="effect1_dropShadow_102_26448"/>
<feBlend mode="normal" in="SourceGraphic" in2="effect1_dropShadow_102_26448" result="shape"/>
</filter>
<radialGradient id="paint0_radial_102_26448" cx="0" cy="0" r="1" gradientUnits="userSpaceOnUse" gradientTransform="translate(36.0019 10.0566) rotate(90) scale(24.3739 41.5288)">
<stop offset="0.13" stop-color="#C3C9CC"/>
<stop offset="0.29" stop-color="#BCC2C6"/>
<stop offset="0.51" stop-color="#AAAFB5"/>
<stop offset="0.77" stop-color="#8D919A"/>
<stop offset="0.9" stop-color="#7C808B"/>
</radialGradient>
</defs>
</svg>
