<svg width="72" height="25" viewBox="0 0 72 25" fill="none" xmlns="http://www.w3.org/2000/svg">
<g filter="url(#filter0_d_102_26389)">
<line x1="6.49173" y1="16.7344" x2="66.4917" y2="17.7344" stroke="black"/>
</g>
<path d="M1.01978 17.2917L1.14229 17.5492C1.62979 18.5717 2.65479 19.2342 3.78979 19.2542L8.88228 19.3467L20.4223 19.5567L53.5923 20.1617L65.2123 20.3742L69.4798 20.4517C70.3123 20.4667 71.0248 19.8542 71.1323 19.0267L71.4823 16.3492C71.5598 15.7542 71.5048 15.1617 71.3298 14.6042C71.1223 13.9392 70.7448 13.3267 70.2223 12.8367L68.9973 11.6917C68.8948 11.5967 68.7898 11.5042 68.6823 11.4167C67.7798 10.6767 66.6873 10.1942 65.5248 10.0292C60.7848 8.79924 55.8323 7.92673 50.6223 7.48673C50.0798 7.40923 49.5573 7.22423 49.0873 6.93923C47.0898 5.30923 44.8523 4.24424 42.3598 2.90424C40.1123 1.69674 37.6623 0.904235 35.1298 0.589236C31.0723 0.0867355 26.8773 0.116732 22.5423 0.686732C17.8423 1.75173 13.3948 3.08423 9.34478 4.83673C8.39228 5.24923 7.38979 5.53423 6.36229 5.67423L4.51479 5.92423C3.75729 6.02673 3.08978 6.42923 2.64478 7.01423C2.42979 7.29673 2.26729 7.62423 2.16978 7.97923L1.53229 10.3192L0.677284 13.4642C0.329781 14.7392 0.452286 16.0967 1.01978 17.2917Z" fill="url(#paint0_radial_102_26389)"/>
<path d="M53.5898 20.1642L65.2098 20.3767C65.4373 19.7867 65.5798 19.1517 65.6148 18.4842C65.8048 15.0717 63.1898 12.1542 59.7798 11.9642C56.3698 11.7742 53.4498 14.3892 53.2623 17.7992C53.2173 18.6267 53.3348 19.4267 53.5923 20.1617L53.5898 20.1642Z" fill="black"/>
<path d="M59.2421 23.5694C56.2437 23.461 53.901 20.9425 54.0093 17.9442C54.1177 14.9459 56.6362 12.6031 59.6345 12.7115C62.6329 12.8199 64.9756 15.3383 64.8673 18.3367C64.7589 21.335 62.2404 23.6778 59.2421 23.5694Z" fill="#1A1A1A"/>
<path d="M59.262 21.6073C57.348 21.51 55.8753 19.8796 55.9726 17.9656C56.0699 16.0517 57.7004 14.579 59.6143 14.6763C61.5283 14.7735 63.001 16.404 62.9037 18.3179C62.8064 20.2319 61.1759 21.7046 59.262 21.6073Z" fill="#2D2E36"/>
<path d="M57.8448 18.0417C57.7973 18.9217 58.4698 19.6742 59.3498 19.7242C60.2298 19.7717 60.9823 19.0992 61.0323 18.2192C61.0798 17.3392 60.4073 16.5867 59.5273 16.5367C58.6473 16.4892 57.8948 17.1617 57.8448 18.0417Z" fill="#595C59"/>
<path d="M58.5646 18.1992L58.8321 17.5092C58.8746 17.4017 58.8271 17.2817 58.7221 17.2317L56.7171 16.2592C56.6021 16.2042 56.4621 16.2592 56.4171 16.3767L56.0171 17.4092C55.9696 17.5292 56.0371 17.6642 56.1596 17.6992L58.2971 18.3317C58.4071 18.3642 58.5221 18.3067 58.5646 18.1992Z" fill="#595C59"/>
<path d="M59.2246 18.9892L58.6496 18.5217C58.5621 18.4492 58.4321 18.4567 58.3521 18.5392L56.8071 20.1467C56.7171 20.2392 56.7271 20.3892 56.8271 20.4692L57.6846 21.1667C57.7846 21.2467 57.9321 21.2267 58.0046 21.1217L59.2671 19.2842C59.3321 19.1892 59.3146 19.0617 59.2246 18.9892Z" fill="#595C59"/>
<path d="M60.1797 18.6017L59.5572 19.0042C59.4622 19.0667 59.4297 19.1917 59.4822 19.2917L60.5322 21.2567C60.5922 21.3692 60.7372 21.4067 60.8447 21.3367L61.7747 20.7367C61.8822 20.6667 61.9072 20.5192 61.8297 20.4167L60.4722 18.6492C60.4022 18.5592 60.2747 18.5367 60.1797 18.5992V18.6017Z" fill="#595C59"/>
<path d="M60.1097 17.5742L60.2997 18.2892C60.3297 18.3992 60.4372 18.4692 60.5522 18.4492L62.7472 18.0567C62.8747 18.0342 62.9547 17.9092 62.9222 17.7842L62.6397 16.7142C62.6072 16.5892 62.4747 16.5192 62.3547 16.5642L60.2547 17.3092C60.1472 17.3467 60.0872 17.4617 60.1147 17.5717L60.1097 17.5742Z" fill="#595C59"/>
<path d="M59.1096 17.3267L59.8496 17.3667C59.9646 17.3742 60.0646 17.2917 60.0796 17.1767L60.3846 14.9692C60.4021 14.8417 60.3071 14.7267 60.1796 14.7192L59.0746 14.6592C58.9471 14.6517 58.8396 14.7567 58.8421 14.8842L58.9021 17.1117C58.9046 17.2267 58.9946 17.3192 59.1096 17.3242V17.3267Z" fill="#595C59"/>
<path d="M58.3123 18.0691C58.2773 18.6916 58.7548 19.2241 59.3773 19.2591C59.9998 19.2941 60.5323 18.8166 60.5673 18.1941C60.6023 17.5716 60.1248 17.0391 59.5023 17.0041C58.8798 16.9691 58.3473 17.4466 58.3123 18.0691Z" fill="#2D2E36"/>
<path d="M8.88216 19.3468L20.4222 19.5568C20.6747 18.9368 20.8297 18.2668 20.8697 17.5618C21.0597 14.1518 18.4447 11.2318 15.0347 11.0443C11.6247 10.8543 8.70467 13.4693 8.51717 16.8793C8.46967 17.7468 8.60217 18.5818 8.88467 19.3468H8.88216Z" fill="black"/>
<path d="M14.2786 22.6532C11.2872 22.4219 9.04965 19.8095 9.28088 16.8181C9.5121 13.8268 12.1245 11.5892 15.1159 11.8205C18.1072 12.0517 20.3448 14.6641 20.1136 17.6555C19.8823 20.6468 17.2699 22.8844 14.2786 22.6532Z" fill="#1A1A1A"/>
<path d="M11.2271 17.0417C11.1221 18.9542 12.5871 20.5917 14.4996 20.6967C16.4121 20.8017 18.0496 19.3367 18.1546 17.4242C18.2596 15.5117 16.7946 13.8742 14.8821 13.7692C12.9696 13.6642 11.3321 15.1292 11.2271 17.0417Z" fill="#2D2E36"/>
<path d="M13.0972 17.1342C13.0497 18.0142 13.7222 18.7667 14.6022 18.8167C15.4822 18.8642 16.2347 18.1917 16.2847 17.3117C16.3322 16.4317 15.6597 15.6792 14.7797 15.6292C13.8997 15.5817 13.1472 16.2542 13.0972 17.1342Z" fill="#595C59"/>
<path d="M13.8171 17.2892L14.0846 16.5992C14.1271 16.4917 14.0796 16.3717 13.9746 16.3217L11.9696 15.3492C11.8546 15.2942 11.7146 15.3492 11.6696 15.4667L11.2696 16.4992C11.2221 16.6192 11.2896 16.7542 11.4121 16.7892L13.5496 17.4217C13.6596 17.4542 13.7746 17.3967 13.8171 17.2892Z" fill="#595C59"/>
<path d="M14.4795 18.0791L13.9045 17.6116C13.817 17.5391 13.6871 17.5466 13.6071 17.6291L12.062 19.2366C11.972 19.3291 11.982 19.4791 12.082 19.5591L12.9395 20.2566C13.0395 20.3366 13.1871 20.3166 13.2596 20.2116L14.5196 18.3741C14.5846 18.2791 14.5671 18.1516 14.4771 18.0791H14.4795Z" fill="#595C59"/>
<path d="M15.4345 17.6941L14.812 18.0966C14.717 18.1591 14.6845 18.2841 14.737 18.3841L15.787 20.3491C15.847 20.4616 15.992 20.4991 16.0995 20.4291L17.0295 19.8291C17.137 19.7591 17.162 19.6116 17.0845 19.5091L15.727 17.7416C15.657 17.6516 15.5295 17.6291 15.4345 17.6916V17.6941Z" fill="#595C59"/>
<path d="M15.3621 16.6666L15.5521 17.3816C15.5821 17.4916 15.6896 17.5616 15.8046 17.5416L17.9996 17.1491C18.1271 17.1266 18.2071 17.0016 18.1746 16.8766L17.8921 15.8066C17.8596 15.6816 17.7271 15.6116 17.6071 15.6566L15.5071 16.4016C15.3996 16.4391 15.3396 16.5541 15.3671 16.6641L15.3621 16.6666Z" fill="#595C59"/>
<path d="M14.3621 16.4167L15.1021 16.4567C15.2171 16.4642 15.3171 16.3817 15.3321 16.2667L15.6371 14.0592C15.6546 13.9317 15.5596 13.8167 15.4321 13.8092L14.3271 13.7492C14.1996 13.7417 14.0921 13.8467 14.0946 13.9742L14.1546 16.2017C14.1571 16.3167 14.2471 16.4092 14.3621 16.4142V16.4167Z" fill="#595C59"/>
<path d="M13.5647 17.1592C13.5297 17.7817 14.0072 18.3142 14.6297 18.3492C15.2522 18.3842 15.7847 17.9067 15.8197 17.2842C15.8547 16.6617 15.3772 16.1292 14.7547 16.0942C14.1322 16.0592 13.5997 16.5367 13.5647 17.1592Z" fill="#2D2E36"/>
<path d="M39.2749 2.57671C37.8599 2.12921 35.5074 1.76171 32.9424 1.56421C32.5049 1.53171 32.1624 1.93671 32.2724 2.36171L33.4499 6.99171C33.5174 7.26171 33.7524 7.45421 34.0299 7.47421L48.2749 8.42421C48.2749 8.42421 42.6974 3.65671 39.2774 2.57671H39.2749Z" fill="#717B80"/>
<path d="M32.5174 2.29915L32.8399 3.56415L33.6949 6.92915C33.7374 7.09165 33.8749 7.20915 34.0449 7.21915L45.5549 7.98665L47.5024 8.11665C45.9724 6.86915 41.8774 3.66665 39.1999 2.81915C37.8174 2.38165 35.5299 2.01665 32.9249 1.81665C32.9149 1.81665 32.9049 1.81665 32.8949 1.81665C32.7749 1.81665 32.6649 1.87165 32.5899 1.96665C32.5149 2.06165 32.4924 2.18165 32.5199 2.29915H32.5174Z" fill="#717B80"/>
<path d="M32.5874 1.96665C32.5124 2.06165 32.4899 2.18165 32.5174 2.29915L32.8399 3.56415C38.4599 4.57665 42.5499 6.26165 45.5549 7.98665L47.5024 8.11665C45.9724 6.86915 41.8774 3.66665 39.1999 2.81915C37.8174 2.38165 35.5299 2.01665 32.9249 1.81665C32.9149 1.81665 32.9049 1.81665 32.8949 1.81665C32.7749 1.81665 32.6649 1.87165 32.5899 1.96665H32.5874Z" fill="#373E41"/>
<path d="M17.4725 4.85171L19.5325 6.23671C19.9125 6.49171 20.3525 6.64171 20.8075 6.67171L29.1 7.20171C29.47 7.22421 29.785 6.92922 29.7825 6.55922L29.7625 2.05172C29.7625 1.69922 29.475 1.41422 29.1225 1.41172C26.7025 1.40422 24.4025 1.58921 22.81 2.03921C20.17 2.78421 18.44 3.52922 17.5325 3.97422C17.18 4.14672 17.1475 4.63421 17.4725 4.85421V4.85171Z" fill="#717B80"/>
<path d="M17.6148 4.63925L19.6748 6.02425C20.0173 6.25425 20.4148 6.38926 20.8248 6.41676L29.1173 6.94675C29.1173 6.94675 29.1348 6.94675 29.1423 6.94675C29.2448 6.94675 29.3423 6.90676 29.4148 6.83176C29.4873 6.75926 29.5273 6.66176 29.5273 6.55676L29.5123 3.06925L29.5073 2.08426C29.5073 1.87176 29.3348 1.73425 29.1223 1.73425H28.9998C26.4248 1.73425 24.3098 1.91176 22.8798 2.31676C22.4948 2.42426 22.1298 2.51676 21.7848 2.62176C19.8273 3.23176 18.4748 3.80176 17.6448 4.20676C17.5248 4.26426 17.5073 4.36926 17.5023 4.41176C17.4998 4.45676 17.5023 4.56176 17.6148 4.63676V4.63925Z" fill="#717B80"/>
<path d="M21.785 2.60676C24.6049 2.62676 27.1725 2.79175 29.5125 3.06925L29.5075 2.08426C29.5075 1.87176 29.335 1.73425 29.1225 1.73425H29C26.425 1.73425 24.31 1.91176 22.88 2.31676C22.495 2.42426 22.13 2.49926 21.785 2.60426V2.60676Z" fill="#373E41"/>
<path d="M34.0524 9.16925L34.2074 9.18175C34.3449 8.85175 34.6249 8.70425 34.9349 8.73175L36.3249 8.84925C36.6324 8.87425 36.8849 9.06675 36.9649 9.41675L37.1199 9.42925C37.2899 9.44425 37.4324 9.54925 37.4174 9.71925L37.4049 9.86925C37.3899 10.0393 37.2324 10.1193 37.0624 10.1068L36.9074 10.0942C36.7699 10.4242 36.4899 10.5718 36.1799 10.5443L34.7899 10.4268C34.4824 10.4018 34.2299 10.2092 34.1499 9.85925L33.9949 9.84675C33.8249 9.83175 33.7449 9.73175 33.7574 9.56175L33.7699 9.41175C33.7849 9.24175 33.8799 9.15675 34.0499 9.16925H34.0524Z" fill="#818590"/>
<path d="M17.7999 8.23419L17.9549 8.2467C18.0924 7.9167 18.3724 7.76919 18.6824 7.79669L20.0724 7.91419C20.3799 7.93919 20.6324 8.1317 20.7124 8.4817L20.8674 8.4942C21.0374 8.5092 21.1799 8.6142 21.1649 8.7842L21.1524 8.9342C21.1374 9.1042 20.9799 9.18419 20.8099 9.17169L20.6549 9.1592C20.5174 9.4892 20.2374 9.63669 19.9274 9.60919L18.5374 9.49169C18.2299 9.46669 17.9774 9.2742 17.8974 8.9242L17.7424 8.9117C17.5724 8.8967 17.4924 8.7967 17.5049 8.6267L17.5174 8.47669C17.5324 8.30669 17.6274 8.22169 17.7974 8.23419H17.7999Z" fill="#818590"/>
<path d="M46.4373 9.67425C46.3298 9.66675 46.2348 9.58925 46.2173 9.48175C46.0898 8.73175 46.7973 6.99675 46.7973 6.99675C46.9898 6.62425 47.3798 6.40175 47.7048 6.67675L48.5598 7.40675C48.7398 7.56175 48.8273 7.79925 48.7898 8.03425L48.7523 8.25925C48.7248 8.42425 48.6398 8.57425 48.5073 8.68175L47.5198 9.48175C47.2623 9.69175 46.7098 9.68925 46.4348 9.67175L46.4373 9.67425Z" fill="#818590"/>
<path d="M30.8397 1.64172C30.9922 2.03422 31.0922 2.44423 31.1822 2.85423C31.2922 3.35173 31.3847 3.85423 31.4672 4.35673C31.6397 5.41423 31.7772 6.47673 31.8822 7.54173C32.0922 9.70673 32.1972 11.9017 32.0222 14.0742C31.9747 14.6617 31.9147 15.2517 31.8097 15.8317C31.7247 16.2992 31.6222 16.7617 31.5022 17.2217C31.6547 16.8117 31.7922 16.4042 31.9022 15.9792C32.0272 15.4942 32.1247 14.9992 32.1997 14.5042C32.3622 13.4342 32.4222 12.3467 32.4247 11.2642C32.4272 10.1392 32.3597 9.01423 32.2447 7.89673C32.1347 6.82673 31.9772 5.75672 31.7597 4.70172C31.6547 4.19422 31.5397 3.68922 31.4022 3.18922C31.2747 2.72922 31.1347 2.26923 30.9397 1.83173C30.9097 1.76673 30.8772 1.70422 30.8447 1.64172H30.8397Z" fill="#818590"/>
<path d="M49.4322 9.64917C49.5822 10.1667 49.7247 10.6817 49.8322 11.2117C49.9547 11.8242 50.0322 12.4442 50.0547 13.0667C50.1022 14.3567 49.9247 15.6442 49.5197 16.8717C49.3397 17.4192 49.1172 17.9717 48.7972 18.4542C49.1872 18.0817 49.4547 17.5592 49.6772 17.0742C49.9397 16.4992 50.1297 15.8842 50.2472 15.2642C50.4897 13.9742 50.4222 12.6667 50.1047 11.3967C49.9522 10.7892 49.7097 10.2092 49.4322 9.64917Z" fill="#818590"/>
<path d="M15.6399 4.96667C15.1874 5.55667 15.1549 6.39667 15.2024 7.10917C15.2574 7.90667 15.4424 8.72167 15.8024 9.44167C15.9724 9.78167 16.1899 10.1267 16.5249 10.3217C16.3024 10.0767 16.1649 9.77167 16.0549 9.46417C15.9274 9.10667 15.8299 8.74167 15.7474 8.37167C15.5774 7.61917 15.4624 6.84167 15.4674 6.06917C15.4699 5.69167 15.5124 5.32417 15.6424 4.96917L15.6399 4.96667Z" fill="#818590"/>
<path d="M59.7373 10.5492C59.5248 10.4167 59.2798 10.3668 59.0323 10.3418C58.7298 10.3093 58.4223 10.3143 58.1198 10.3418C57.4898 10.3968 56.8573 10.5443 56.2673 10.7718C55.0998 11.2218 53.9873 11.9892 53.3198 13.0717C53.0123 13.5692 52.7973 14.0918 52.6648 14.6593C52.8698 14.2193 53.0823 13.7943 53.3598 13.3943C53.6973 12.9068 54.1298 12.4543 54.6048 12.0993C55.5973 11.3543 56.7348 10.8493 57.9498 10.5968C58.2648 10.5318 58.5873 10.4818 58.9098 10.4643C59.1873 10.4493 59.4773 10.4467 59.7373 10.5492Z" fill="#818590"/>
<path d="M45.4797 18.5668C44.2897 18.3768 43.0822 18.2768 41.8822 18.1768C40.3822 18.0493 38.8797 17.9518 37.3772 17.8693C35.8147 17.7818 34.2472 17.7268 32.6822 17.6893C31.1447 17.6543 29.6072 17.6468 28.0697 17.6893C27.3322 17.7093 26.5947 17.7393 25.8622 17.8018C25.1772 17.8593 24.4747 17.9118 23.8022 18.0718C23.7047 18.0943 23.6097 18.1168 23.5122 18.1418C24.8197 17.9318 26.1547 17.9293 27.4747 17.9293C28.9847 17.9293 30.4947 17.9618 32.0022 18.0018C33.5597 18.0443 35.1172 18.0993 36.6747 18.1618C38.1722 18.2218 39.6697 18.2843 41.1672 18.3493C42.5097 18.4068 43.8522 18.4593 45.1947 18.5468C45.2897 18.5518 45.3847 18.5618 45.4772 18.5693L45.4797 18.5668Z" fill="#818590"/>
<path d="M65.5297 11.6242L67.0647 13.6242C67.1272 13.7042 67.2172 13.7592 67.3147 13.7817L71.3247 14.6092C71.1172 13.9442 70.7397 13.3317 70.2172 12.8417L68.9922 11.6967C68.8897 11.6017 68.7847 11.5092 68.6772 11.4217L65.9347 10.9517C65.5547 10.8867 65.2922 11.3217 65.5272 11.6267L65.5297 11.6242Z" fill="white"/>
<path d="M1.53223 10.2367H3.58973C3.70973 10.2367 3.82473 10.2342 3.90973 10.1517L6.26973 7.92422C6.56723 7.64172 6.37723 7.14671 5.96473 7.13171L2.63973 7.01172C2.42473 7.29422 2.26223 7.58171 2.16473 7.93671L1.52723 10.2367H1.53223Z" fill="#CB1F2E"/>
<path d="M68.1996 18.9342H69.1071C69.5796 18.9342 69.9646 18.5517 69.9646 18.0767C69.9646 17.6042 69.5821 17.2192 69.1071 17.2192H68.1996C67.7271 17.2192 67.3421 17.6017 67.3421 18.0767C67.3421 18.5492 67.7246 18.9342 68.1996 18.9342Z" fill="#575757"/>
<path d="M2.66982 14.1718H3.57732C4.0509 14.1718 4.43481 14.5551 4.43481 15.028C4.43481 15.5009 4.0509 15.8843 3.57732 15.8843H2.66982C2.19623 15.8843 1.81232 15.5009 1.81232 15.028C1.81232 14.5551 2.19623 14.1718 2.66982 14.1718Z" fill="#575757"/>
<defs>
<filter id="filter0_d_102_26389" x="4.4834" y="16.2345" width="64.0166" height="7.99988" filterUnits="userSpaceOnUse" color-interpolation-filters="sRGB">
<feFlood flood-opacity="0" result="BackgroundImageFix"/>
<feColorMatrix in="SourceAlpha" type="matrix" values="0 0 0 0 0 0 0 0 0 0 0 0 0 0 0 0 0 0 127 0" result="hardAlpha"/>
<feOffset dy="4"/>
<feGaussianBlur stdDeviation="1"/>
<feComposite in2="hardAlpha" operator="out"/>
<feColorMatrix type="matrix" values="0 0 0 0 0 0 0 0 0 0 0 0 0 0 0 0 0 0 0.5 0"/>
<feBlend mode="normal" in2="BackgroundImageFix" result="effect1_dropShadow_102_26389"/>
<feBlend mode="normal" in="SourceGraphic" in2="effect1_dropShadow_102_26389" result="shape"/>
</filter>
<radialGradient id="paint0_radial_102_26389" cx="0" cy="0" r="1" gradientUnits="userSpaceOnUse" gradientTransform="translate(35.998 10.3455) rotate(90) scale(25.4695 41.208)">
<stop offset="0.13" stop-color="#C3C9CC"/>
<stop offset="0.29" stop-color="#BCC2C6"/>
<stop offset="0.51" stop-color="#AAAFB5"/>
<stop offset="0.77" stop-color="#8D919A"/>
<stop offset="0.9" stop-color="#7C808B"/>
</radialGradient>
</defs>
</svg>
