<svg width="70" height="29" viewBox="0 0 70 29" fill="none" xmlns="http://www.w3.org/2000/svg">
<g filter="url(#filter0_d_102_26510)">
<line x1="5.06253" y1="20.885" x2="65.0625" y2="21.885" stroke="black"/>
</g>
<path d="M0.900892 21.1158C1.44089 21.7583 4.34089 22.2658 8.65589 22.6583C12.2559 22.9883 16.8434 23.2358 21.8659 23.4183C31.6334 23.7683 43.0509 23.8583 52.0759 23.7683C57.6259 23.7133 62.2709 23.5883 65.0734 23.4158C66.5134 23.3283 67.4634 23.2258 67.8034 23.1133C68.1284 23.0058 68.7359 22.3133 69.1009 21.6358C69.5434 20.8083 69.9459 19.8883 69.9459 18.9508V16.2458C69.9459 15.2708 69.5259 14.3183 69.0534 13.4808C68.8534 13.1258 68.5309 12.7933 68.2559 12.4833L67.8759 12.1058C67.2459 11.4008 66.3784 10.9233 65.4509 10.7433L62.6284 10.2008L55.0284 8.73827C55.0284 8.73827 55.0034 8.72326 54.9584 8.69576C54.8859 8.65076 54.7559 8.56827 54.5784 8.45827C52.7859 7.33827 46.0634 3.15576 43.6134 1.83576C43.4984 1.77326 43.3934 1.71826 43.2984 1.67076C43.0934 1.56576 42.9359 1.49077 42.8359 1.45827C41.5459 1.00577 6.65089 -0.184229 3.77589 0.708271C3.46839 0.803271 3.16839 1.08576 2.88339 1.51326C2.81589 1.61326 2.75089 1.72076 2.68589 1.83576C2.13089 2.81826 1.63089 4.34827 1.22089 6.13077C1.19339 6.25077 1.16589 6.37076 1.13839 6.49076C0.985887 7.18326 0.848386 7.91077 0.723386 8.65577C0.500886 9.99827 0.325889 11.4008 0.210889 12.7608C-0.111611 16.5858 0.0383891 20.0908 0.898389 21.1158H0.900892Z" fill="#00559A"/>
<path d="M0.900892 21.1158C1.44089 21.7583 4.34089 22.2658 8.65589 22.6583C12.2559 22.9883 16.8434 23.2358 21.8659 23.4183C31.6334 23.7683 43.0509 23.8583 52.0759 23.7683C57.6259 23.7133 62.2709 23.5883 65.0734 23.4158C66.5134 23.3283 67.4634 23.2258 67.8034 23.1133C68.1284 23.0058 68.7359 22.3133 69.1009 21.6358C69.5434 20.8083 69.9459 19.8883 69.9459 18.9508V16.2458C69.9459 15.2708 69.5259 14.3183 69.0534 13.4808C68.8534 13.1258 68.5309 12.7933 68.2559 12.4833L67.8759 12.1058C67.2459 11.4008 66.3784 10.9233 65.4509 10.7433L62.6284 10.2008L55.0284 8.73827C55.0284 8.73827 55.0034 8.72326 54.9584 8.69576C54.8859 8.65076 54.7559 8.56827 54.5784 8.45827C52.7859 7.33827 46.0634 3.15576 43.6134 1.83576C43.4984 1.77326 43.3934 1.71826 43.2984 1.67076C43.0934 1.56576 42.9359 1.49077 42.8359 1.45827C41.5459 1.00577 6.65089 -0.184229 3.77589 0.708271C3.46839 0.803271 3.16839 1.08576 2.88339 1.51326C2.81589 1.61326 2.75089 1.72076 2.68589 1.83576C2.13089 2.81826 1.63089 4.34827 1.22089 6.13077C1.19339 6.25077 1.16589 6.37076 1.13839 6.49076C0.985887 7.18326 0.848386 7.91077 0.723386 8.65577C0.500886 9.99827 0.325889 11.4008 0.210889 12.7608C-0.111611 16.5858 0.0383891 20.0908 0.898389 21.1158H0.900892Z" fill="url(#paint0_radial_102_26510)"/>
<path d="M51.8184 21.9132C51.8184 22.5557 51.9084 23.1807 52.0784 23.7682C57.6284 23.7132 62.2734 23.5882 65.0759 23.4157C65.1859 22.9332 65.2459 22.4282 65.2459 21.9132C65.2459 18.2057 62.2409 15.1982 58.5334 15.1982C54.8259 15.1982 51.8209 18.2032 51.8209 21.9132H51.8184Z" fill="black"/>
<path d="M58.6021 27.442C61.6534 27.4222 64.111 24.9327 64.0913 21.8814C64.0716 18.8301 61.5821 16.3725 58.5308 16.3922C55.4794 16.4119 53.0218 18.9014 53.0415 21.9527C53.0612 25.004 55.5508 27.4617 58.6021 27.442Z" fill="#1A1A1A"/>
<path d="M62.1057 22.0306C62.1645 20.0833 60.6336 18.457 58.6863 18.3982C56.739 18.3394 55.1127 19.8703 55.0539 21.8176C54.9951 23.7649 56.526 25.3912 58.4733 25.45C60.4206 25.5088 62.0469 23.9779 62.1057 22.0306Z" fill="#2D2E36"/>
<path d="M56.9509 21.8457C56.9184 22.7407 57.6209 23.4932 58.5159 23.5257C59.4109 23.5582 60.1634 22.8557 60.1959 21.9607C60.2284 21.0657 59.5259 20.3132 58.6309 20.2807C57.7359 20.2482 56.9834 20.9507 56.9509 21.8457Z" fill="#595C59"/>
<path d="M57.6859 21.9907L57.9434 21.2832C57.9834 21.1732 57.9334 21.0532 57.8259 21.0032L55.7659 20.0557C55.6459 20.0007 55.5059 20.0607 55.4634 20.1832L55.0784 21.2407C55.0334 21.3632 55.1034 21.4982 55.2284 21.5332L57.4134 22.1307C57.5259 22.1607 57.6434 22.1007 57.6834 21.9907H57.6859Z" fill="#595C59"/>
<path d="M58.3735 22.7782L57.781 22.3157C57.6885 22.2432 57.5585 22.2557 57.4785 22.3407L55.941 24.0057C55.8535 24.1007 55.8635 24.2532 55.9685 24.3332L56.8535 25.0257C56.956 25.1057 57.106 25.0807 57.1785 24.9732L58.4235 23.0782C58.4885 22.9807 58.466 22.8507 58.3735 22.7782Z" fill="#595C59"/>
<path d="M59.3384 22.3657L58.7134 22.7857C58.6159 22.8507 58.5858 22.9782 58.6433 23.0807L59.7533 25.0582C59.8183 25.1732 59.9659 25.2082 60.0734 25.1332L61.0059 24.5032C61.1134 24.4307 61.1359 24.2807 61.0559 24.1782L59.6384 22.4082C59.5659 22.3182 59.4359 22.2982 59.3384 22.3632V22.3657Z" fill="#595C59"/>
<path d="M59.2434 21.3232L59.4509 22.0457C59.4834 22.1582 59.5958 22.2257 59.7083 22.2032L61.9309 21.7582C62.0584 21.7332 62.1383 21.6032 62.1008 21.4782L61.7909 20.3982C61.7559 20.2732 61.6184 20.2032 61.4959 20.2507L59.3758 21.0532C59.2658 21.0932 59.2083 21.2132 59.2408 21.3232H59.2434Z" fill="#595C59"/>
<path d="M58.2234 21.0907L58.9759 21.1157C59.0934 21.1207 59.1934 21.0332 59.2059 20.9182L59.4709 18.6682C59.4859 18.5382 59.3884 18.4232 59.2559 18.4182L58.1334 18.3782C58.0034 18.3732 57.8959 18.4807 57.9034 18.6132L58.0109 20.8782C58.0159 20.9957 58.1109 21.0882 58.2259 21.0907H58.2234Z" fill="#595C59"/>
<path d="M57.4259 21.8607C57.4034 22.4932 57.8984 23.0257 58.5334 23.0482C59.1684 23.0707 59.6984 22.5757 59.7209 21.9407C59.7434 21.3082 59.2484 20.7757 58.6134 20.7532C57.9784 20.7307 57.4484 21.2257 57.4259 21.8607Z" fill="#2D2E36"/>
<path d="M8.6134 21.9032C8.6134 22.1582 8.6284 22.4107 8.6559 22.6607C12.2559 22.9907 16.8434 23.2382 21.8659 23.4207C21.9784 22.9332 22.0384 22.4257 22.0384 21.9032C22.0384 18.1957 19.0334 15.1882 15.3259 15.1882C11.6184 15.1882 8.6134 18.1932 8.6134 21.9032Z" fill="black"/>
<path d="M20.8969 22.0928C20.9928 19.0429 18.5981 16.4928 15.5482 16.3969C12.4983 16.3011 9.94822 18.6958 9.85238 21.7457C9.75653 24.7955 12.1512 27.3456 15.2011 27.4415C18.251 27.5373 20.8011 25.1426 20.8969 22.0928Z" fill="#1A1A1A"/>
<path d="M18.8929 22.1215C19.0074 20.1766 17.5236 18.5072 15.5788 18.3927C13.634 18.2782 11.9646 19.7619 11.8501 21.7067C11.7355 23.6516 13.2193 25.321 15.1641 25.4355C17.1089 25.55 18.7783 24.0663 18.8929 22.1215Z" fill="#2D2E36"/>
<path d="M13.7484 21.8332C13.7159 22.7282 14.4184 23.4807 15.3134 23.5132C16.2084 23.5457 16.9609 22.8432 16.9934 21.9482C17.0259 21.0532 16.3234 20.3007 15.4284 20.2682C14.5334 20.2357 13.7809 20.9382 13.7484 21.8332Z" fill="#595C59"/>
<path d="M14.4808 21.9781L14.7383 21.2706C14.7783 21.1606 14.7283 21.0406 14.6208 20.9906L12.5608 20.0431C12.4408 19.9881 12.3008 20.0481 12.2583 20.1706L11.8733 21.2281C11.8283 21.3506 11.8983 21.4856 12.0233 21.5206L14.2083 22.1181C14.3208 22.1481 14.4383 22.0881 14.4783 21.9781H14.4808Z" fill="#595C59"/>
<path d="M15.1708 22.7656L14.5783 22.3031C14.4858 22.2306 14.3558 22.2431 14.2758 22.3281L12.7383 23.9931C12.6508 24.0881 12.6608 24.2406 12.7658 24.3206L13.6508 25.0131C13.7533 25.0931 13.9033 25.0681 13.9758 24.9606L15.2208 23.0656C15.2858 22.9681 15.2633 22.8381 15.1708 22.7656Z" fill="#595C59"/>
<path d="M16.1333 22.3556L15.5083 22.7756C15.4108 22.8406 15.3808 22.9681 15.4383 23.0706L16.5483 25.0481C16.6133 25.1631 16.7608 25.1981 16.8683 25.1231L17.8008 24.4931C17.9083 24.4206 17.9308 24.2706 17.8508 24.1681L16.4333 22.3981C16.3608 22.3081 16.2308 22.2881 16.1333 22.3531V22.3556Z" fill="#595C59"/>
<path d="M16.0383 21.313L16.2458 22.0356C16.2783 22.1481 16.3908 22.2156 16.5033 22.1931L18.7258 21.748C18.8533 21.723 18.9333 21.593 18.8958 21.468L18.5858 20.388C18.5508 20.263 18.4133 20.1955 18.2908 20.2405L16.1708 21.043C16.0608 21.083 16.0033 21.203 16.0358 21.313H16.0383Z" fill="#595C59"/>
<path d="M15.0184 21.0781L15.7709 21.1056C15.8884 21.1106 15.9884 21.0231 16.0009 20.9081L16.2659 18.6581C16.2809 18.5281 16.1834 18.4131 16.0509 18.4081L14.9284 18.3681C14.7984 18.3631 14.6909 18.4706 14.6984 18.6031L14.8059 20.8681C14.8109 20.9856 14.9059 21.0781 15.0209 21.0806L15.0184 21.0781Z" fill="#595C59"/>
<path d="M14.2234 21.8507C14.2009 22.4832 14.6959 23.0157 15.3309 23.0382C15.9634 23.0607 16.4959 22.5657 16.5184 21.9307C16.5409 21.2982 16.0459 20.7657 15.4109 20.7432C14.7759 20.7207 14.2459 21.2157 14.2234 21.8507Z" fill="#2D2E36"/>
<path d="M60.6309 11.4157C61.0784 12.9032 62.6634 13.2982 63.4584 13.4982C64.0259 13.6407 66.9184 13.7307 68.8859 13.4807C68.6859 13.1257 68.4484 12.7932 68.1734 12.4832L67.8334 12.1057C67.2034 11.4007 66.3584 10.9232 65.4284 10.7432L62.6159 10.2007C61.3584 10.4407 60.4509 10.8157 60.6309 11.4157Z" fill="white"/>
<path d="M0.215942 12.7632C1.54344 12.8032 2.86095 12.8932 3.83095 12.6232C5.44095 12.1757 6.43845 10.2457 5.99345 9.10824C5.74845 8.47824 3.83345 8.37575 0.728447 8.66075C0.505947 10.0033 0.330942 11.4057 0.215942 12.7657V12.7632Z" fill="#CB1F2E"/>
<path d="M66.631 18.3682H68.3934C68.6884 18.3682 68.9285 18.1282 68.9285 17.8332C68.9285 17.5382 68.6884 17.2982 68.3934 17.2982H66.631C66.336 17.2982 66.0959 17.5382 66.0959 17.8332C66.0959 18.1282 66.336 18.3682 66.631 18.3682Z" fill="#575757"/>
<path d="M2.16341 19.3032H4.80091C5.18337 19.3032 5.49341 18.9932 5.49341 18.6107V17.9907C5.49341 17.6083 5.18337 17.2982 4.80091 17.2982H2.16341C1.78095 17.2982 1.47091 17.6083 1.47091 17.9907V18.6107C1.47091 18.9932 1.78095 19.3032 2.16341 19.3032Z" fill="#575757"/>
<path d="M43.2084 2.63084C43.4059 4.06084 50.3459 8.08333 51.9909 9.07333C52.6984 9.49833 53.8459 9.22833 54.9559 8.69833C54.8834 8.65333 54.7534 8.57083 54.5759 8.46083C52.7834 7.34083 46.0609 3.15833 43.6109 1.83833C43.4959 1.77583 43.3909 1.72084 43.2959 1.67334C43.2059 2.00334 43.1634 2.33084 43.2059 2.63084H43.2084Z" fill="#717B80"/>
<path d="M43.5509 2.57838C43.5734 2.74338 43.8759 3.43339 46.7959 5.42339C48.5659 6.62839 50.6009 7.84088 51.6934 8.49088C51.8809 8.60088 52.0409 8.67839 52.1684 8.75589C52.3459 8.86339 52.5759 8.89838 52.8534 8.89838C53.3634 8.89838 53.9684 8.72588 54.5759 8.46088C52.7834 7.34088 46.0609 3.15838 43.6109 1.83838C43.5434 2.10088 43.5184 2.35338 43.5484 2.57838H43.5509Z" fill="#373E41"/>
<path d="M33.211 3.02584C33.126 5.38834 34.5735 8.05835 35.736 9.96585C35.9535 10.3233 36.336 10.5508 36.7535 10.5708C42.9935 10.8658 48.2785 10.8284 48.646 9.97335C49.4335 8.13585 42.3235 3.87834 39.8235 3.15084C38.891 2.88084 36.6535 2.64334 33.836 2.46084C33.506 2.43834 33.2235 2.69584 33.211 3.02584Z" fill="#717B80"/>
<path d="M33.8785 5.4108C34.3685 7.0033 35.256 8.5858 35.9885 9.7858C36.146 10.0458 36.4235 10.2108 36.726 10.2233C39.0635 10.3333 41.101 10.3908 42.7885 10.3908C46.8785 10.3908 47.9335 10.0583 48.206 9.8958C48.2535 9.8683 48.276 9.84329 48.2885 9.82829C48.3485 9.68579 48.3185 9.49079 48.206 9.25079C47.3085 7.35079 41.796 4.03579 39.6835 3.42079C38.8435 3.17579 36.7435 2.93579 33.771 2.68579H33.7535C33.626 2.68579 33.5185 2.84829 33.5135 2.97829C33.486 3.74079 33.631 4.6083 33.8785 5.4108Z" fill="#717B80"/>
<path d="M15.631 8.63579C16.071 8.88579 22.806 9.6283 30.081 10.1608C30.4885 10.1908 30.8335 9.86329 30.8285 9.45329C30.801 7.18829 30.1485 4.53329 29.4385 2.90579C29.256 2.48829 28.8485 2.21579 28.396 2.20079C21.051 1.95329 12.941 2.0558 12.496 2.7533C11.7385 3.9433 14.1385 7.78579 15.631 8.63579Z" fill="#717B80"/>
<path d="M12.7385 3.91827C12.791 4.13077 12.8685 4.35828 12.9635 4.59578C13.546 6.03078 14.836 7.80328 15.7535 8.33078C16.291 8.54828 22.5085 9.26328 30.0635 9.81578C30.0735 9.81578 30.081 9.81578 30.091 9.81578C30.186 9.81578 30.2735 9.77827 30.3385 9.71077C30.406 9.64327 30.4435 9.55328 30.441 9.45578C30.4235 7.93828 30.121 6.29078 29.736 4.92578C29.531 4.19828 29.3035 3.54827 29.081 3.04077C28.9535 2.75077 28.6635 2.55327 28.3435 2.54327C25.971 2.46327 23.5635 2.42078 21.376 2.42078C13.951 2.42078 12.871 2.87328 12.7335 2.95828C12.6285 3.14578 12.631 3.48577 12.7385 3.91327V3.91827Z" fill="#717B80"/>
<path d="M1.14343 6.4933C2.51093 6.3033 3.70343 6.1183 4.09343 6.0108C5.18343 5.7108 4.88593 2.3458 3.69843 1.7308C3.51593 1.6358 3.23593 1.56331 2.88843 1.51331C2.82093 1.61331 2.75593 1.7208 2.69093 1.8358C2.13593 2.8183 1.63593 4.34831 1.22593 6.13081C1.19843 6.25081 1.17093 6.3708 1.14343 6.4908V6.4933Z" fill="#717B80"/>
<path d="M1.22339 6.13326C2.52089 5.95076 3.63339 5.77825 4.00089 5.67825C4.19589 5.62575 4.35339 5.27327 4.40589 4.78577C4.52339 3.66327 4.10089 2.33076 3.53839 2.04076C3.37089 1.95326 3.07839 1.88576 2.68839 1.83826C2.13339 2.82076 1.63339 4.35075 1.22339 6.13326Z" fill="#717B80"/>
<path d="M33.8785 5.4108C41.2335 6.4683 45.586 8.2608 48.206 9.8958C48.2535 9.8683 48.276 9.84329 48.2885 9.82829C48.3485 9.68579 48.3185 9.49079 48.206 9.25079C47.3085 7.35079 41.796 4.03579 39.6835 3.42079C38.8435 3.17579 36.7435 2.93579 33.771 2.68579H33.7535C33.626 2.68579 33.5185 2.84829 33.5135 2.97829C33.486 3.74079 33.631 4.6083 33.8785 5.4108Z" fill="#373E41"/>
<path d="M12.7385 3.91833C12.791 4.13083 12.8685 4.35834 12.9635 4.59584C19.636 4.35084 25.1585 4.50833 29.736 4.92833C29.531 4.20083 29.3035 3.55083 29.081 3.04333C28.9535 2.75333 28.6635 2.55584 28.3435 2.54584C25.971 2.46584 23.5635 2.42334 21.376 2.42334C13.951 2.42334 12.871 2.87583 12.7335 2.96083C12.6285 3.14833 12.631 3.48833 12.7385 3.91583V3.91833Z" fill="#373E41"/>
<path d="M30.7885 1.83826C30.946 2.03326 31.0535 2.25577 31.146 2.48827C31.2635 2.77577 31.3585 3.07076 31.446 3.36826C31.6335 4.00576 31.7835 4.65325 31.9185 5.30325C32.2035 6.68575 32.426 8.08326 32.616 9.48076C32.811 10.9108 32.9685 12.3458 33.081 13.7833C33.191 15.1958 33.271 16.6108 33.2935 18.0308C33.311 19.2283 33.291 20.4308 33.191 21.6258C33.1835 21.7208 33.1735 21.8158 33.166 21.9108C33.361 20.7783 33.4635 19.6358 33.5085 18.4883C33.5635 17.0658 33.5285 15.6383 33.4435 14.2183C33.356 12.7433 33.1985 11.2708 32.996 9.80826C32.7985 8.38326 32.5435 6.96327 32.2085 5.56577C32.0485 4.90327 31.871 4.24575 31.656 3.60075C31.4835 3.08575 31.2935 2.54826 30.9935 2.09326C30.9335 2.00076 30.8635 1.91576 30.7885 1.83826Z" fill="#818590"/>
<path d="M15.7109 9.6283C16.0434 9.8958 16.3809 10.1583 16.6759 10.4683C17.0259 10.8383 17.3109 11.2683 17.5359 11.7233C17.7359 12.1258 17.8859 12.5433 18.0459 12.9633C18.2284 13.4383 18.4584 13.8783 18.8009 14.2583C19.5259 15.0633 20.5759 15.3658 21.4909 15.8858C22.4084 16.4083 23.0709 17.2608 23.5034 18.2133C23.9334 19.1608 24.1509 20.1933 24.0759 21.2358C24.0709 21.3133 24.0659 21.3883 24.0584 21.4658C24.1409 21.0208 24.2059 20.5708 24.1759 20.1158C24.1409 19.5683 24.0484 19.0333 23.8784 18.5108C23.5484 17.5033 22.9359 16.4708 22.0559 15.8508C21.6034 15.5308 21.0959 15.2983 20.5959 15.0633C20.1084 14.8333 19.6159 14.5883 19.2184 14.2183C18.9309 13.9533 18.7034 13.6483 18.5134 13.3058C18.2934 12.9083 18.1559 12.4633 17.9584 12.0558C17.7209 11.5633 17.4309 11.0933 17.0609 10.6883C16.7234 10.3158 16.3234 10.0233 15.9009 9.7558C15.8359 9.7158 15.7709 9.67329 15.7059 9.63329L15.7109 9.6283Z" fill="#818590"/>
<path d="M49.711 10.9332C50.036 11.5007 50.2035 12.1407 50.3235 12.7782C50.4585 13.5082 50.5285 14.2482 50.5585 14.9907C50.616 16.4732 50.491 17.9957 50.1085 19.4332C50.011 19.8032 49.9035 20.1707 49.7685 20.5307C49.646 20.8557 49.5085 21.1732 49.366 21.4882C50.146 20.3132 50.586 18.9707 50.786 17.5782C51.0035 16.0707 50.9585 14.4907 50.6085 13.0057C50.436 12.2707 50.186 11.5307 49.7135 10.9332H49.711Z" fill="#818590"/>
<path d="M48.0684 20.0357C46.7934 19.2632 45.3484 18.7957 43.9159 18.4132C42.2934 17.9807 40.6334 17.7082 38.9659 17.5332C37.6509 17.3932 36.3284 17.3582 35.0059 17.3782C33.3359 17.4032 31.6584 17.5782 30.0234 17.9157C28.4634 18.2382 26.9384 18.6957 25.4784 19.3382C25.3659 19.3882 25.2559 19.4357 25.1434 19.4857C25.7734 19.2607 26.4009 19.0307 27.0434 18.8507C27.8159 18.6357 28.5934 18.4482 29.3784 18.2857C30.9959 17.9507 32.6559 17.7957 34.3034 17.7357C35.6434 17.6857 36.9909 17.7107 38.3284 17.8157C39.9934 17.9482 41.6509 18.1657 43.2884 18.5082C44.0784 18.6732 44.8659 18.8657 45.6409 19.0957C46.3684 19.3107 47.0909 19.5557 47.7759 19.8857C47.8759 19.9332 47.9734 19.9857 48.0734 20.0357H48.0684Z" fill="#818590"/>
<path d="M64.7484 15.7333C64.5659 15.3558 64.2659 15.0658 63.9484 14.7983C63.5809 14.4933 63.1809 14.2383 62.7659 14.0033C61.9259 13.5258 60.9809 13.1908 60.0359 13.0083C59.1359 12.8333 58.2234 12.7958 57.3134 12.9058C56.3334 13.0258 55.3759 13.3583 54.5184 13.8458C54.0559 14.1083 53.6234 14.4208 53.2209 14.7658C52.8759 15.0608 52.5709 15.3983 52.2684 15.7333C52.5684 15.4708 52.8709 15.2133 53.1834 14.9658C53.5434 14.6808 53.9409 14.4308 54.3434 14.2108C55.1809 13.7533 56.0884 13.4308 57.0334 13.2858C58.8609 13.0058 60.7334 13.3383 62.4159 14.0883C62.8884 14.2983 63.3434 14.5458 63.7759 14.8308C64.1459 15.0758 64.5109 15.3583 64.7534 15.7333H64.7484Z" fill="#818590"/>
<path d="M48.0359 7.70575C47.9459 7.64325 47.8209 7.64826 47.7384 7.72326C47.1684 8.24576 46.6534 10.0808 46.6534 10.0808C46.5759 10.5008 46.7509 10.9232 47.1834 10.9032L48.326 10.8507C48.5685 10.8407 48.7859 10.7032 48.9034 10.4907L49.0135 10.2882C49.096 10.1382 49.1184 9.96325 49.0809 9.79825L48.7859 8.53824C48.7084 8.20824 48.2659 7.86826 48.0334 7.70826L48.0359 7.70575Z" fill="#818590"/>
<path d="M20.2159 10.9358H20.3434C20.4334 10.6858 20.6534 10.6858 20.9059 10.6858H22.0534C22.3084 10.6858 22.5259 10.6858 22.6159 10.9358H22.7434C22.8834 10.9358 22.9459 11.1683 22.9459 11.3083V11.4333C22.9459 11.5733 22.8834 11.6858 22.7434 11.6858H22.6159C22.5259 11.9358 22.3059 11.9358 22.0534 11.9358H20.9059C20.6509 11.9358 20.4334 11.9358 20.3434 11.6858H20.2159C20.0759 11.6858 19.9459 11.5733 19.9459 11.4333V11.3083C19.9459 11.1683 20.0759 10.9358 20.2159 10.9358Z" fill="#818590"/>
<path d="M35.8759 12.4358H36.0034C36.0934 12.1858 36.3134 11.9358 36.5659 11.9358H37.7134C37.9684 11.9358 38.1859 12.1858 38.2759 12.4358H38.4034C38.5434 12.4358 38.4459 12.4658 38.4459 12.6058V12.7308C38.4459 12.8708 38.5434 12.9358 38.4034 12.9358H38.2759C38.1859 13.1858 37.9659 13.1858 37.7134 13.1858H36.5659C36.3109 13.1858 36.0934 13.1858 36.0034 12.9358H35.8759C35.7359 12.9358 35.4459 12.8708 35.4459 12.7308V12.6058C35.4459 12.4658 35.7359 12.4358 35.8759 12.4358Z" fill="#818590"/>
<defs>
<filter id="filter0_d_102_26510" x="3.0542" y="20.385" width="64.0166" height="7.99988" filterUnits="userSpaceOnUse" color-interpolation-filters="sRGB">
<feFlood flood-opacity="0" result="BackgroundImageFix"/>
<feColorMatrix in="SourceAlpha" type="matrix" values="0 0 0 0 0 0 0 0 0 0 0 0 0 0 0 0 0 0 127 0" result="hardAlpha"/>
<feOffset dy="4"/>
<feGaussianBlur stdDeviation="1"/>
<feComposite in2="hardAlpha" operator="out"/>
<feColorMatrix type="matrix" values="0 0 0 0 0 0 0 0 0 0 0 0 0 0 0 0 0 0 0.5 0"/>
<feBlend mode="normal" in2="BackgroundImageFix" result="effect1_dropShadow_102_26510"/>
<feBlend mode="normal" in="SourceGraphic" in2="effect1_dropShadow_102_26510" result="shape"/>
</filter>
<radialGradient id="paint0_radial_102_26510" cx="0" cy="0" r="1" gradientUnits="userSpaceOnUse" gradientTransform="translate(35.002 12.0956) rotate(90) scale(29.4987 40.5457)">
<stop offset="0.13" stop-color="#C3C9CC"/>
<stop offset="0.29" stop-color="#BCC2C6"/>
<stop offset="0.51" stop-color="#AAAFB5"/>
<stop offset="0.77" stop-color="#8D919A"/>
<stop offset="0.9" stop-color="#7C808B"/>
</radialGradient>
</defs>
</svg>
