<svg width="59" height="20" viewBox="0 0 59 20" fill="none" xmlns="http://www.w3.org/2000/svg">
<g clip-path="url(#clip0_102_26376)">
<path d="M13.6783 12.4567C13.215 12.5369 13.2863 13.2605 13.7563 13.2487C14.3311 13.239 14.2441 12.3544 13.6783 12.4567Z" fill="#2A3037"/>
<path d="M12.1654 12.4568C11.5998 12.3541 11.5122 13.2387 12.087 13.2488C12.5571 13.2606 12.6287 12.5375 12.1654 12.4568Z" fill="#2A3037"/>
<path d="M3.81758 12.4567C3.25187 12.3543 3.16472 13.2388 3.73957 13.2487C4.20957 13.2605 4.28082 12.5371 3.81758 12.4567Z" fill="#2A3037"/>
<path d="M5.48675 12.4567C4.92026 12.3554 4.83433 13.2385 5.4087 13.2487C5.8787 13.2604 5.94995 12.537 5.48675 12.4567Z" fill="#2A3037"/>
<path d="M19.9738 11.2283L16.5439 2.20875C16.4667 2.00476 16.2399 1.90074 16.0343 1.97476L0.263984 7.67269C0.256797 7.67508 0.25 7.67789 0.243203 7.68109C0.237617 7.68347 0.231992 7.6859 0.226797 7.68871C0.215195 7.6939 0.203594 7.69992 0.192813 7.70711C0.187227 7.71031 0.181602 7.7139 0.176406 7.7175C0.167617 7.72308 0.159219 7.7291 0.151211 7.7359C0.146797 7.7391 0.142812 7.7423 0.139219 7.7459C0.132812 7.75148 0.126836 7.75711 0.12082 7.76308C0.118828 7.76429 0.117227 7.7659 0.115625 7.76789C0.111641 7.77187 0.108008 7.77551 0.104414 7.77988C0.0992188 7.78508 0.0944141 7.79066 0.09 7.79629C0.0835937 7.8039 0.0776172 7.81187 0.0719922 7.82027C0.0671875 7.82707 0.0623828 7.83426 0.0580078 7.84148C0.0476172 7.85828 0.0387891 7.8759 0.0312109 7.8943C0.0292188 7.89828 0.0276172 7.90269 0.0260156 7.90711C0.0232031 7.9139 0.0208203 7.92109 0.0188281 7.92789C0.015625 7.9375 0.0128125 7.9475 0.0108203 7.9575C0.0084375 7.96629 0.00683594 7.97512 0.005625 7.9839C0.00480469 7.98672 0.00441406 7.9891 0.00441406 7.99191C0.0028125 8.00031 0.00203125 8.00871 0.00121094 8.0175V8.01828C0.000390625 8.02828 0 8.03828 0 8.04828V8.0491V17.649C0 17.8698 0.17918 18.049 0.4 18.049H17.0955C17.3162 18.049 17.4955 17.8698 17.4955 17.649V12.5295L19.7318 11.7482C19.8338 11.7127 19.917 11.637 19.9626 11.5395C20.0082 11.4414 20.0122 11.3295 19.9738 11.2283ZM16.7999 17.1998H0.8V8.39988H4.65996H5.04355H16.3679H16.7511H16.7998V11.9762V12.5146V17.1998H16.7999ZM7.08914 7.6491L13.5051 5.40832C13.7847 5.85273 14.4203 6.58351 15.6471 6.7743L15.9799 7.6491H7.08914ZM17.4955 11.6819V8.0491C17.4955 7.82789 17.3162 7.6491 17.0955 7.6491H16.8355L16.3091 6.2643C16.2546 6.12109 16.123 6.02148 15.9703 6.00828C14.5259 5.88066 14.0875 4.81789 14.0707 4.77551C13.9935 4.57312 13.7695 4.46871 13.5647 4.54031L4.70676 7.63387C4.69394 7.63828 4.68156 7.64348 4.66957 7.64906H2.68359L15.9363 2.86074L19.0799 11.1283L17.4955 11.6819Z" fill="#2A3037"/>
<path d="M8.79993 10.7999C7.69715 10.7999 6.79993 11.6971 6.79993 12.7999C6.79993 13.9027 7.69711 14.7999 8.79993 14.7999C9.90274 14.7999 10.7999 13.9027 10.7999 12.7999C10.7999 11.6971 9.90274 10.7999 8.79993 10.7999ZM8.79993 13.9999C8.13833 13.9999 7.59993 13.4615 7.59993 12.7999C7.59993 12.1383 8.13833 11.5999 8.79993 11.5999C9.46153 11.5999 9.99993 12.1383 9.99993 12.7999C9.99993 13.4615 9.46153 13.9999 8.79993 13.9999Z" fill="#2A3037"/>
<path d="M15.5995 10.8C14.9379 10.8 14.3995 10.2616 14.3995 9.59995C14.3995 9.37917 14.2204 9.19995 13.9995 9.19995H3.59961C3.37883 9.19995 3.19961 9.37913 3.19961 9.59995C3.19961 10.2616 2.66121 10.8 1.99961 10.8C1.77883 10.8 1.59961 10.9791 1.59961 11.2V14.3999C1.59961 14.6207 1.77879 14.7999 1.99961 14.7999C2.66121 14.7999 3.19961 15.3383 3.19961 15.9999C3.19961 16.2207 3.37879 16.3999 3.59961 16.3999H13.9995C14.2203 16.3999 14.3995 16.2207 14.3995 15.9999C14.3995 15.3383 14.9379 14.7999 15.5995 14.7999C15.8203 14.7999 15.9995 14.6207 15.9995 14.3999V11.2C15.9995 10.9791 15.8203 10.8 15.5995 10.8ZM15.1995 14.0403C14.4171 14.1995 13.7991 14.8175 13.64 15.5999H3.95961C3.8 14.8175 3.18203 14.1995 2.39961 14.0403V11.5599C3.18199 11.4003 3.8 10.7823 3.95961 9.99991H13.6399C13.7991 10.7823 14.4171 11.4003 15.1995 11.5599V14.0403H15.1995Z" fill="#2A3037"/>
</g>
<path d="M33.112 13.632C31.84 13.632 30.76 13.212 29.872 12.36C28.996 11.508 28.552 10.428 28.552 9.096C28.552 7.752 28.996 6.648 29.896 5.784C30.796 4.908 31.876 4.476 33.148 4.476C33.952 4.476 34.696 4.656 35.38 5.016C36.064 5.364 36.592 5.832 36.976 6.42L36.088 7.164C35.332 6.144 34.36 5.64 33.172 5.64C32.224 5.64 31.432 5.964 30.772 6.624C30.112 7.284 29.788 8.112 29.788 9.108C29.788 10.092 30.112 10.896 30.748 11.532C31.396 12.168 32.2 12.48 33.16 12.48C34.36 12.48 35.416 11.904 36.136 10.98L37 11.712C36.172 12.864 34.744 13.632 33.112 13.632ZM43.2807 8.004V7.068H44.3847V13.5H43.2807V12.588C42.7047 13.296 41.9487 13.656 41.0127 13.656C40.0887 13.656 39.3207 13.332 38.7087 12.672C38.0967 12.012 37.7967 11.208 37.7967 10.236C37.7967 9.276 38.0967 8.484 38.7087 7.86C39.3207 7.224 40.0887 6.912 41.0127 6.912C41.9247 6.912 42.6807 7.272 43.2807 8.004ZM43.3527 10.272C43.3527 9.636 43.1487 9.084 42.7407 8.64C42.3327 8.196 41.8047 7.968 41.1447 7.968C40.4847 7.968 39.9567 8.196 39.5607 8.64C39.1647 9.084 38.9607 9.636 38.9607 10.284C38.9607 10.932 39.1647 11.484 39.5607 11.928C39.9567 12.372 40.4847 12.6 41.1447 12.6C41.8047 12.6 42.3327 12.372 42.7407 11.928C43.1487 11.484 43.3527 10.932 43.3527 10.272ZM47.9732 13.644C47.0132 13.644 46.0772 13.176 45.5852 12.252L46.4132 11.616C46.7852 12.3 47.4212 12.636 48.0092 12.636C48.6932 12.636 49.1492 12.24 49.1492 11.748C49.1492 11.412 48.9572 11.136 48.5612 10.932C48.4292 10.86 48.1532 10.74 47.7572 10.572C47.3612 10.404 47.0972 10.284 46.9652 10.212C46.3052 9.852 45.9812 9.336 45.9812 8.652C45.9812 8.136 46.1732 7.704 46.5572 7.368C46.9412 7.02 47.4452 6.852 48.0812 6.852C48.8972 6.852 49.6892 7.2 50.1212 7.872L49.3892 8.568C49.0412 8.076 48.5852 7.824 48.0092 7.824C47.4332 7.824 47.0852 8.172 47.0852 8.604C47.0852 8.94 47.2652 9.192 47.6252 9.36L48.3332 9.672C48.7172 9.828 49.0052 9.96 49.1972 10.068C49.9292 10.44 50.2892 10.98 50.2892 11.688C50.2892 12.24 50.0732 12.708 49.6412 13.08C49.2092 13.452 48.6572 13.644 47.9732 13.644ZM52.7744 13.5H51.6224V4.416H52.7384V7.86C53.1344 7.284 53.9024 6.9 54.7784 6.9C55.4864 6.9 56.0864 7.128 56.5784 7.596C57.0704 8.064 57.3104 8.724 57.3104 9.6V13.5H56.1704V9.924C56.1704 8.664 55.5104 7.968 54.5384 7.968C53.4944 7.968 52.7744 8.772 52.7744 9.924V13.5Z" fill="#2A3037"/>
<defs>
<clipPath id="clip0_102_26376">
<rect width="20" height="20" fill="white"/>
</clipPath>
</defs>
</svg>
