<svg width="25" height="24" viewBox="0 0 25 24" fill="none" xmlns="http://www.w3.org/2000/svg">
<path d="M10.5 17C10.7833 17 11.021 16.904 11.213 16.712C11.405 16.52 11.5007 16.2827 11.5 16V10C11.5 9.71667 11.404 9.47933 11.212 9.288C11.02 9.09667 10.7827 9.00067 10.5 9C10.2173 8.99933 9.98 9.09533 9.788 9.288C9.596 9.48067 9.5 9.718 9.5 10V16C9.5 16.2833 9.596 16.521 9.788 16.713C9.98 16.905 10.2173 17.0007 10.5 17ZM14.5 17C14.7833 17 15.021 16.904 15.213 16.712C15.405 16.52 15.5007 16.2827 15.5 16V10C15.5 9.71667 15.404 9.47933 15.212 9.288C15.02 9.09667 14.7827 9.00067 14.5 9C14.2173 8.99933 13.98 9.09533 13.788 9.288C13.596 9.48067 13.5 9.718 13.5 10V16C13.5 16.2833 13.596 16.521 13.788 16.713C13.98 16.905 14.2173 17.0007 14.5 17ZM10.5 3C10.2167 3 9.97933 2.904 9.788 2.712C9.59667 2.52 9.50067 2.28267 9.5 2C9.49933 1.71733 9.59533 1.48 9.788 1.288C9.98067 1.096 10.218 1 10.5 1H14.5C14.7833 1 15.021 1.096 15.213 1.288C15.405 1.48 15.5007 1.71733 15.5 2C15.4993 2.28267 15.4033 2.52033 15.212 2.713C15.0207 2.90567 14.7833 3.00133 14.5 3H10.5ZM12.5 22C11.2667 22 10.104 21.7627 9.012 21.288C7.92 20.8133 6.966 20.1673 6.15 19.35C5.334 18.5327 4.68833 17.5783 4.213 16.487C3.73767 15.3957 3.5 14.2333 3.5 13C3.5 11.7667 3.73767 10.604 4.213 9.512C4.68833 8.42 5.334 7.466 6.15 6.65C6.966 5.834 7.92033 5.18833 9.013 4.713C10.1057 4.23767 11.268 4 12.5 4C13.5333 4 14.525 4.16667 15.475 4.5C16.425 4.83333 17.3167 5.31667 18.15 5.95L18.85 5.25C19.0333 5.06667 19.2667 4.975 19.55 4.975C19.8333 4.975 20.0667 5.06667 20.25 5.25C20.4333 5.43333 20.525 5.66667 20.525 5.95C20.525 6.23333 20.4333 6.46667 20.25 6.65L19.55 7.35C20.1833 8.18333 20.6667 9.075 21 10.025C21.3333 10.975 21.5 11.9667 21.5 13C21.5 14.2333 21.2623 15.396 20.787 16.488C20.3117 17.58 19.666 18.534 18.85 19.35C18.034 20.166 17.0797 20.812 15.987 21.288C14.8943 21.764 13.732 22.0013 12.5 22Z" fill="#3D9BD6"/>
</svg>
