<svg width="24" height="24" viewBox="0 0 24 24" fill="none" xmlns="http://www.w3.org/2000/svg">
<g clip-path="url(#clip0_102_26896)">
<path d="M23.5735 4.53883C23.2625 4.17123 22.827 3.9467 22.3472 3.90662L5.44615 2.49541C4.96625 2.45533 4.49965 2.60454 4.13201 2.91546C3.76588 3.22516 3.54167 3.65842 3.50033 4.13594L3.1603 7.32605H1.80257C0.808637 7.32605 0 8.13469 0 9.12862V19.7084C0 20.7023 0.808637 21.5109 1.80257 21.5109H18.7625C19.7565 21.5109 20.5651 20.7023 20.5651 19.7084V17.9921L21.1669 18.0424C21.2177 18.0466 21.2682 18.0487 21.3182 18.0487C22.2449 18.0487 23.0348 17.3358 23.1133 16.396L23.9936 5.85301C24.0337 5.37315 23.8845 4.90646 23.5735 4.53883ZM1.80257 8.26354H18.7625C19.2395 8.26354 19.6276 8.65162 19.6276 9.12862V10.0926H0.937496V9.12862C0.937496 8.65162 1.32557 8.26354 1.80257 8.26354ZM0.937496 11.0301H19.6276V12.9749H0.937496V11.0301ZM18.7625 20.5734H1.80257C1.32557 20.5734 0.937496 20.1854 0.937496 19.7084V13.9124H19.6276V19.7084C19.6276 20.1854 19.2395 20.5734 18.7625 20.5734ZM23.0594 5.77496L22.179 16.318C22.1393 16.7934 21.7202 17.148 21.2449 17.1081L20.5651 17.0514V9.12862C20.5651 8.13469 19.7565 7.32605 18.7625 7.32605H4.10314L4.43309 4.23044C4.43347 4.22687 4.43379 4.22336 4.43408 4.21975C4.47378 3.74439 4.89265 3.38983 5.36815 3.42967L22.2692 4.84089C22.4995 4.86011 22.7086 4.96787 22.8578 5.14431C23.007 5.32074 23.0786 5.54466 23.0594 5.77496Z" fill="#2A3037"/>
<path d="M17.6659 15.3061H13.1545C12.8957 15.3061 12.6858 15.516 12.6858 15.7748V18.7181C12.6858 18.977 12.8957 19.1868 13.1545 19.1868H17.6659C17.9248 19.1868 18.1346 18.977 18.1346 18.7181V15.7748C18.1346 15.516 17.9248 15.3061 17.6659 15.3061ZM17.1971 18.2493H13.6233V16.2436H17.1971V18.2493Z" fill="#2A3037"/>
</g>
<defs>
<clipPath id="clip0_102_26896">
<rect width="24" height="24" fill="white"/>
</clipPath>
</defs>
</svg>
