<svg width="60" height="26" viewBox="0 0 60 26" fill="none" xmlns="http://www.w3.org/2000/svg">
<path d="M6.884 17.176C5.108 17.176 3.7 16.584 2.676 15.384C1.668 14.184 1.284 12.68 1.556 10.872C1.828 9.096 2.612 7.656 3.94 6.584C5.268 5.512 6.804 4.968 8.548 4.968C10.548 4.968 12.244 5.784 13.156 6.984L11.572 8.456C10.82 7.528 9.78 7.064 8.452 7.064C7.268 7.064 6.228 7.432 5.348 8.168C4.468 8.904 3.94 9.88 3.764 11.096C3.62 12.2 3.844 13.144 4.468 13.928C5.092 14.696 5.972 15.08 7.108 15.08C8.452 15.08 9.764 14.52 10.644 13.672L10.9 11.944L7.492 11.96L7.78 10.024H13.22L12.548 14.824C10.868 16.392 8.98 17.176 6.884 17.176ZM17.7411 17.208C15.9331 17.208 14.4131 16.36 13.6931 14.744L15.3571 13.416C15.8691 14.52 16.8131 15.128 17.8851 15.128C18.9571 15.128 19.7411 14.504 19.8531 13.72C19.9331 13.224 19.6451 12.776 18.9891 12.376C18.8451 12.28 18.4771 12.088 17.9171 11.8C17.3571 11.512 16.9411 11.288 16.6851 11.112C15.5651 10.36 15.1011 9.368 15.2771 8.136C15.4211 7.192 15.8851 6.424 16.6531 5.848C17.4371 5.256 18.3971 4.968 19.5331 4.968C21.0211 4.968 22.1891 5.512 23.0691 6.616L21.5971 8.12C20.9411 7.368 20.1891 7 19.3411 7C18.3971 7 17.6771 7.496 17.5971 8.264C17.5171 8.792 17.8211 9.224 18.5091 9.592L19.2611 9.992C20.0291 10.376 20.5891 10.696 20.9571 10.952C22.0291 11.672 22.4611 12.648 22.2691 13.88C22.1091 14.92 21.5971 15.736 20.7491 16.328C19.9011 16.92 18.8931 17.208 17.7411 17.208Z" fill="#2A3037"/>
<path d="M30.636 17L32.092 7.288H28.668L28.988 5.176H38.012L37.692 7.288H34.284L32.844 17H30.636ZM44.0246 9.48L44.2006 8.312H46.1846L44.8886 17H42.9046L43.0646 15.896C42.1686 16.776 41.1606 17.208 40.0566 17.208C38.7606 17.208 37.7686 16.744 37.0966 15.8C36.4246 14.856 36.1846 13.736 36.3926 12.424C36.6006 11.128 37.1446 10.088 38.0566 9.304C38.9686 8.504 40.0406 8.104 41.2726 8.104C42.4406 8.104 43.3526 8.568 44.0246 9.48ZM40.6326 15.304C41.3846 15.304 42.0246 15.048 42.5686 14.52C43.1286 13.992 43.4486 13.368 43.5606 12.632C43.6726 11.912 43.5126 11.304 43.1126 10.792C42.7126 10.264 42.1366 10.008 41.4006 10.008C40.6806 10.008 40.0726 10.232 39.5446 10.696C39.0166 11.16 38.6806 11.736 38.5366 12.424C38.3926 13.192 38.5046 13.864 38.8726 14.44C39.2566 15.016 39.8486 15.304 40.6326 15.304ZM52.2455 12.616L54.4375 17H52.0375L50.7095 14.056L48.4375 17H46.0215L49.5895 12.552L47.6375 8.312H50.0215L51.1895 11.064L53.2855 8.312H55.6535L52.2455 12.616ZM58.2774 7.272C57.4614 7.272 56.9494 6.68 57.0774 5.896C57.1894 5.176 57.8134 4.648 58.5334 4.648C59.3014 4.648 59.8294 5.24 59.7174 6.024C59.6054 6.744 58.9814 7.272 58.2774 7.272ZM59.0934 8.312L57.7974 17H55.7014L57.0134 8.312H59.0934Z" fill="#3D9BD6"/>
</svg>
