<svg width="144" height="85" viewBox="0 0 144 85" fill="none" xmlns="http://www.w3.org/2000/svg">
<path d="M111.192 14.8006C104.391 14.6621 96.7593 2.92904 76.5812 2.75599C52.7516 2.56563 38.4919 15.4755 38.4919 18.6943V23.8686C36.0173 24.0763 37.194 27.5027 36.9171 29.9428C36.9171 34.148 40.3436 37.5745 44.5315 37.5745H45.1891C47.1273 48.8749 63.429 48.8576 65.3499 37.5745H106.295C108.233 48.8749 124.534 48.8576 126.455 37.5745C126.646 37.5572 126.905 37.6091 127.338 37.4707C137.739 34.7883 135.852 23.6782 135.887 23.5052C135.731 21.117 127.044 15.1986 111.192 14.8006ZM103.924 15.8043C95.496 16.8945 86.9644 17.4483 78.329 17.5175V6.25169C90.7197 6.70163 96.1709 11.4779 103.924 15.8043ZM74.8852 6.19977V17.5002C65.3326 17.4137 55.6935 16.6695 46.0025 15.3197C52.9074 9.78199 63.481 6.42474 74.8852 6.19977ZM55.2782 42.6104C51.5402 42.6104 48.4945 39.5646 48.4945 35.8266C48.4945 32.0887 51.5402 29.0429 55.2782 29.0429C59.0162 29.0429 62.0619 32.0887 62.0619 35.8266C62.0619 39.5646 59.0162 42.6104 55.2782 42.6104ZM116.384 42.6104C112.646 42.6104 109.6 39.5646 109.6 35.8266C109.6 32.0887 112.646 29.0429 116.384 29.0429C120.122 29.0429 123.167 32.0887 123.167 35.8266C123.167 39.5646 120.122 42.6104 116.384 42.6104Z" fill="#3D9BD6"/>
<path d="M42.3685 9.36733C43.3203 9.36733 44.099 8.58859 44.099 7.63679C44.099 6.68499 43.3203 5.90625 42.3685 5.90625C29.7009 6.47733 25.4092 4.57373 25.4092 7.63679C25.4092 10.6999 29.5971 8.77895 42.3685 9.36733Z" fill="#3D9BD6"/>
<path d="M18.4349 17.8298C31.1025 17.2587 35.3942 19.1623 35.3942 16.0993C35.3942 13.0362 31.2063 14.9571 18.4349 14.3687C16.1506 14.3687 16.1506 17.8298 18.4349 17.8298Z" fill="#3D9BD6"/>
<path d="M24.9593 22.8301H9.73054C8.77874 22.8301 8 23.6088 8 24.5606C8 25.5124 8.77874 26.2912 9.73054 26.2912H24.9593C27.2436 26.2912 27.2436 22.8301 24.9593 22.8301Z" fill="#3D9BD6"/>
<path d="M28.98 74.22C26.76 74.22 25 73.48 23.72 71.98C22.46 70.48 21.98 68.6 22.32 66.34C22.66 64.12 23.64 62.32 25.3 60.98C26.96 59.64 28.88 58.96 31.06 58.96C33.56 58.96 35.68 59.98 36.82 61.48L34.84 63.32C33.9 62.16 32.6 61.58 30.94 61.58C29.46 61.58 28.16 62.04 27.06 62.96C25.96 63.88 25.3 65.1 25.08 66.62C24.9 68 25.18 69.18 25.96 70.16C26.74 71.12 27.84 71.6 29.26 71.6C30.94 71.6 32.58 70.9 33.68 69.84L34 67.68L29.74 67.7L30.1 65.28H36.9L36.06 71.28C33.96 73.24 31.6 74.22 28.98 74.22ZM42.5514 74.26C40.2914 74.26 38.3914 73.2 37.4914 71.18L39.5714 69.52C40.2114 70.9 41.3914 71.66 42.7314 71.66C44.0714 71.66 45.0514 70.88 45.1914 69.9C45.2914 69.28 44.9314 68.72 44.1114 68.22C43.9314 68.1 43.4714 67.86 42.7714 67.5C42.0714 67.14 41.5514 66.86 41.2314 66.64C39.8314 65.7 39.2514 64.46 39.4714 62.92C39.6514 61.74 40.2314 60.78 41.1914 60.06C42.1714 59.32 43.3714 58.96 44.7914 58.96C46.6514 58.96 48.1114 59.64 49.2114 61.02L47.3714 62.9C46.5514 61.96 45.6114 61.5 44.5514 61.5C43.3714 61.5 42.4714 62.12 42.3714 63.08C42.2714 63.74 42.6514 64.28 43.5114 64.74L44.4514 65.24C45.4114 65.72 46.1114 66.12 46.5714 66.44C47.9114 67.34 48.4514 68.56 48.2114 70.1C48.0114 71.4 47.3714 72.42 46.3114 73.16C45.2514 73.9 43.9914 74.26 42.5514 74.26Z" fill="#3D9BD6"/>
<path d="M56.92 74L58.74 61.86H54.46L54.86 59.22H66.14L65.74 61.86H61.48L59.68 74H56.92ZM73.6558 64.6L73.8758 63.14H76.3558L74.7358 74H72.2558L72.4558 72.62C71.3358 73.72 70.0758 74.26 68.6958 74.26C67.0758 74.26 65.8358 73.68 64.9958 72.5C64.1558 71.32 63.8558 69.92 64.1158 68.28C64.3758 66.66 65.0558 65.36 66.1958 64.38C67.3358 63.38 68.6758 62.88 70.2158 62.88C71.6758 62.88 72.8158 63.46 73.6558 64.6ZM69.4158 71.88C70.3558 71.88 71.1558 71.56 71.8358 70.9C72.5358 70.24 72.9358 69.46 73.0758 68.54C73.2158 67.64 73.0158 66.88 72.5158 66.24C72.0158 65.58 71.2958 65.26 70.3758 65.26C69.4758 65.26 68.7158 65.54 68.0558 66.12C67.3958 66.7 66.9758 67.42 66.7958 68.28C66.6158 69.24 66.7558 70.08 67.2158 70.8C67.6958 71.52 68.4358 71.88 69.4158 71.88ZM83.9319 68.52L86.6719 74H83.6719L82.0119 70.32L79.1719 74H76.1519L80.6119 68.44L78.1719 63.14H81.1519L82.6119 66.58L85.2319 63.14H88.1919L83.9319 68.52ZM91.4717 61.84C90.4517 61.84 89.8117 61.1 89.9717 60.12C90.1117 59.22 90.8917 58.56 91.7917 58.56C92.7517 58.56 93.4117 59.3 93.2717 60.28C93.1317 61.18 92.3517 61.84 91.4717 61.84ZM92.4917 63.14L90.8717 74H88.2517L89.8917 63.14H92.4917Z" fill="#FFD230"/>
<path d="M100.28 59.22H105.44C109.22 59.22 110.3 61.66 110 64.08C109.66 66.88 107.66 68.78 103.88 68.78H101.58L100.8 74H98.08L100.28 59.22ZM107.24 63.94C107.4 62.68 106.7 61.76 105.28 61.76H102.62L101.94 66.28H104.04C105.94 66.28 107.06 65.32 107.24 63.94ZM112.937 74H110.337L111.977 63.14H114.457L114.217 64.6C115.037 63.44 116.117 62.86 117.477 62.86C117.957 62.86 118.457 62.94 118.977 63.1L118.297 65.58C117.917 65.44 117.497 65.36 117.077 65.36C115.457 65.36 114.057 66.5 113.717 68.82L112.937 74ZM123.623 74.28C121.883 74.28 120.563 73.7 119.643 72.56C118.723 71.42 118.383 70.02 118.643 68.4C118.903 66.78 119.643 65.46 120.863 64.42C122.083 63.38 123.523 62.86 125.143 62.86C126.863 62.86 128.183 63.44 129.103 64.6C130.023 65.76 130.343 67.18 130.043 68.86C129.763 70.44 129.023 71.74 127.803 72.76C126.583 73.78 125.203 74.28 123.623 74.28ZM127.483 68.56C127.623 67.66 127.443 66.88 126.943 66.24C126.443 65.6 125.763 65.28 124.883 65.28C124.003 65.28 123.203 65.58 122.503 66.2C121.803 66.82 121.383 67.58 121.243 68.48C121.083 69.42 121.243 70.22 121.723 70.88C122.223 71.54 122.903 71.86 123.803 71.86C124.703 71.86 125.503 71.54 126.203 70.9C126.923 70.26 127.343 69.48 127.483 68.56Z" fill="#3D9BD6"/>
</svg>
