<svg width="244" height="244" viewBox="0 0 244 244" fill="none" xmlns="http://www.w3.org/2000/svg">
<path d="M210.023 208.711C166.36 254.787 99.2909 241.157 89.3778 238.966C76.8883 236.206 47.174 229.64 24.9991 203.717C-8.94934 164.029 -5.52164 102.002 20.6968 60.184C28.3259 48.0163 53.9992 11.8554 102.211 3.99339C105.029 3.53366 155.374 -3.8479 195.882 30.1402C201.343 34.7229 210.159 43.0222 217.886 55.1063C241.854 92.5929 253.197 163.15 210.023 208.711Z" fill="url(#paint0_linear_102_21906)"/>
<path d="M160.978 86.4406C158.278 96.2321 153.733 109.005 149.06 119.88L147.378 119.584C153.249 106.502 159.734 88.3132 162.598 66.5351C165.486 44.5733 164.804 17.1706 176.982 6.28021C187.117 -2.7833 222.547 1.82781 234.147 3.62964C235.597 3.85476 236.131 5.66436 235.033 6.6373C229.621 11.4338 218.069 22.7149 215.277 33.8502C211.596 48.5262 197.991 58.1599 185.659 60.9976C173.326 63.8345 166.493 66.4514 160.979 86.4415L160.978 86.4406Z" fill="#BDE6FF"/>
<path d="M218.078 10.2746C210.65 10.8283 203.355 12.8889 196.689 16.2968C193.352 17.9908 190.224 20.1213 187.409 22.6183C184.616 25.136 182.134 28.0333 180.195 31.2721L179.474 32.4891C179.236 32.8962 179.036 33.3249 178.817 33.7415C178.608 34.1616 178.38 34.5834 178.187 35.0034L177.603 36.2627C176.821 37.9395 176.047 39.6206 175.29 41.3094C173.772 44.6845 172.308 48.0846 170.897 51.5063C168.07 58.3487 165.456 65.2775 163.268 72.3632C163.215 72.5331 163.311 72.7134 163.481 72.766C163.645 72.8169 163.819 72.7298 163.877 72.5711L163.881 72.5616C165.157 69.1089 166.503 65.6673 167.912 62.2595C169.306 58.8438 170.741 55.4454 172.214 52.0626L174.438 46.9961L176.72 41.9554C177.479 40.2744 178.255 38.6019 179.04 36.932L179.626 35.6788C179.82 35.2604 180.034 34.8697 180.238 34.4635C180.447 34.0632 180.635 33.6501 180.861 33.2594L181.546 32.0889C183.381 28.9674 185.766 26.1978 188.412 23.7249C189.763 22.5165 191.159 21.3495 192.661 20.3231L193.217 19.928L193.787 19.5546C194.17 19.307 194.545 19.05 194.932 18.8102C195.713 18.3418 196.489 17.8631 197.295 17.4362C200.489 15.6697 203.898 14.2931 207.385 13.1735C210.873 12.0583 214.481 11.2328 218.113 10.7895L218.129 10.7878C218.271 10.7705 218.371 10.642 218.354 10.4997C218.338 10.3625 218.215 10.2634 218.078 10.2728V10.2746Z" fill="url(#paint1_linear_102_21906)"/>
<path d="M180.756 91.9574C178.866 103.784 182.005 108.427 183.813 112.762C184.134 113.531 184.594 114.616 185.098 115.916L183.432 116.699C182.96 114.811 182.382 112.955 181.665 111.206C176.747 99.2018 169.986 77.9455 174.47 61.2219C178.955 44.4973 189.514 38.2008 208.582 42.5256C224.471 46.1293 233.875 47.2971 238.529 46.1491C239.681 45.8645 240.777 46.8012 240.708 47.9863C240.342 54.2923 238.054 69.4582 224.721 74.7326C207.716 81.4612 182.648 80.1329 180.757 91.9591L180.756 91.9574Z" fill="#94D6FF"/>
<path opacity="0.5" d="M210.633 59.1647C209.311 58.724 207.974 58.3953 206.62 58.109C205.266 57.8243 203.9 57.5897 202.52 57.4379C199.764 57.1231 196.957 57.0688 194.165 57.4345C192.772 57.6216 191.383 57.914 190.027 58.3522C188.676 58.7981 187.359 59.3916 186.139 60.1618C185.841 60.3654 185.529 60.55 185.243 60.7716C184.961 60.9959 184.662 61.2106 184.395 61.4435L182.84 62.8641L181.384 64.3943L180.047 66.0357C178.345 68.2929 177.054 70.8676 176.243 73.5673C175.416 76.2679 175.097 79.0815 175.054 81.8614L175.039 82.906C175.028 83.2544 175.065 83.6003 175.076 83.947C175.115 84.6405 175.133 85.3349 175.19 86.0257L175.412 88.0907C175.472 88.7807 175.62 89.4578 175.727 90.1392C176.164 92.8674 176.839 95.5421 177.58 98.1875C177.621 98.335 177.775 98.4212 177.922 98.3798C178.064 98.3401 178.148 98.1987 178.12 98.0581L178.118 98.0495C177.57 95.373 176.998 92.7026 176.704 89.9986C176.515 88.6513 176.439 87.2971 176.327 85.9481C176.291 85.2728 176.295 84.5965 176.276 83.9212C176.276 83.5839 176.249 83.2458 176.269 82.9094L176.314 81.9002C176.425 79.2109 176.841 76.5439 177.643 74.0063C178.446 71.4679 179.699 69.0951 181.297 66.9784L182.563 65.4405L183.948 64.0009L185.433 62.6588C185.682 62.4415 185.939 62.2552 186.192 62.0508C186.445 61.8498 186.725 61.685 186.991 61.4987C188.083 60.7992 189.277 60.2489 190.523 59.828C191.766 59.3985 193.061 59.0931 194.378 58.8878C197.013 58.473 199.721 58.4298 202.42 58.5929C203.769 58.6852 205.12 58.8085 206.466 58.9974C207.808 59.1889 209.156 59.4243 210.472 59.7185L210.481 59.7202C210.636 59.7547 210.791 59.6572 210.826 59.5011C210.859 59.3553 210.773 59.2113 210.635 59.1647H210.633Z" fill="white"/>
<path d="M11.6428 43.8526C11.6428 35.5429 18.3792 28.8065 26.6889 28.8065H154.641C161.7 28.8065 167.522 34.3388 167.88 41.3883L177.325 226.895C177.606 232.412 173.264 237.065 167.74 237.166L21.0902 239.831C15.9003 239.925 11.6428 235.745 11.6428 230.554V43.8526Z" fill="url(#paint2_linear_102_21906)"/>
<path d="M22.1251 31.6614C22.1096 29.0031 24.4479 26.9451 27.0821 27.3022C44.5553 29.6716 104.64 37.0005 154.319 33.1864C156.585 33.0122 158.55 34.7286 158.671 36.9979L168.575 223.332C168.71 225.887 166.76 228.072 164.205 228.223C143.312 229.459 57.2656 234.239 26.574 231.024C24.7058 230.828 23.2878 229.256 23.2774 227.377L22.1259 31.6597L22.1251 31.6614Z" fill="#9AD8FF"/>
<path d="M24.1832 36.3312C24.1685 33.773 26.418 31.7926 28.9539 32.1367C45.7689 34.4173 103.591 41.4693 151.399 37.7993C153.58 37.6319 155.471 39.2837 155.588 41.4676L165.118 220.785C165.249 223.244 163.371 225.346 160.913 225.492C140.806 226.682 57.9997 231.281 28.4639 228.188C26.6664 228 25.3019 226.486 25.2915 224.679L24.1832 36.3321V36.3312Z" fill="#C4E8FF"/>
<path opacity="0.78" d="M39.7494 50.1572L41.5348 88.6012C41.5944 89.8794 42.6268 90.8964 43.9068 90.9326C51.027 91.1336 73.2122 91.6744 85.7397 91.0214C87.1568 90.9473 88.2781 89.801 88.3247 88.3829C88.5636 81.173 89.0863 60.1893 87.4432 51.4173C87.1775 50.0002 85.9596 48.9617 84.5192 48.9117L42.4362 47.4402C40.919 47.3876 39.6795 48.6408 39.7494 50.158V50.1572Z" fill="white"/>
<path d="M71.9057 66.1726C73.1637 61.7853 70.627 57.2089 66.2397 55.9509C61.8525 54.6929 57.2761 57.2296 56.0181 61.6169C54.7601 66.0041 57.2968 70.5805 61.684 71.8385C66.0713 73.0965 70.6477 70.5598 71.9057 66.1726Z" fill="url(#paint3_linear_102_21906)"/>
<path d="M51.4125 88.1643H77.7414C79.3552 88.1643 80.3229 86.3823 79.4535 85.0221C77.2169 81.5228 72.5377 76.3821 64.4342 76.6142C56.6239 76.8376 51.9947 81.4814 49.6676 84.8117C48.68 86.2254 49.6875 88.1652 51.4117 88.1652L51.4125 88.1643Z" fill="url(#paint4_linear_102_21906)"/>
<g opacity="0.6">
<path d="M146.152 53.5022C146.363 53.5022 146.53 53.3297 146.524 53.1192L146.471 51.3053C146.465 51.0948 146.288 50.9198 146.077 50.9154L97.6977 50.0529C97.4872 50.0495 97.3725 50.2082 97.4424 50.4074L98.4049 53.1408C98.4748 53.3392 98.7042 53.5022 98.9147 53.5022H146.153H146.152Z" fill="white"/>
</g>
<g opacity="0.6">
<path d="M97.6969 57.2217C97.4865 57.2183 97.3718 57.377 97.4416 57.5762L98.4042 60.3096C98.4741 60.508 98.7035 60.671 98.914 60.671H146.152C146.363 60.671 146.53 60.4985 146.524 60.288L146.471 58.4741C146.465 58.2637 146.288 58.0886 146.077 58.0843L97.6978 57.2217H97.6969Z" fill="white"/>
</g>
<g opacity="0.6">
<path d="M97.6967 64.4924C97.4862 64.4889 97.3715 64.6476 97.4414 64.8469L98.404 67.5802C98.4738 67.7786 98.7033 67.9416 98.9137 67.9416H146.152C146.363 67.9416 146.53 67.7691 146.524 67.5587L146.471 65.7448C146.465 65.5343 146.288 65.3592 146.077 65.3549L97.6975 64.4924H97.6967Z" fill="white"/>
</g>
<g opacity="0.6">
<path d="M150.634 103.005C150.844 103.005 151.006 102.833 150.992 102.623L150.872 100.807C150.858 100.597 150.675 100.424 150.464 100.422L40.1201 99.5529C39.9096 99.5511 39.8449 99.6848 39.9761 99.8496L42.2506 102.705C42.3817 102.87 42.6611 103.005 42.8716 103.005H150.635H150.634Z" fill="white"/>
</g>
<g opacity="0.6">
<path d="M40.1201 106.72C39.9096 106.718 39.8449 106.852 39.9761 107.017L42.2506 109.873C42.3817 110.037 42.6611 110.172 42.8716 110.172H150.635C150.845 110.172 151.007 110 150.993 109.79L150.873 107.974C150.859 107.764 150.675 107.591 150.465 107.589L40.121 106.72H40.1201Z" fill="white"/>
</g>
<path d="M54.7004 155.602H54.6754L45.5506 155.515C44.2473 155.502 43.1709 154.605 43.0476 153.429L42.2454 145.773C42.198 145.324 42.3377 144.879 42.6387 144.521C42.9751 144.121 43.484 143.87 44.0352 143.832C44.8037 143.78 45.8862 143.687 47.0325 143.59C49.4458 143.385 52.4492 143.128 54.1389 143.108C55.3654 143.102 56.4047 143.827 56.6937 144.895C57.169 146.652 57.1276 149.979 57.037 153.523C57.0077 154.674 55.9623 155.601 54.7004 155.601V155.602ZM44.0826 144.532C43.7203 144.557 43.3891 144.717 43.1752 144.972C42.9984 145.183 42.9156 145.441 42.9432 145.7L43.7453 153.355C43.8316 154.178 44.6113 154.805 45.5584 154.814L54.6831 154.902H54.7012C55.5853 154.902 56.3176 154.279 56.3375 153.506C56.4263 150.016 56.4694 146.745 56.0183 145.078C55.8165 144.331 55.0394 143.812 54.1484 143.808C52.4837 143.829 49.4941 144.083 47.092 144.288C45.9431 144.385 44.8572 144.478 44.0826 144.531V144.532Z" fill="white"/>
<path opacity="0.6" d="M45.0639 145.322C46.9805 145.191 51.1465 144.768 53.1226 144.743C53.9601 144.733 54.6941 145.239 54.8908 145.965C55.272 147.375 55.222 150.185 55.1556 152.78C55.1357 153.557 54.4224 154.177 53.5513 154.168L46.2594 154.098C45.3624 154.09 44.618 153.478 44.5352 152.682L43.8943 146.564C43.8279 145.931 44.3541 145.371 45.0648 145.322H45.0639Z" fill="white"/>
<g opacity="0.6">
<path d="M62.7143 150.519C62.9782 151.52 63.8882 152.215 64.9241 152.207L149.347 151.486C150.302 151.479 151.066 150.69 151.046 149.735C151.025 148.807 150.269 148.064 149.34 148.06L64.9146 147.675C63.4242 147.668 62.3339 149.077 62.7134 150.519H62.7143Z" fill="white"/>
</g>
<path d="M45.4524 146.522C46.1294 146.125 47.0015 146.362 47.3844 147.048L49.1845 150.274C49.3648 150.596 49.8357 150.576 49.9876 150.239L54.4512 140.301C54.6737 139.805 55.412 139.973 55.4043 140.517C55.3586 143.556 54.5521 149.334 49.6952 154.171C49.6952 154.171 47.0187 153.131 44.8632 148.398C44.5519 147.714 44.8055 146.903 45.4532 146.522H45.4524Z" fill="url(#paint5_linear_102_21906)"/>
<path d="M54.7004 175.159H54.6754L45.5506 175.071C44.2473 175.058 43.1709 174.161 43.0476 172.984L42.2454 165.329C42.198 164.879 42.3377 164.435 42.6387 164.078C42.9751 163.678 43.484 163.427 44.0352 163.389C44.8037 163.336 45.8862 163.244 47.0325 163.146C49.4458 162.941 52.4492 162.685 54.1389 162.664C54.1509 162.664 54.1639 162.664 54.176 162.664C55.3757 162.664 56.4082 163.395 56.6946 164.451C57.1698 166.209 57.1284 169.535 57.0378 173.079C57.0085 174.231 55.9631 175.158 54.7012 175.158L54.7004 175.159ZM44.0826 164.088C43.7203 164.113 43.3891 164.274 43.1752 164.529C42.9984 164.739 42.9156 164.997 42.9432 165.256L43.7453 172.912C43.8316 173.735 44.6113 174.362 45.5584 174.37L54.6831 174.458H54.7012C55.5853 174.458 56.3176 173.836 56.3375 173.062C56.4263 169.572 56.4694 166.301 56.0183 164.634C55.8165 163.888 55.0281 163.351 54.1484 163.365C52.4837 163.386 49.4941 163.641 47.0928 163.845C45.9439 163.942 44.858 164.036 44.0835 164.088H44.0826Z" fill="white"/>
<path opacity="0.6" d="M45.0642 164.878C46.9807 164.747 51.1468 164.324 53.1228 164.299C53.9603 164.289 54.6944 164.794 54.891 165.521C55.2723 166.931 55.2222 169.741 55.1558 172.336C55.136 173.113 54.4227 173.733 53.5515 173.724L46.2596 173.654C45.3626 173.646 44.6182 173.034 44.5354 172.238L43.8946 166.12C43.8282 165.487 44.3543 164.927 45.065 164.878H45.0642Z" fill="white"/>
<g opacity="0.6">
<path d="M62.714 170.074C62.978 171.076 63.888 171.771 64.9239 171.762L149.347 171.042C150.302 171.034 151.066 170.246 151.045 169.291C151.025 168.363 150.269 167.62 149.34 167.615L64.9144 167.231C63.4239 167.224 62.3337 168.633 62.7132 170.074H62.714Z" fill="white"/>
</g>
<path d="M45.4521 166.079C46.1292 165.681 47.0012 165.919 47.3842 166.604L49.1843 169.83C49.3646 170.153 49.8355 170.133 49.9873 169.796L54.4509 159.858C54.6735 159.362 55.4118 159.53 55.404 160.073C55.3583 163.113 54.5518 168.891 49.6949 173.728C49.6949 173.728 47.0185 172.688 44.863 167.954C44.5516 167.27 44.8052 166.459 45.453 166.079H45.4521Z" fill="url(#paint6_linear_102_21906)"/>
<path d="M54.7004 194.714H54.6754L45.5506 194.626C44.2473 194.613 43.1709 193.716 43.0476 192.54L42.2454 184.884C42.198 184.435 42.3377 183.991 42.6387 183.633C42.9751 183.232 43.484 182.981 44.0343 182.943C44.8028 182.891 45.8853 182.798 47.0316 182.701C49.445 182.496 52.4483 182.24 54.138 182.219C54.1501 182.219 54.163 182.219 54.1751 182.219C55.3749 182.219 56.4073 182.949 56.6937 184.006C57.169 185.764 57.1276 189.09 57.037 192.634C57.0077 193.785 55.9623 194.713 54.7004 194.713V194.714ZM44.0826 183.644C43.7203 183.669 43.3891 183.829 43.1752 184.085C42.9984 184.295 42.9156 184.553 42.9432 184.812L43.7453 192.467C43.8316 193.29 44.6113 193.917 45.5584 193.926L54.6831 194.014H54.7012C55.5853 194.014 56.3176 193.391 56.3375 192.618C56.4263 189.128 56.4694 185.857 56.0183 184.19C55.8165 183.444 55.0281 182.904 54.1484 182.92C52.4837 182.941 49.4941 183.195 47.0928 183.4C45.9439 183.497 44.858 183.59 44.0835 183.643L44.0826 183.644Z" fill="white"/>
<path opacity="0.6" d="M45.0639 184.435C46.9805 184.303 51.1465 183.881 53.1226 183.856C53.9601 183.845 54.6941 184.351 54.8908 185.077C55.272 186.487 55.222 189.297 55.1556 191.892C55.1357 192.669 54.4224 193.289 53.5513 193.281L46.2594 193.211C45.3624 193.202 44.618 192.591 44.5352 191.795L43.8943 185.677C43.8279 185.043 44.3541 184.484 45.0648 184.435H45.0639Z" fill="white"/>
<g opacity="0.6">
<path d="M62.7143 189.631C62.9782 190.632 63.8882 191.328 64.9241 191.319L149.347 190.599C150.302 190.591 151.066 189.804 151.046 188.848C151.025 187.92 150.269 187.176 149.34 187.172L64.9146 186.787C63.4242 186.78 62.3339 188.19 62.7134 189.631H62.7143Z" fill="white"/>
</g>
<path d="M45.4524 185.635C46.1294 185.237 47.0015 185.474 47.3844 186.16L49.1845 189.386C49.3648 189.709 49.8357 189.689 49.9876 189.352L54.4512 179.413C54.6737 178.917 55.412 179.086 55.4043 179.629C55.3586 182.669 54.5521 188.447 49.6952 193.284C49.6952 193.284 47.0187 192.244 44.8632 187.51C44.5519 186.826 44.8055 186.015 45.4532 185.635H45.4524Z" fill="url(#paint7_linear_102_21906)"/>
<path d="M54.7004 214.27H54.6754L45.5506 214.182C44.2473 214.17 43.1709 213.273 43.0476 212.097L42.2454 204.441C42.198 203.991 42.3377 203.547 42.6387 203.189C42.9751 202.789 43.484 202.538 44.0343 202.5C44.8028 202.447 45.8853 202.355 47.0316 202.258C49.445 202.052 52.4483 201.796 54.138 201.776C54.1501 201.776 54.163 201.776 54.1751 201.776C55.3749 201.776 56.4073 202.506 56.6937 203.563C57.169 205.32 57.1276 208.646 57.037 212.191C57.0077 213.342 55.9623 214.269 54.7004 214.269V214.27ZM44.0826 203.2C43.7203 203.225 43.3891 203.386 43.1752 203.641C42.9984 203.852 42.9156 204.11 42.9432 204.368L43.7453 212.024C43.8316 212.847 44.6113 213.474 45.5584 213.483L54.6831 213.571H54.7012C55.5853 213.571 56.3176 212.948 56.3375 212.174C56.4263 208.684 56.4694 205.414 56.0183 203.746C55.8165 203 55.0281 202.458 54.1484 202.477C52.4837 202.497 49.4941 202.752 47.0928 202.956C45.9439 203.054 44.858 203.147 44.0835 203.2L44.0826 203.2Z" fill="white"/>
<path opacity="0.6" d="M45.0639 203.99C46.9805 203.859 51.1465 203.436 53.1226 203.411C53.9601 203.401 54.6941 203.906 54.8908 204.633C55.272 206.043 55.222 208.853 55.1556 211.448C55.1357 212.225 54.4224 212.845 53.5513 212.836L46.2594 212.766C45.3624 212.758 44.618 212.146 44.5352 211.35L43.8943 205.232C43.8279 204.599 44.3541 204.039 45.0648 203.99H45.0639Z" fill="white"/>
<g opacity="0.6">
<path d="M62.714 209.187C62.978 210.188 63.888 210.883 64.9239 210.875L149.347 210.155C150.302 210.148 151.066 209.359 151.045 208.404C151.025 207.476 150.269 206.733 149.34 206.729L64.9144 206.344C63.4239 206.337 62.3337 207.746 62.7132 209.188L62.714 209.187Z" fill="white"/>
</g>
<path d="M53.436 136.465H53.411L44.2862 136.377C42.9829 136.365 41.9065 135.468 41.7832 134.292L40.981 126.636C40.9336 126.187 41.0733 125.742 41.3743 125.384C41.7107 124.984 42.2196 124.733 42.7699 124.695C43.5384 124.643 44.6209 124.55 45.7672 124.453C48.1806 124.248 51.1839 123.991 52.8736 123.971C52.8857 123.971 52.8986 123.971 52.9107 123.971C54.1105 123.971 55.1429 124.701 55.4293 125.758C55.9046 127.515 55.8631 130.842 55.7726 134.386C55.7433 135.537 54.6979 136.465 53.436 136.465V136.465ZM42.8182 125.396C42.4559 125.421 42.1247 125.581 41.9108 125.836C41.734 126.047 41.6512 126.305 41.6788 126.563L42.4809 134.219C42.5672 135.042 43.3469 135.669 44.294 135.678L53.4187 135.766H53.4368C54.3209 135.766 55.0532 135.143 55.0731 134.369C55.1619 130.88 55.205 127.609 54.7539 125.942C54.5521 125.195 53.7637 124.653 52.884 124.672C51.2193 124.693 48.2297 124.947 45.8284 125.152C44.6795 125.249 43.5936 125.342 42.8191 125.395L42.8182 125.396Z" fill="white"/>
<path opacity="0.6" d="M43.7998 126.186C45.7163 126.055 49.8824 125.632 51.8584 125.607C52.6959 125.596 53.43 126.102 53.6266 126.828C54.0078 128.238 53.9578 131.049 53.8914 133.643C53.8716 134.42 53.1583 135.04 52.2871 135.032L44.9952 134.962C44.0982 134.953 43.3538 134.342 43.271 133.546L42.6302 127.428C42.5638 126.795 43.0899 126.235 43.8006 126.186H43.7998Z" fill="white"/>
<g opacity="0.6">
<path d="M61.4499 131.382C61.7138 132.384 62.6238 133.079 63.6597 133.07L148.083 132.351C149.038 132.343 149.802 131.555 149.781 130.6C149.76 129.672 149.005 128.928 148.076 128.924L63.6502 128.539C62.1598 128.532 61.0695 129.942 61.449 131.383L61.4499 131.382Z" fill="white"/>
</g>
<path d="M44.1879 127.387C44.865 126.989 45.7371 127.226 46.12 127.912L47.9201 131.138C48.1004 131.46 48.5713 131.441 48.7231 131.103L53.1868 121.165C53.4093 120.669 54.1476 120.837 54.1399 121.381C54.0941 124.42 53.2877 130.199 48.4308 135.036C48.4308 135.036 45.7543 133.995 43.5988 129.262C43.2875 128.578 43.541 127.767 44.1888 127.387H44.1879Z" fill="url(#paint8_linear_102_21906)"/>
<path d="M98.6008 3.51353C93.9793 0.298002 89.9599 0.361828 87.1308 1.19676C84.5501 1.95838 82.8777 4.44938 83.1226 7.12927L84.3422 20.4459L98.8604 21.7346C98.8604 21.7346 107.664 9.81951 98.5999 3.51439L98.6008 3.51353ZM92.2163 14.2564C90.217 14.2564 88.5963 12.6357 88.5963 10.6363C88.5963 8.63698 90.217 7.01628 92.2163 7.01628C94.2157 7.01628 95.8364 8.63698 95.8364 10.6363C95.8364 12.6357 94.2157 14.2564 92.2163 14.2564Z" fill="url(#paint9_linear_102_21906)"/>
<path d="M85.794 14.8442C85.6146 14.8442 85.4619 14.7079 85.4456 14.5259L85.2515 12.405C85.2334 12.2126 85.3757 12.0419 85.568 12.0246C85.7647 12.0065 85.9312 12.1488 85.9484 12.342L86.1425 14.463C86.1606 14.6553 86.0183 14.8261 85.8259 14.8434C85.8147 14.8442 85.8044 14.8451 85.7932 14.8451L85.794 14.8442ZM85.4128 10.6885C85.2334 10.6885 85.0807 10.5523 85.0643 10.3703L84.9168 8.75991C84.6831 6.20767 86.2891 3.83053 88.7353 3.10859C90.4681 2.59711 92.2535 2.52379 94.0416 2.89037C94.2313 2.92918 94.3529 3.11463 94.3141 3.30438C94.2753 3.49328 94.0916 3.6149 93.901 3.57694C92.2259 3.23452 90.5552 3.3018 88.9336 3.7805C86.8066 4.40843 85.4111 6.47592 85.6146 8.69608L85.7621 10.3064C85.7802 10.4988 85.6379 10.6696 85.4456 10.6868C85.4343 10.6877 85.424 10.6885 85.4128 10.6885Z" fill="#91B3FA"/>
<path d="M64.5291 29.0514V22.3564C64.5291 20.0449 66.4447 18.1939 68.7546 18.2732L114.915 19.8551C116.963 19.925 118.622 21.5422 118.745 23.5881L119.131 30.0209L64.5299 29.0514H64.5291Z" fill="url(#paint10_linear_102_21906)"/>
<path d="M81.7409 20.7961H79.7562C79.563 20.7961 79.406 20.6391 79.406 20.4459C79.406 20.2527 79.563 20.0957 79.7562 20.0957H81.7409C81.9341 20.0957 82.0911 20.2527 82.0911 20.4459C82.0911 20.6391 81.9341 20.7961 81.7409 20.7961Z" fill="#91B3FA"/>
<path d="M67.0279 26.9494C66.8347 26.9494 66.6777 26.7924 66.6777 26.5992V23.8909C66.6777 21.7983 68.3804 20.0957 70.4729 20.0957H77.7708C77.964 20.0957 78.121 20.2527 78.121 20.4459C78.121 20.6391 77.964 20.7961 77.7708 20.7961H70.4729C68.7668 20.7961 67.3781 22.1848 67.3781 23.8909V26.5992C67.3781 26.7933 67.2211 26.9494 67.0279 26.9494Z" fill="#91B3FA"/>
<path d="M45.7213 30.7422C45.8326 28.4238 47.7448 26.6012 50.0659 26.6012L130.785 26.5986C133.688 26.5986 136.169 28.6868 136.664 31.547L136.732 31.942C137.275 35.0747 134.863 37.9401 131.684 37.9401H48.8704C46.9677 37.9401 45.4513 36.3496 45.5427 34.4485L45.7213 30.7422Z" fill="#3D9BD6"/>
<path d="M92.2346 88.0353C93.3291 87.0106 94.8084 86.5009 96.3023 86.6354C112.279 88.0724 142.088 80.376 161.57 60.4429C162.923 59.0585 165.389 59.8408 166.939 61.0001C188.606 77.1933 224.521 80.5468 236.988 81.2325C239.567 81.3748 241.66 83.375 241.926 85.9445C253.264 195.453 181.965 235.134 167.177 242.139C165.56 242.905 163.658 242.794 162.139 241.848C88.4368 195.941 91.5903 136.24 90.5707 92.0038C90.5362 90.5048 91.14 89.0617 92.2346 88.0362V88.0353Z" fill="url(#paint11_linear_102_21906)"/>
<path d="M165.183 234.257C164.839 234.257 164.497 234.16 164.198 233.97C135.929 215.899 117.503 194.293 107.87 167.919C99.266 144.365 98.8451 120.387 98.4742 99.2323L98.4242 96.4127C98.4147 95.9228 98.5984 95.4605 98.9417 95.112C99.2876 94.7601 99.7516 94.566 100.248 94.566H100.248C117.732 94.566 143.976 86.8455 163.226 69.5966C163.842 69.0445 164.754 68.9781 165.445 69.4361C186.597 83.4713 216.774 87.558 232.881 88.7457C233.774 88.8112 234.479 89.5073 234.557 90.4009C238.304 133.147 229.412 169.296 208.127 197.842C192.23 219.162 173.378 230.271 166.011 234.058C165.752 234.19 165.468 234.257 165.183 234.257H165.183ZM100.261 95.426C99.9836 95.426 99.7378 95.5286 99.5558 95.7141C99.3764 95.8969 99.2798 96.1393 99.2841 96.3963L99.3342 99.216C99.7042 120.303 100.124 144.205 108.678 167.624C118.244 193.813 136.557 215.278 164.662 233.243C164.949 233.427 165.315 233.445 165.616 233.291C172.929 229.532 191.645 218.502 207.435 197.326C228.589 168.954 237.425 133.005 233.697 90.4751C233.656 90.005 233.285 89.6384 232.816 89.6039C216.626 88.4101 186.282 84.2967 164.967 70.1538C164.604 69.9131 164.123 69.9476 163.8 70.2383C144.381 87.6382 117.895 95.4268 100.261 95.4268V95.426Z" fill="#91B3FA"/>
<path d="M189.083 106.232L206.163 140.577L228.119 91.7891L205.312 117.039L189.083 106.232Z" fill="url(#paint12_linear_102_21906)"/>
<path d="M124.52 117.369C124.409 117.722 125.694 118.259 126.45 116.816C126.477 116.124 126.897 113.162 126.484 112.598C124.284 109.597 120.017 105.837 120.017 105.837C119.296 106.548 119.89 107.247 119.89 107.247L121.96 109.403C121.527 110.186 120.999 110.846 120.752 111.793C120.564 112.509 120.679 113.275 121.041 113.927C121.404 114.582 121.9 115.432 122.368 116.098C123.255 117.359 124.52 117.368 124.52 117.368V117.369Z" fill="url(#paint13_linear_102_21906)"/>
<path d="M122.865 110.802L124.751 112.402L125.344 113.994L123.662 115.859C123.662 115.859 123.096 112.701 122.676 112.017C122.256 111.333 122.473 111.002 122.865 110.802Z" fill="url(#paint14_linear_102_21906)"/>
<path d="M161.571 235.128C161.571 235.128 162.048 237.826 162.281 240.496C162.372 241.54 161.567 242.446 160.52 242.489C156.964 242.638 149.357 242.926 146.627 242.803C146.217 242.785 145.949 242.365 146.1 241.983C146.228 241.663 146.473 241.404 146.786 241.261L159.351 235.486L161.57 235.128H161.571Z" fill="url(#paint15_linear_102_21906)"/>
<path d="M161.962 233.543L161.579 236.77C161.579 236.77 159.378 237.795 157.874 236.641L158.786 233.045L161.962 233.543Z" fill="url(#paint16_linear_102_21906)"/>
<path d="M161.674 172.877C161.839 173.72 162.561 214.928 158.156 233.395C158.085 233.696 158.237 234.007 158.524 234.124C159.199 234.4 160.524 234.799 162.111 234.853C162.603 234.869 163.043 234.55 163.182 234.078C164.441 229.794 170.475 208.327 171.262 187.82C172.141 164.906 171.262 187.039 171.262 187.039L170.746 172.875L161.673 172.876L161.674 172.877Z" fill="url(#paint17_linear_102_21906)"/>
<path d="M176.025 236.536C176.025 236.536 176.783 237.898 177.518 241.517C177.651 242.171 177.194 242.796 176.531 242.862C175.357 242.977 173.549 243.125 172.101 243.115C171.433 243.111 170.912 242.529 170.992 241.867C171.153 240.546 171.652 238.379 173.196 236.69L176.025 236.537V236.536Z" fill="url(#paint18_linear_102_21906)"/>
<path d="M176.692 232.385L175.798 237.264C175.798 237.264 174.913 237.922 173.163 237.445L173.59 232.195L176.692 232.385Z" fill="url(#paint19_linear_102_21906)"/>
<path d="M179.109 174.143C182.712 195.884 178.327 227.879 176.849 234.142C176.758 234.525 176.449 234.819 176.061 234.884C175.401 234.993 174.314 235.082 173.243 234.772C172.874 234.665 172.615 234.332 172.599 233.947C172.401 228.884 172.758 197.804 169.401 185.52C169.231 184.898 168.851 184.355 168.325 183.981L161.809 179.349L161.31 171.862L179.109 174.143Z" fill="url(#paint20_linear_102_21906)"/>
<path d="M156.152 132.945C166.949 132.767 178.861 135.781 178.861 135.781C182.079 154.559 179.424 176.217 179.424 176.217C171.066 178.409 161.636 174.877 161.636 174.877C160.247 167.028 153.766 144.939 153.766 144.939C148.49 144.284 144.145 142.762 140.566 140.75C143.296 137.587 144.583 133.56 145.142 131.181C148.96 132.367 152.822 133.001 156.152 132.945H156.152Z" fill="url(#paint21_linear_102_21906)"/>
<path d="M124.262 117.043C125.323 115.762 126.665 116.367 126.665 116.367C128.254 123.079 136.584 128.521 145.143 131.18C144.584 133.56 143.297 137.586 140.567 140.75C126.364 132.763 124.262 117.042 124.262 117.042V117.043Z" fill="url(#paint22_linear_102_21906)"/>
<path d="M174.72 146.235L178.861 135.781C178.861 135.781 188.946 142.633 190.604 151.32C188.699 151.461 185.231 151.956 181.837 153.67C181.091 149.568 174.719 146.235 174.719 146.235H174.72Z" fill="url(#paint23_linear_102_21906)"/>
<path d="M167.089 124.18L170.524 134.115C170.581 134.28 170.514 134.462 170.361 134.546C169.424 135.064 166.051 136.56 161.985 133.983C161.561 133.715 161.273 133.277 161.209 132.779L160.096 124.18H167.089Z" fill="url(#paint24_linear_102_21906)"/>
<path d="M159.614 114.98C159.614 114.98 155.842 122.081 156.325 124.949C156.809 127.817 161.484 127.612 165.566 125.282L168.419 117.615L159.614 114.98Z" fill="url(#paint25_linear_102_21906)"/>
<path d="M165.386 121.518C165.22 121.444 165.159 121.241 165.258 121.089C165.56 120.628 166.127 119.686 166.308 118.861C166.308 118.861 166.986 118.426 164.582 117.851C162.178 117.276 158.593 116.382 157.84 114.336C157.105 112.341 159.035 107.324 162.115 111.322C162.232 111.473 162.462 111.477 162.579 111.325C163.084 110.668 164.411 109.304 166.254 110.131C167.979 110.904 168.174 112.168 168.149 112.805C168.142 112.992 168.31 113.138 168.494 113.103C169.366 112.936 171.459 112.794 172.435 114.94C173.24 116.708 172.717 117.709 172.24 118.199C172.086 118.357 172.153 118.619 172.365 118.683C172.938 118.859 173.678 119.345 173.604 120.687C173.501 122.543 171.426 122.379 170.835 122.295C170.739 122.281 170.641 122.314 170.576 122.386C170.069 122.947 167.787 125.328 165.316 125.614C165.102 125.639 164.936 125.428 165.006 125.224L166.075 122.116C166.125 121.972 166.055 121.814 165.916 121.751L165.386 121.517V121.518Z" fill="url(#paint26_linear_102_21906)"/>
<path d="M164.956 121.958C164.956 121.958 167.642 120.115 167.838 121.668C168.034 123.219 165.42 123.916 164.124 123.337L164.956 121.958H164.956Z" fill="url(#paint27_linear_102_21906)"/>
<path d="M181.838 153.669C181.838 153.669 185.362 169.57 182.17 178.51C186.084 180.325 185.361 179.983 185.361 179.983C185.361 179.983 193.105 157.358 190.605 151.32C185.676 150.797 183.231 152.121 181.838 153.669Z" fill="url(#paint28_linear_102_21906)"/>
<path d="M182.17 178.509C182.17 178.509 180.153 181.12 180.315 182.159C180.476 183.2 180.515 183.623 180.515 183.623C180.515 183.623 181.528 182.93 181.464 182.044C181.324 184.855 180.383 188.051 181.238 187.898C182.094 187.743 186.522 183.662 185.522 179.31C183.25 177.73 182.612 177.902 182.171 178.509H182.17Z" fill="url(#paint29_linear_102_21906)"/>
<defs>
<linearGradient id="paint0_linear_102_21906" x1="239.766" y1="263.289" x2="22.9679" y2="16.3043" gradientUnits="userSpaceOnUse">
<stop stop-color="#DDF2FF"/>
<stop offset="1" stop-color="#ECF8FF"/>
</linearGradient>
<linearGradient id="paint1_linear_102_21906" x1="169.348" y1="37.7473" x2="212.235" y2="45.294" gradientUnits="userSpaceOnUse">
<stop stop-color="#DAE3FE"/>
<stop offset="1" stop-color="#E9EFFD"/>
</linearGradient>
<linearGradient id="paint2_linear_102_21906" x1="94.4366" y1="227.37" x2="82.6682" y2="-120.969" gradientUnits="userSpaceOnUse">
<stop stop-color="#006DB1"/>
<stop offset="1" stop-color="#248ED0"/>
</linearGradient>
<linearGradient id="paint3_linear_102_21906" x1="61.3039" y1="71.1346" x2="93.7093" y2="-17.2423" gradientUnits="userSpaceOnUse">
<stop stop-color="#FF928E"/>
<stop offset="1" stop-color="#FE7062"/>
</linearGradient>
<linearGradient id="paint4_linear_102_21906" x1="68.9754" y1="73.9463" x2="101.38" y2="-14.4315" gradientUnits="userSpaceOnUse">
<stop stop-color="#FF928E"/>
<stop offset="1" stop-color="#FE7062"/>
</linearGradient>
<linearGradient id="paint5_linear_102_21906" x1="72.2444" y1="108.688" x2="25.6521" y2="188.21" gradientUnits="userSpaceOnUse">
<stop stop-color="#E1473D"/>
<stop offset="1" stop-color="#E9605A"/>
</linearGradient>
<linearGradient id="paint6_linear_102_21906" x1="80.7737" y1="113.686" x2="34.1814" y2="193.208" gradientUnits="userSpaceOnUse">
<stop stop-color="#E1473D"/>
<stop offset="1" stop-color="#E9605A"/>
</linearGradient>
<linearGradient id="paint7_linear_102_21906" x1="87.9459" y1="133.289" x2="26.6405" y2="218.767" gradientUnits="userSpaceOnUse">
<stop stop-color="#E1473D"/>
<stop offset="1" stop-color="#E9605A"/>
</linearGradient>
<linearGradient id="paint8_linear_102_21906" x1="96.5696" y1="45.8764" x2="49.9772" y2="125.399" gradientUnits="userSpaceOnUse">
<stop stop-color="#E1473D"/>
<stop offset="1" stop-color="#E9605A"/>
</linearGradient>
<linearGradient id="paint9_linear_102_21906" x1="92.8917" y1="20.493" x2="91.9038" y2="-14.222" gradientUnits="userSpaceOnUse">
<stop stop-color="#006DB1"/>
<stop offset="1" stop-color="#248ED0"/>
</linearGradient>
<linearGradient id="paint10_linear_102_21906" x1="91.8122" y1="29.327" x2="91.7014" y2="9.90959" gradientUnits="userSpaceOnUse">
<stop stop-color="#006DB1"/>
<stop offset="1" stop-color="#248ED0"/>
</linearGradient>
<linearGradient id="paint11_linear_102_21906" x1="137.062" y1="160.782" x2="283.07" y2="60.5067" gradientUnits="userSpaceOnUse">
<stop stop-color="#4BACE9"/>
<stop offset="1" stop-color="#4DB0EF"/>
</linearGradient>
<linearGradient id="paint12_linear_102_21906" x1="183.436" y1="140.572" x2="288.616" y2="13.296" gradientUnits="userSpaceOnUse">
<stop stop-color="#FF928E"/>
<stop offset="1" stop-color="#FE7062"/>
</linearGradient>
<linearGradient id="paint13_linear_102_21906" x1="121.318" y1="106.316" x2="128.53" y2="126.921" gradientUnits="userSpaceOnUse">
<stop stop-color="#FEBBBA"/>
<stop offset="1" stop-color="#FF928E"/>
</linearGradient>
<linearGradient id="paint14_linear_102_21906" x1="126.858" y1="119.48" x2="121.426" y2="108.523" gradientUnits="userSpaceOnUse">
<stop stop-color="#FEBBBA"/>
<stop offset="1" stop-color="#FF928E"/>
</linearGradient>
<linearGradient id="paint15_linear_102_21906" x1="147.026" y1="231.4" x2="193.039" y2="281.45" gradientUnits="userSpaceOnUse">
<stop stop-color="#09005D"/>
<stop offset="1" stop-color="#1A0F91"/>
</linearGradient>
<linearGradient id="paint16_linear_102_21906" x1="161.962" y1="235.116" x2="157.874" y2="235.116" gradientUnits="userSpaceOnUse">
<stop stop-color="#FEBBBA"/>
<stop offset="1" stop-color="#FF928E"/>
</linearGradient>
<linearGradient id="paint17_linear_102_21906" x1="331.49" y1="13.4422" x2="97.2664" y2="276.833" gradientUnits="userSpaceOnUse">
<stop stop-color="#09005D"/>
<stop offset="1" stop-color="#1A0F91"/>
</linearGradient>
<linearGradient id="paint18_linear_102_21906" x1="157.349" y1="221.91" x2="203.362" y2="271.96" gradientUnits="userSpaceOnUse">
<stop stop-color="#09005D"/>
<stop offset="1" stop-color="#1A0F91"/>
</linearGradient>
<linearGradient id="paint19_linear_102_21906" x1="176.692" y1="234.907" x2="173.162" y2="234.907" gradientUnits="userSpaceOnUse">
<stop stop-color="#FEBBBA"/>
<stop offset="1" stop-color="#FF928E"/>
</linearGradient>
<linearGradient id="paint20_linear_102_21906" x1="334.973" y1="16.5387" x2="100.748" y2="279.93" gradientUnits="userSpaceOnUse">
<stop stop-color="#09005D"/>
<stop offset="1" stop-color="#1A0F91"/>
</linearGradient>
<linearGradient id="paint21_linear_102_21906" x1="201.378" y1="32.4585" x2="162.491" y2="150.884" gradientUnits="userSpaceOnUse">
<stop stop-color="#FF928E"/>
<stop offset="1" stop-color="#FE7062"/>
</linearGradient>
<linearGradient id="paint22_linear_102_21906" x1="127.482" y1="104.159" x2="134.693" y2="124.763" gradientUnits="userSpaceOnUse">
<stop stop-color="#FEBBBA"/>
<stop offset="1" stop-color="#FF928E"/>
</linearGradient>
<linearGradient id="paint23_linear_102_21906" x1="218.961" y1="38.2328" x2="180.075" y2="156.659" gradientUnits="userSpaceOnUse">
<stop stop-color="#FF928E"/>
<stop offset="1" stop-color="#FE7062"/>
</linearGradient>
<linearGradient id="paint24_linear_102_21906" x1="170.544" y1="129.815" x2="160.096" y2="129.815" gradientUnits="userSpaceOnUse">
<stop stop-color="#FEBBBA"/>
<stop offset="1" stop-color="#FF928E"/>
</linearGradient>
<linearGradient id="paint25_linear_102_21906" x1="157.622" y1="123.179" x2="169.108" y2="116.172" gradientUnits="userSpaceOnUse">
<stop stop-color="#FEBBBA"/>
<stop offset="1" stop-color="#FF928E"/>
</linearGradient>
<linearGradient id="paint26_linear_102_21906" x1="175.188" y1="108.786" x2="160.349" y2="120.509" gradientUnits="userSpaceOnUse">
<stop stop-color="#09005D"/>
<stop offset="1" stop-color="#1A0F91"/>
</linearGradient>
<linearGradient id="paint27_linear_102_21906" x1="160.639" y1="125.792" x2="170.974" y2="119.488" gradientUnits="userSpaceOnUse">
<stop stop-color="#FEBBBA"/>
<stop offset="1" stop-color="#FF928E"/>
</linearGradient>
<linearGradient id="paint28_linear_102_21906" x1="179.292" y1="206.632" x2="187.785" y2="145.632" gradientUnits="userSpaceOnUse">
<stop stop-color="#FEBBBA"/>
<stop offset="1" stop-color="#FF928E"/>
</linearGradient>
<linearGradient id="paint29_linear_102_21906" x1="180.303" y1="200.763" x2="187.08" y2="152.086" gradientUnits="userSpaceOnUse">
<stop stop-color="#FEBBBA"/>
<stop offset="1" stop-color="#FF928E"/>
</linearGradient>
</defs>
</svg>
