<svg width="24" height="24" viewBox="0 0 24 24" fill="none" xmlns="http://www.w3.org/2000/svg">
<path d="M11.9958 0C12.2444 1.04824e-05 12.4846 0.0900305 12.6719 0.253412C12.8592 0.416794 12.9811 0.642486 13.0149 0.888748L13.0245 1.02864L13.0258 10.9722H22.9735C23.2341 10.9723 23.485 11.0713 23.6754 11.2492C23.8659 11.4271 23.9817 11.6707 23.9994 11.9307C24.0172 12.1907 23.9356 12.4478 23.7711 12.65C23.6067 12.8522 23.3716 12.9844 23.1134 13.0199L22.9735 13.0295H13.0258L13.0286 22.973C13.0282 23.2335 12.9289 23.4842 12.7509 23.6744C12.5728 23.8645 12.3293 23.9801 12.0694 23.9977C11.8095 24.0152 11.5526 23.9335 11.3505 23.7691C11.1485 23.6046 11.0164 23.3696 10.9809 23.1116L10.9713 22.9717L10.9686 13.0295H1.02638C0.765755 13.0294 0.514879 12.9304 0.324442 12.7525C0.134005 12.5745 0.0182047 12.331 0.000440706 12.0709C-0.0173233 11.8109 0.0642733 11.5539 0.228743 11.3517C0.393212 11.1495 0.628292 11.0173 0.886481 10.9818L1.02638 10.9722H10.9699L10.9672 1.02864C10.9672 0.75583 11.0756 0.494191 11.2685 0.301282C11.4614 0.108374 11.723 0 11.9958 0Z" fill="#AAACAE"/>
</svg>
