<svg width="48" height="48" viewBox="0 0 48 48" fill="none" xmlns="http://www.w3.org/2000/svg">
<path opacity="0.15" d="M15.4812 15.0774L3.41329 22.0686C1.7112 23.0555 1.7112 24.65 3.41329 25.6315L26.132 38.7131C34.6532 43.6473 51.217 31.9908 44.3898 28.1752L21.6496 15.0748C19.9475 14.0879 17.1833 14.0879 15.4812 15.0774Z" fill="black"/>
<path d="M14.6152 8.33359C15.5778 8.0317 16.5925 7.93318 17.5952 8.04428C18.5978 8.15537 19.5664 8.47365 20.4395 8.97893C21.1117 9.35538 22.4696 10.1459 24.1529 11.1301C25.4669 12.4465 26.9617 13.5692 28.5923 14.4643C33.2952 16.9139 36.4654 18.3902 36.4654 18.3902C36.3773 18.4612 36.2771 18.5159 36.1697 18.5515C34.7714 19.1162 31.464 22.1627 29.1785 21.3507C26.5326 20.3961 14.6152 8.33359 14.6152 8.33359Z" fill="#F3F3FA"/>
<path opacity="0.2" d="M34.5024 17.5127C34.5024 17.5127 28.9255 15.0685 28.1431 14.5791C27.5327 14.208 26.956 13.7842 26.4195 13.3126C26.1506 13.0625 26.2232 13.9015 27.5945 14.6571C29.4391 15.7004 34.5024 17.5127 34.5024 17.5127Z" fill="white"/>
<path d="M26.1004 11.6683C26.1004 11.9103 26.0789 12.2437 26.0547 12.682C25.9999 13.155 26.1163 13.6319 26.3827 14.0265C26.6152 14.3658 26.9225 14.6473 27.2808 14.8493C30.0397 16.5352 36.4662 18.3906 36.4662 18.3906L36.1731 18.5519L28.5016 17.6942L25.1593 15.5L25.084 11.8861L25.6003 11.6172L26.1004 11.6683Z" fill="#37474F"/>
<path d="M25.0809 11.8773V12.0601C25.1397 12.2696 25.2595 12.4569 25.4251 12.5979C25.5107 12.651 25.6095 12.6789 25.7101 12.6786C25.893 12.6786 26.0543 12.5845 26.0624 12.4339V12.3129C26.0785 12.0279 26.0866 11.837 26.0866 11.6649L25.5865 11.6084L25.0809 11.8773Z" fill="#F3F3FA"/>
<path opacity="0.3" d="M25.0809 11.8773V12.0601C25.1397 12.2696 25.2595 12.4569 25.4251 12.5979C25.5107 12.651 25.6095 12.6789 25.7101 12.6786C25.893 12.6786 26.0543 12.5845 26.0624 12.4339V12.3129C26.0785 12.0279 26.0866 11.837 26.0866 11.6649L25.5865 11.6084L25.0809 11.8773Z" fill="black"/>
<path d="M13.4189 9.46325C13.9728 8.15374 14.9892 8.15643 16.6644 8.38768C16.858 8.41457 21.1361 9.30999 23.5293 10.2269C25.3389 10.918 25.8713 11.4423 26.0165 11.5257C26.35 11.7193 25.796 12.0392 25.4277 11.8645C25.4277 12.1495 25.4277 12.4022 25.4277 12.6093C25.4734 13.9054 25.6965 14.1016 26.3096 14.8008C26.5785 15.0885 27.3314 15.4757 27.7509 15.7096C28.5307 16.1506 28.493 15.8064 30.5689 16.6077C31.4589 16.9492 35.7343 18.5545 36.1914 18.5491L24.8146 25.6748L21.2222 28.3637L4.7041 15.1772L13.4189 9.46325Z" fill="#F3F3FA"/>
<path d="M25.409 11.8593L24.078 10.9639L13.1018 16.9548L14.8523 17.9631L14.8496 24.7312L25.409 18.6327V11.8593Z" fill="#F3F3FA"/>
<path opacity="0.25" d="M25.4089 11.8593L24.0779 10.9639L12.7925 16.5568L9.99597 16.9252L10.7193 19.157L14.8495 24.7312L25.4089 18.6327V11.8593Z" fill="black"/>
<path opacity="0.2" d="M22.3381 9.93859C23.2174 10.2075 23.8089 10.3769 23.5884 10.4979C23.3679 10.6189 17.7266 9.07813 16.6241 8.88453C15.5217 8.69093 14.6693 8.59682 16.0379 8.29297C17.2587 8.02408 18.0412 8.10743 18.7699 8.36019C19.4884 8.65523 20.1896 8.99099 20.8699 9.36585C20.8699 9.36585 17.3448 8.49733 17.2103 8.47851C17.0759 8.45968 16.7451 8.4785 17.5733 8.71244C18.4015 8.94638 21.4642 9.6697 22.3381 9.93859Z" fill="white"/>
<path opacity="0.3" d="M28.2887 22.205C28.2887 22.205 28.1112 18.5696 27.9795 15.835C28.8588 16.2867 28.6652 15.8726 30.5501 16.5986C31.3245 16.8998 34.6695 18.1555 35.8204 18.4809L36.1726 18.5535L29.496 22.7321L28.2887 22.205Z" fill="black"/>
<path d="M2.96734 21.4631L7.44709 18.8763L4.95714 17.4404L2.53711 18.9677L2.96734 21.4631Z" fill="#F3F3FA"/>
<path opacity="0.45" d="M2.96734 21.4631L7.44709 18.8763L4.95714 17.4404L2.53711 18.9677L2.96734 21.4631Z" fill="black"/>
<path d="M4.85457 20.8478L4.21191 19.5706L5.74191 18.6859C6.22861 18.417 6.87664 18.4385 7.58921 18.8472C9.095 19.7346 10.3265 21.9718 10.3265 23.8755C10.3265 24.8731 9.99042 25.5749 9.45263 25.8949H9.43112L7.86079 26.7984L7.18318 25.4539C5.89787 24.4859 4.90566 22.5472 4.85457 20.8478Z" fill="#37474F"/>
<path d="M4.85457 20.8478L4.21191 19.5706L5.74191 18.6859C6.22861 18.417 6.87664 18.4385 7.58921 18.8472C9.095 19.7346 10.3265 21.9718 10.3265 23.8755C10.3265 24.8731 9.99042 25.5749 9.45263 25.8949H9.43112L7.86079 26.7984L7.18318 25.4539C5.89787 24.4859 4.90566 22.5472 4.85457 20.8478Z" fill="#263238"/>
<path d="M3.25977 21.635C3.29328 22.5032 3.49906 23.3561 3.86512 24.144C4.23118 24.932 4.75022 25.6394 5.39208 26.225C5.57775 26.3872 5.77854 26.5313 5.99171 26.6552C7.50289 27.5291 8.72904 26.6928 8.72635 24.7891C8.66678 23.2457 8.06834 21.7719 7.03502 20.6239C6.7341 20.29 6.38521 20.0028 5.99978 19.7715C4.48592 18.895 3.25977 19.7339 3.25977 21.635Z" fill="#37474F"/>
<path d="M5.99731 20.9169C5.03467 20.3603 4.25488 20.9384 4.25488 22.2076C4.25488 23.4768 5.03467 24.9557 5.99731 25.5123C6.95994 26.0689 7.75049 25.4881 7.75049 24.2189C7.75049 22.9497 6.95725 21.4708 5.99731 20.9169Z" fill="#455A64"/>
<path d="M5.21203 22.8552C5.27388 23.4871 5.67453 24.1594 6.10744 24.3557C6.18074 24.3979 6.26506 24.4172 6.34944 24.411C6.43383 24.4047 6.5144 24.3733 6.58069 24.3207C6.67013 24.2199 6.73471 24.0995 6.76926 23.9692C6.80382 23.839 6.80738 23.7024 6.77967 23.5705C6.72052 22.9386 6.31987 22.2664 5.88695 22.0701C5.78829 22.0198 5.67575 22.0038 5.56697 22.0244C5.33034 22.0862 5.16901 22.3954 5.21203 22.8552Z" fill="#FAFAFA"/>
<path d="M5.36761 22.7746C5.42945 23.4065 5.83011 24.0787 6.26302 24.2777C6.36139 24.3258 6.47268 24.3409 6.58032 24.3207C6.66975 24.2199 6.73433 24.0995 6.76889 23.9692C6.80344 23.839 6.807 23.7024 6.7793 23.5705C6.72014 22.9386 6.31949 22.2664 5.88657 22.0701C5.78791 22.0198 5.67537 22.0038 5.56659 22.0244C5.47752 22.1254 5.41317 22.2458 5.37864 22.376C5.3441 22.5062 5.34033 22.6427 5.36761 22.7746Z" fill="#E0E0E0"/>
<path d="M3.25977 21.6351C3.29328 22.5033 3.49906 23.3562 3.86512 24.1442C4.23118 24.9322 4.75022 25.6395 5.39208 26.2251C4.54512 25.2659 3.9484 24.1122 3.65504 22.8666C3.42379 21.7696 3.51253 20.1939 4.46172 19.7959C5.41091 19.3979 6.64512 20.2369 7.0404 20.6187C6.73948 20.2848 6.39058 19.9976 6.00516 19.7663C4.48592 18.8951 3.25977 19.734 3.25977 21.6351Z" fill="#455A64"/>
<path d="M2.51779 15.2536C3.07171 13.9441 5.38687 12.5808 6.37371 13.0755C6.68025 13.2288 7.55415 13.7585 8.65661 14.3931C8.65661 14.3931 12.2759 16.5846 12.612 16.7755C12.612 16.7755 10.8803 16.7486 10.4878 16.8911C10.4303 16.9052 10.3765 16.9313 10.3299 16.9677C10.2832 17.0042 10.2449 17.0501 10.2175 17.1025C10.19 17.1549 10.174 17.2126 10.1705 17.2716C10.1671 17.3307 10.1762 17.3898 10.1974 17.445L10.3963 18.0877C10.8454 20.2711 14.2576 21.1773 14.9837 21.9893C15.2362 22.2526 15.5352 22.4668 15.8656 22.6212C16.2824 22.8605 18.8718 24.3072 19.2429 24.5223C19.9071 24.9041 20.9853 25.3935 20.9853 25.3935V31.8469L9.6058 25.3102C9.60556 25.1305 9.59569 24.951 9.57622 24.7724C9.36379 22.6911 7.83917 20.2711 6.19355 19.3085C4.4081 18.2786 2.96684 19.2413 2.96684 21.4596L2.67912 21.2929C1.6412 20.6744 1.96387 16.5631 2.51779 15.2536Z" fill="#F3F3FA"/>
<path d="M8.82566 16.8057C9.52479 16.8057 9.55436 17.1687 9.78292 17.8812C9.96039 18.4459 10.2374 18.9568 9.90124 18.7847C9.56512 18.6126 8.39813 17.373 8.18301 17.1579C7.75009 16.7196 8.50837 16.8057 8.82566 16.8057Z" fill="black"/>
<path d="M5.4248 13.0123C5.73971 12.9217 6.07593 12.9397 6.37937 13.0634C6.68591 13.2166 7.55981 13.7464 8.66227 14.3809L10.1439 15.2333L18.0466 10.6837C18.0466 10.6837 14.9812 9.11871 13.8922 8.69924C12.8032 8.27976 5.73403 12.2056 5.4248 13.0123Z" fill="#F3F3FA"/>
<path opacity="0.2" d="M20.7783 25.811L14.6772 22.3154C14.6155 22.3628 14.5666 22.4246 14.5347 22.4954C14.5028 22.5663 14.4889 22.6439 14.4943 22.7215L20.7783 25.811Z" fill="white"/>
<path d="M15.5805 23.7079C15.5862 23.7112 15.5927 23.7129 15.5992 23.7129C15.6058 23.713 15.6123 23.7112 15.618 23.708C15.6237 23.7047 15.6285 23.7 15.6318 23.6943C15.6351 23.6886 15.6369 23.6822 15.637 23.6756V23.4982C15.637 23.3664 15.438 23.1459 15.196 23.0061L14.8357 22.7963C14.5937 22.6565 14.3974 22.6511 14.3974 22.7963V22.9389C14.3968 22.968 14.4043 22.9967 14.419 23.0218C14.4337 23.047 14.4551 23.0676 14.4807 23.0814L15.5805 23.7079Z" fill="#37474F"/>
<path opacity="0.2" d="M11.2462 20.3048C11.5608 20.5387 13.3436 21.6036 13.5909 21.7595C13.4467 21.8996 13.3395 22.0733 13.279 22.265C13.279 22.265 6.94929 18.6108 5.40315 17.2421C3.85702 15.8735 3.01001 14.5989 4.2012 13.9347C4.56421 13.7331 4.90301 13.4642 5.34131 13.6255C5.37304 13.6373 5.40292 13.6536 5.43004 13.6739C5.46801 13.7193 5.49308 13.7741 5.50264 13.8326C5.8522 15.1932 6.96542 16.2123 7.86621 17.2421C8.89529 18.3658 10.0268 19.3911 11.2462 20.3048Z" fill="white"/>
<path opacity="0.15" d="M22.8971 10.5916C22.8971 10.5916 15.395 8.47807 14.8626 8.79268C14.3301 9.10728 21.4155 12.2345 21.4155 12.2345L22.8971 10.5916Z" fill="black"/>
<path opacity="0.15" d="M20.0603 30.1974C20.3292 30.3399 20.383 29.7645 20.5363 28.6432C20.6371 27.6489 20.6829 26.6497 20.6734 25.6504C20.8589 26.4893 20.781 28.5249 20.6734 29.8263C20.5658 31.1277 20.3212 31.0094 20.0603 30.8158L14.0156 27.1024L20.0603 30.1974Z" fill="black"/>
<path opacity="0.15" d="M14.298 22.0461C14.0425 22.426 13.9204 22.88 13.9511 23.3368C13.9511 24.4124 13.9511 26.9265 13.9511 26.9265C13.9511 26.9265 13.7521 24.1139 13.6338 23.232C13.5904 22.9918 13.5971 22.7453 13.6536 22.5079C13.7101 22.2706 13.815 22.0474 13.9618 21.8525L14.298 22.0461Z" fill="black"/>
<path opacity="0.15" d="M7.44629 20.0023C7.51439 19.6377 7.64058 19.2864 7.82005 18.9617C8.03785 18.6767 9.19678 18.5342 9.19678 18.5342C9.19678 18.5342 8.28792 18.8488 8.03516 19.115C7.81268 19.3925 7.61559 19.6895 7.44629 20.0023Z" fill="black"/>
<path opacity="0.15" d="M4.067 18.9696C4.067 18.9696 2.91076 18.3081 2.66338 17.8725C2.416 17.4369 2.30844 15.9902 2.30844 15.9902C2.30844 15.9902 2.20895 17.652 2.49935 18.05C2.78976 18.4479 4.067 18.9696 4.067 18.9696Z" fill="black"/>
<path d="M6.84646 15.5717C7.82523 14.6332 9.0218 13.9583 10.17 13.2458C11.3181 12.5332 12.4502 11.8529 13.6064 11.1834C14.5556 10.6294 15.5129 10.0809 16.497 9.5915C16.7585 9.45476 17.0279 9.33355 17.3037 9.2285C17.3376 9.21324 17.3727 9.20066 17.4086 9.19086C17.5457 9.14783 17.7178 9.09674 17.9168 9.04565C19.3087 8.67547 20.7472 8.5106 22.1868 8.55626C23.5124 8.63962 30.2132 11.8421 30.9527 12.6999C31.2974 13.0884 31.6223 13.494 31.9261 13.9153C31.9261 13.9153 31.0118 13.2108 30.5628 13.3775C30.2025 13.5093 27.605 15.8433 25.8706 16.7656C23.8082 17.8519 20.9257 18.9275 20.2239 19.2609C19.5221 19.5943 19.955 20.4494 19.955 20.4494C19.7219 20.0115 19.4133 19.6183 19.0434 19.2878C18.3094 18.6586 15.3112 17.1017 15.2789 17.0775C14.8614 16.8621 14.4034 16.7366 13.9345 16.7091L10.8126 16.8059L7.24711 16.0449C7.05698 16.0405 6.87141 15.9858 6.70933 15.8863C6.67437 15.7733 6.75773 15.655 6.84646 15.5717Z" fill="#F3F3FA"/>
<path opacity="0.15" d="M19.4155 19.5388C18.5 18.8011 17.5292 18.135 16.5115 17.5463C14.7583 16.5191 14.3012 16.3336 12.4915 16.3255C11.1094 16.3255 9.7273 16.3632 8.34519 16.3739C8.28274 16.3792 8.21994 16.3691 8.16235 16.3443C8.1337 16.3309 8.11146 16.3067 8.1004 16.2771C8.08934 16.2474 8.09034 16.2146 8.10319 16.1857C8.12896 16.1527 8.16486 16.1291 8.20537 16.1185C9.15994 15.7823 10.6604 15.6667 11.5638 15.2069C12.3382 14.8143 13.0965 14.3814 13.8521 13.9512C15.9307 12.7654 17.8855 11.6414 19.9533 10.2674C21.8759 8.98474 22.1609 8.58677 22.9434 8.72391C25.1348 9.40958 30.3245 11.9506 30.9698 12.6955V13.0719L30.6579 13.3408C30.6314 13.3433 30.6053 13.3487 30.5799 13.3569C30.2546 13.4779 28.1007 15.4032 26.3986 16.4519C26.2292 16.5514 26.0598 16.6509 25.8877 16.745C24.0969 17.6888 21.7172 18.6272 20.6363 19.0763C19.8995 19.3667 19.4155 19.5388 19.4155 19.5388Z" fill="white"/>
<path opacity="0.15" d="M8.09461 16.0097C8.64739 15.9483 9.19665 15.8586 9.74023 15.7408C10.3688 15.6419 10.9817 15.4611 11.5633 15.2031C12.3377 14.8105 13.096 14.3776 13.8516 13.9473C15.9301 12.7615 17.885 11.6375 19.9528 10.2635C21.8754 8.98357 22.1604 8.58292 22.9429 8.72006C22.7032 8.63668 22.4553 8.57899 22.2034 8.54796C20.5885 8.50243 18.9769 8.71761 17.4306 9.18524C17.1114 9.29662 16.8013 9.43236 16.5029 9.59127C15.5187 10.0807 14.5615 10.6292 13.6123 11.1831C12.456 11.8527 11.3106 12.5437 10.1758 13.2455C9.04111 13.9473 7.83109 14.633 6.85232 15.5714C6.76359 15.6548 6.66948 15.7731 6.71519 15.886C6.99492 16.0331 7.31377 16.0886 7.62673 16.0447C7.78 16.0366 7.93865 16.0259 8.09461 16.0097Z" fill="black"/>
<path d="M9.05699 15.5636C10.3786 15.3311 11.6457 14.8561 12.7946 14.1627C13.6282 13.6814 17.5459 11.299 18.9791 10.4681C20.4123 9.63726 20.8345 9.23392 20.1165 9.20703C19.5543 9.23822 18.9946 9.30648 18.4413 9.41138C17.6469 9.5381 16.8855 9.82144 16.2015 10.245C14.3192 11.3205 12.5902 12.3961 10.1648 13.8024C6.17177 16.1068 7.40868 15.8299 9.05699 15.5636Z" fill="#37474F"/>
<path d="M10.2002 18.1887C10.3965 18.9255 10.539 19.2213 11.0499 19.6407C12.0717 20.4797 14.7526 22.1172 14.9596 22.249C15.1667 22.3808 15.2124 22.4076 15.3818 22.5179L19.7567 25.0428C19.7567 25.0428 22.7306 26.5701 22.6231 26.0081C22.5155 25.4461 20.5365 21.3697 20.1869 20.6303C19.8373 19.8908 19.7271 19.396 19.0091 18.9954C18.2912 18.5947 15.8443 17.1508 15.3818 16.8765C15.3441 16.8523 15.3065 16.8335 15.2662 16.812C14.6496 16.4923 13.9547 16.3551 13.2629 16.4167C12.389 16.457 10.4879 16.4812 10.0147 16.7743C9.71891 16.9599 9.96898 17.3148 10.2002 18.1887ZM14.9005 21.3805V17.5998C14.9005 17.5165 14.9005 17.4439 14.9005 17.3874C14.9027 17.3602 14.9117 17.3341 14.9268 17.3113C14.9418 17.2886 14.9624 17.2701 14.9866 17.2574C15.0108 17.2448 15.0377 17.2385 15.065 17.2392C15.0923 17.2398 15.1189 17.2473 15.1425 17.261C15.6077 17.5299 18.0035 18.8744 18.7779 19.3154C19.1301 19.5144 19.3937 19.9634 19.6626 20.6168C19.9314 21.2702 21.3915 24.3302 21.9078 25.6048C21.8917 25.6048 19.4232 24.4539 17.7534 23.4536C16.452 22.6819 15.5861 22.2436 15.2527 22.0366C15.1368 21.973 15.0418 21.8772 14.9793 21.7607C14.9168 21.6443 14.8894 21.5122 14.9005 21.3805ZM13.9513 16.8577C14.3465 16.9249 14.4675 17.1266 14.4514 17.5998C14.4514 18.5141 14.4514 20.1355 14.4514 20.9072C14.4514 21.2138 14.3923 21.4638 14.1126 21.2756C13.3974 20.8104 11.4694 19.6004 11.1279 19.3261C10.6896 18.9685 10.3696 17.4977 10.2863 17.1427C10.1706 16.6964 13.4619 16.777 13.9513 16.8577Z" fill="#263238"/>
<path d="M15.2629 22.0475C15.5963 22.2545 16.4621 22.6928 17.7636 23.4645C19.4334 24.4567 21.9018 25.5995 21.9179 25.6157C21.4017 24.3411 19.9443 21.2784 19.6727 20.6277C19.4011 19.977 19.1349 19.5252 18.788 19.3263C18.0136 18.8933 15.6178 17.5462 15.1526 17.2719C15.129 17.2582 15.1024 17.2507 15.0751 17.25C15.0479 17.2494 15.0209 17.2557 14.9967 17.2683C14.9726 17.2809 14.952 17.2995 14.9369 17.3222C14.9219 17.345 14.9128 17.3711 14.9106 17.3983C14.9106 17.4548 14.9106 17.5274 14.9106 17.6107V21.3914C14.8995 21.5231 14.9269 21.6552 14.9894 21.7716C15.052 21.8881 15.1469 21.9839 15.2629 22.0475Z" fill="#263238"/>
<path d="M10.2861 17.1421C10.3694 17.497 10.6894 18.9679 11.1277 19.3255C11.4692 19.5944 13.4025 20.8044 14.1151 21.275C14.384 21.4632 14.4539 21.2131 14.4539 20.9066C14.4539 20.1349 14.4539 18.5134 14.4539 17.5992C14.47 17.1152 14.349 16.9243 13.9538 16.8571C13.4617 16.7764 10.1704 16.6957 10.2861 17.1421Z" fill="#263238"/>
<path opacity="0.35" d="M15.2629 22.0475C15.5963 22.2545 16.4621 22.6928 17.7636 23.4645C19.4334 24.4567 21.9018 25.5995 21.9179 25.6157C21.4017 24.3411 19.9443 21.2784 19.6727 20.6277C19.4011 19.977 19.1349 19.5252 18.788 19.3263C18.0136 18.8933 15.6178 17.5462 15.1526 17.2719C15.129 17.2582 15.1024 17.2507 15.0751 17.25C15.0479 17.2494 15.0209 17.2557 14.9967 17.2683C14.9726 17.2809 14.952 17.2995 14.9369 17.3222C14.9219 17.345 14.9128 17.3711 14.9106 17.3983C14.9106 17.4548 14.9106 17.5274 14.9106 17.6107V21.3914C14.8995 21.5231 14.9269 21.6552 14.9894 21.7716C15.052 21.8881 15.1469 21.9839 15.2629 22.0475Z" fill="black"/>
<path opacity="0.35" d="M10.2861 17.1421C10.3694 17.497 10.6894 18.9679 11.1277 19.3255C11.4692 19.5944 13.4025 20.8044 14.1151 21.275C14.384 21.4632 14.4539 21.2131 14.4539 20.9066C14.4539 20.1349 14.4539 18.5134 14.4539 17.5992C14.47 17.1152 14.349 16.9243 13.9538 16.8571C13.4617 16.7764 10.1704 16.6957 10.2861 17.1421Z" fill="black"/>
<path d="M23.1794 25.7493C25.1857 24.2514 27.2689 22.8594 29.4204 21.5788C31.5693 20.3542 33.8302 19.3377 36.1723 18.543C36.0782 18.8979 35.5189 19.4599 34.766 20.0703C34.2282 20.5059 33.6313 20.9496 32.9348 21.4147C31.2946 22.5629 29.7404 23.3535 29.1704 23.6896C26.3497 25.2196 23.4779 26.4081 23.002 25.8407L23.1794 25.7493Z" fill="#455A64"/>
<path d="M23.0068 25.8461C23.1413 25.76 27.6049 23.0093 29.6673 21.7697C31.6302 20.5892 35.6797 18.7661 36.1691 18.543C33.8214 19.3212 31.5598 20.3385 29.4199 21.5788C27.2116 22.8921 25.0711 24.3163 23.0068 25.8461Z" fill="#37474F"/>
<path d="M35.483 17.339L35.5825 17.7584C35.8137 18.1914 36.3273 18.7399 36.5102 18.6942C36.693 18.6485 36.7791 18.4253 36.8275 18.1215C36.8521 17.9802 36.8655 17.8373 36.8678 17.6939C36.8839 17.2314 36.6769 16.1478 36.0342 15.8601C35.9697 15.8323 35.8979 15.8257 35.8294 15.8412C35.7608 15.8566 35.6989 15.8934 35.6524 15.9461C35.5666 16.0322 35.5021 16.1372 35.4642 16.2526C35.4033 16.6128 35.4097 16.9811 35.483 17.339Z" fill="#F3F3FA"/>
<path opacity="0.3" d="M35.483 17.339C35.5153 17.5138 35.5825 17.7584 35.5825 17.7584C35.8137 18.1914 36.3273 18.7399 36.5102 18.6942C36.693 18.6485 36.7791 18.4253 36.8275 18.1215C36.8521 17.9802 36.8655 17.8373 36.8678 17.6939C36.8839 17.2314 36.6769 16.1478 36.0342 15.8601C35.9697 15.8323 35.8979 15.8257 35.8294 15.8412C35.7608 15.8566 35.6989 15.8934 35.6524 15.9461C35.5666 16.0322 35.5021 16.1372 35.4642 16.2526C35.4033 16.6128 35.4097 16.9811 35.483 17.339Z" fill="black"/>
<path d="M35.5831 17.7584C35.8144 18.1914 36.328 18.7399 36.5108 18.6942C36.6937 18.6485 36.7797 18.4253 36.8281 18.1215C36.8527 17.9802 36.8662 17.8373 36.8684 17.6939C36.8846 17.2314 36.6775 16.1478 36.0349 15.8601C35.9703 15.8323 35.8986 15.8257 35.83 15.8412C35.7614 15.8566 35.6995 15.8934 35.653 15.9461L35.7391 16.1451C36.1908 16.336 36.3118 17.0324 36.2769 17.5622C36.2419 18.0919 35.8413 18.0327 35.5831 17.7584Z" fill="#F3F3FA"/>
<path opacity="0.35" d="M35.5831 17.7584C35.8144 18.1914 36.328 18.7399 36.5108 18.6942C36.6937 18.6485 36.7797 18.4253 36.8281 18.1215C36.8527 17.9802 36.8662 17.8373 36.8684 17.6939C36.8846 17.2314 36.6775 16.1478 36.0349 15.8601C35.9703 15.8323 35.8986 15.8257 35.83 15.8412C35.7614 15.8566 35.6995 15.8934 35.653 15.9461L35.7391 16.1451C36.1908 16.336 36.3118 17.0324 36.2769 17.5622C36.2419 18.0919 35.8413 18.0327 35.5831 17.7584Z" fill="black"/>
<path d="M35.4678 16.2391C35.6291 16.067 36.0351 16.059 36.3739 16.5268C36.6603 17.0054 36.8169 17.5504 36.8284 18.1079C36.8525 17.9666 36.8669 17.8237 36.8714 17.6804C36.8875 17.2152 36.6805 16.1343 36.0351 15.8465C35.7662 15.7336 35.5431 16.0079 35.4678 16.2391Z" fill="#37474F"/>
<path d="M20.9932 31.8354L25.4702 29.2513L22.983 27.8154L20.9932 28.9663V31.8354Z" fill="#F3F3FA"/>
<path opacity="0.45" d="M20.9932 31.8354L25.4702 29.2513L22.983 27.8154L20.9932 28.9663V31.8354Z" fill="black"/>
<path d="M22.835 31.1925L22.1924 29.9153L23.7224 29.0306C24.2091 28.7617 24.8571 28.7833 25.5697 29.192C27.0808 30.0659 28.307 32.3165 28.307 34.2203C28.307 35.2178 27.9709 35.9197 27.4331 36.2396L27.4116 36.2531L25.8439 37.1566L25.1636 35.8121C23.8837 34.8306 22.8861 32.8919 22.835 31.1925Z" fill="#37474F"/>
<path d="M22.835 31.1925L22.1924 29.9153L23.7224 29.0306C24.2091 28.7617 24.8571 28.7833 25.5697 29.192C27.0808 30.0659 28.307 32.3165 28.307 34.2203C28.307 35.2178 27.9709 35.9197 27.4331 36.2396L27.4116 36.2531L25.8439 37.1566L25.1636 35.8121C23.8837 34.8306 22.8861 32.8919 22.835 31.1925Z" fill="#263238"/>
<path d="M21.2402 31.9776C21.2734 32.8462 21.479 33.6996 21.8451 34.4881C22.2111 35.2765 22.7304 35.9843 23.3726 36.5702C23.5582 36.7325 23.759 36.8766 23.9722 37.0005C25.4834 37.8744 26.7095 37.0381 26.7095 35.1344C26.6496 33.5897 26.0502 32.115 25.0155 30.9665C24.7153 30.6319 24.3663 30.3445 23.9803 30.1141C22.4664 29.2402 21.2402 30.0765 21.2402 31.9776Z" fill="#37474F"/>
<path d="M23.9778 31.2626C23.0151 30.706 22.2354 31.2841 22.2354 32.5533C22.2354 33.8225 23.0151 35.3014 23.9778 35.858C24.9404 36.4146 25.7202 35.8338 25.7202 34.5646C25.7202 33.2954 24.9404 31.8165 23.9778 31.2626Z" fill="#455A64"/>
<path d="M23.1898 33.2092C23.257 33.8384 23.6631 34.508 24.096 34.7016C24.1701 34.7437 24.2552 34.7624 24.3402 34.7552C24.4251 34.748 24.5059 34.7152 24.5719 34.6612C24.6599 34.5596 24.7231 34.439 24.7567 34.3088C24.7903 34.1787 24.7933 34.0425 24.7655 33.911C24.6983 33.2791 24.2923 32.6096 23.8567 32.416C23.7588 32.3659 23.6466 32.3516 23.5394 32.3756C23.2893 32.4375 23.1414 32.7494 23.1898 33.2092Z" fill="#FAFAFA"/>
<path d="M23.3456 33.1258C23.4129 33.7577 23.8189 34.4273 24.2518 34.6209C24.351 34.6697 24.4636 34.6839 24.5718 34.6612C24.6597 34.5596 24.723 34.439 24.7566 34.3088C24.7902 34.1787 24.7932 34.0425 24.7654 33.911C24.6982 33.2791 24.2921 32.6096 23.8565 32.416C23.7587 32.3659 23.6465 32.3516 23.5392 32.3756C23.4506 32.4768 23.3868 32.5974 23.3532 32.7277C23.3196 32.858 23.317 32.9944 23.3456 33.1258Z" fill="#E0E0E0"/>
<path d="M21.2404 31.9767C21.2735 32.8453 21.4791 33.6987 21.8452 34.4872C22.2113 35.2756 22.7305 35.9834 23.3727 36.5693C22.5257 35.6101 21.929 34.4564 21.6356 33.2109C21.4044 32.1138 21.4931 30.5381 22.4423 30.1401C23.3915 29.7422 24.6284 30.5811 25.021 30.9629C24.7208 30.6283 24.3718 30.3409 23.9857 30.1105C22.4665 29.2393 21.2404 30.0756 21.2404 31.9767Z" fill="#455A64"/>
<path d="M20.9847 25.3945C20.9847 25.3945 21.2536 25.3461 21.1837 25.1257C21.1837 25.1257 22.7084 25.8248 23.0283 25.9323C23.7275 26.1636 26.3545 25.2278 29.1752 23.6978C29.7399 23.3617 31.2941 22.5712 32.9397 21.423C33.6361 20.9578 34.2358 20.5141 34.7709 20.0785C35.2237 19.7139 35.6382 19.3039 36.0078 18.8551C36.0884 18.768 36.146 18.662 36.1751 18.5469C36.2042 18.4318 36.204 18.3113 36.1745 18.1963C41.7701 22.1786 44.8382 23.8269 44.1821 28.3658C44.1516 28.7032 44.104 29.0389 44.0396 29.3715C43.8541 30.3959 43.3082 32.1357 41.8885 33.136C40.9024 33.867 39.8542 34.5103 38.7559 35.0585C36.7851 36.1168 34.5768 36.6545 32.3401 36.6208C29.748 36.5375 27.4812 35.5452 27.4086 34.951C27.3784 34.6791 27.3299 34.4096 27.2634 34.1443C27.096 33.4628 26.8393 32.8063 26.4997 32.1921C26.0215 31.2843 25.344 30.4965 24.518 29.8877C24.4194 29.8178 24.3172 29.7533 24.2115 29.6941C22.547 28.7315 21.173 29.5059 20.9982 31.4151C20.9847 31.5549 20.9794 31.6974 20.9794 31.848L20.9847 25.3945Z" fill="#F3F3FA"/>
<path d="M36.3004 35.3314C37.6904 34.9642 39.0162 34.3865 40.2316 33.6185C41.106 33.1449 41.8906 32.5215 42.5494 31.7766C42.9528 31.2711 43.1975 30.615 42.942 30.701C42.3362 31.2389 41.6957 31.7365 41.0248 32.1907C39.2797 33.2474 37.4297 34.5569 34.5714 34.6107C34.3911 34.6044 34.2106 34.6189 34.0336 34.6538C33.3399 34.8716 35.2033 35.6164 36.3004 35.3314Z" fill="#455A64"/>
<path d="M30.4335 34.0448C30.5922 34.0233 30.9874 34.1281 31.6624 34.3137C32.3373 34.4992 32.4959 34.5261 32.7379 34.6982C32.9799 34.8703 33.5123 35.3032 33.7839 35.443C34.2168 35.6662 33.7839 35.8248 32.5793 35.8275C31.3746 35.8302 30.9659 35.4672 30.697 35.0961C30.4281 34.7251 30.0678 34.0959 30.4335 34.0448Z" fill="#455A64"/>
<path d="M44.1451 28.6504C44.1263 28.8144 44.0913 29.051 44.0349 29.363C43.9414 29.8711 43.7963 30.3685 43.6019 30.8472C43.5452 30.915 43.4677 30.9622 43.3814 30.9817C43.1744 30.9682 43.3519 30.6133 43.4971 30.0836C43.6423 29.5539 44.0133 29.0403 44.1451 28.6504Z" fill="#455A64"/>
<path opacity="0.85" d="M40.8239 27.1852C39.2282 28.3457 37.516 29.337 35.715 30.143C35.6509 30.1671 35.593 30.2052 35.5456 30.2545C35.4981 30.3038 35.4622 30.3631 35.4406 30.428C35.4189 30.4929 35.4121 30.5619 35.4205 30.6298C35.4289 30.6977 35.4523 30.7629 35.4891 30.8206C35.7488 31.1699 36.0785 31.4612 36.4571 31.6757C36.7765 31.798 37.1299 31.798 37.4493 31.6757C38.8488 31.1721 40.1499 30.4287 41.2945 29.4789C41.555 29.2562 41.7284 28.9485 41.7839 28.6103C41.801 28.1544 41.7363 27.6991 41.593 27.2659C41.48 26.9701 41.0633 27.0131 40.8239 27.1852Z" fill="white"/>
<path d="M36.8874 31.4349C37.0385 31.4349 37.1884 31.4094 37.3311 31.3596C38.7003 30.8644 39.9738 30.1366 41.0956 29.2084C41.287 29.0411 41.4199 28.8168 41.4747 28.5685C41.4902 28.1594 41.4338 27.7507 41.308 27.3611C41.2569 27.259 41.0902 27.3853 41.0391 27.4311C39.4219 28.5998 37.6881 29.5982 35.8656 30.4104C35.8381 30.4215 35.8135 30.4386 35.7935 30.4605C35.7735 30.4824 35.7586 30.5084 35.75 30.5368C35.7467 30.5491 35.7462 30.562 35.7485 30.5746C35.7508 30.5871 35.7559 30.599 35.7634 30.6094C35.9954 30.9207 36.2893 31.1806 36.6266 31.373C36.7083 31.4115 36.7971 31.4326 36.8874 31.4349Z" fill="#F3F3FA"/>
<path opacity="0.35" d="M36.8874 31.4349C37.0385 31.4349 37.1884 31.4094 37.3311 31.3596C38.7003 30.8644 39.9738 30.1366 41.0956 29.2084C41.287 29.0411 41.4199 28.8168 41.4747 28.5685C41.4902 28.1594 41.4338 27.7507 41.308 27.3611C41.2569 27.259 41.0902 27.3853 41.0391 27.4311C39.4219 28.5998 37.6881 29.5982 35.8656 30.4104C35.8381 30.4215 35.8135 30.4386 35.7935 30.4605C35.7735 30.4824 35.7586 30.5084 35.75 30.5368C35.7467 30.5491 35.7462 30.562 35.7485 30.5746C35.7508 30.5871 35.7559 30.599 35.7634 30.6094C35.9954 30.9207 36.2893 31.1806 36.6266 31.373C36.7083 31.4115 36.7971 31.4326 36.8874 31.4349Z" fill="black"/>
<path d="M39.3558 30.5676L39.6624 30.495C39.4954 29.8524 39.2498 29.2328 38.931 28.6504L38.6621 28.8063C38.9634 29.3634 39.1963 29.9547 39.3558 30.5676Z" fill="#F3F3FA"/>
<path opacity="0.85" d="M39.3558 30.5676L39.6624 30.495C39.4954 29.8524 39.2498 29.2328 38.931 28.6504L38.6621 28.8063C38.9634 29.3634 39.1963 29.9547 39.3558 30.5676Z" fill="white"/>
<path d="M35.6343 30.6831C36.7806 30.2108 37.892 29.6582 38.9605 29.0295C40.1867 28.2766 41.402 27.4027 41.4128 27.3946L41.3832 27.3516C41.3698 27.3516 40.1571 28.2335 38.9309 28.9837C37.8672 29.6111 36.7601 30.1619 35.6182 30.6321L35.6343 30.6831Z" fill="#F3F3FA"/>
<path d="M35.7925 30.8349C36.9211 30.3755 38.0156 29.8364 39.0676 29.2215C40.2938 28.4713 41.4231 27.6458 41.4339 27.6378L41.4043 27.5947C41.4043 27.5947 40.2642 28.4256 39.0407 29.1758C37.9918 29.7896 36.901 30.3287 35.7764 30.7892L35.7925 30.8349Z" fill="#F3F3FA"/>
<path d="M35.9517 30.9827C37.065 30.5312 38.1434 29.9982 39.1784 29.3882C40.4046 28.6353 41.4505 27.8609 41.4613 27.8528L41.429 27.8125C41.429 27.8125 40.375 28.5923 39.1515 29.3425C38.1164 29.9506 37.0379 30.4817 35.9248 30.9317L35.9517 30.9827Z" fill="#F3F3FA"/>
<path d="M36.1106 31.1306C37.2074 30.6924 38.2683 30.1692 39.2836 29.5656C40.5097 28.8127 41.4723 28.0894 41.4804 28.084L41.4481 28.041C41.4481 28.041 40.4801 28.7697 39.2567 29.5199C38.2431 30.1206 37.1851 30.6429 36.0918 31.0822L36.1106 31.1306Z" fill="#F3F3FA"/>
<path d="M36.2687 31.2811C37.3481 30.8512 38.3919 30.3369 39.3905 29.7431C40.6167 28.9929 41.4933 28.3179 41.5014 28.3126L41.4691 28.2695C41.4691 28.2695 40.5871 28.9471 39.3637 29.6974C38.3684 30.2908 37.3271 30.8033 36.2499 31.23L36.2687 31.2811Z" fill="#F3F3FA"/>
<path d="M36.427 31.429C37.4896 31.0109 38.5166 30.5073 39.4978 29.9232C40.197 29.4977 40.8737 29.0364 41.5252 28.5411L41.493 28.498C40.8444 28.9941 40.1694 29.4546 39.4709 29.8775C38.4917 30.4593 37.4675 30.9619 36.4082 31.3806L36.427 31.429Z" fill="#F3F3FA"/>
<path d="M36.5835 31.5797C37.6302 31.1714 38.6412 30.6768 39.6059 30.1008C40.2793 29.6968 40.9276 29.2523 41.5473 28.7698L41.515 28.7295C40.0104 29.8977 38.3437 30.8406 36.5674 31.5287L36.5835 31.5797Z" fill="#F3F3FA"/>
<g opacity="0.85">
<path d="M35.6342 30.6841C36.7804 30.2118 37.8919 29.6592 38.9604 29.0304C40.1865 28.2775 41.4019 27.4036 41.4127 27.3956L41.3831 27.3525C41.3697 27.3525 40.157 28.2345 38.9308 28.9847C37.8671 29.6121 36.76 30.1629 35.618 30.633L35.6342 30.6841Z" fill="white"/>
<path d="M35.7934 30.8339C36.922 30.3745 38.0164 29.8354 39.0685 29.2205C40.2946 28.4703 41.424 27.6448 41.4347 27.6368L41.4051 27.5938C41.4051 27.5938 40.265 28.4246 39.0416 29.1748C37.9927 29.7886 36.9019 30.3277 35.7772 30.7882L35.7934 30.8339Z" fill="white"/>
<path d="M35.9513 30.9827C37.0646 30.5312 38.1431 29.9982 39.178 29.3882C40.4042 28.6353 41.4502 27.8609 41.4609 27.8528L41.4287 27.8125C41.4287 27.8125 40.3746 28.5923 39.1511 29.3425C38.116 29.9506 37.0375 30.4817 35.9244 30.9317L35.9513 30.9827Z" fill="white"/>
<path d="M36.1105 31.1306C37.2073 30.6924 38.2682 30.1692 39.2834 29.5656C40.5096 28.8127 41.4722 28.0894 41.4803 28.084L41.448 28.041C41.448 28.041 40.48 28.7697 39.2565 29.5199C38.243 30.1206 37.1849 30.6429 36.0917 31.0822L36.1105 31.1306Z" fill="white"/>
<path d="M36.2687 31.2811C37.3481 30.8512 38.3919 30.3369 39.3905 29.7431C40.6167 28.9929 41.4933 28.3179 41.5014 28.3126L41.4691 28.2695C41.4691 28.2695 40.5871 28.9471 39.3637 29.6974C38.3684 30.2908 37.3271 30.8033 36.2499 31.23L36.2687 31.2811Z" fill="white"/>
<path d="M36.4269 31.429C37.4895 31.0109 38.5165 30.5073 39.4977 29.9232C40.1968 29.4977 40.8735 29.0364 41.5251 28.5411L41.4928 28.498C40.8443 28.9941 40.1693 29.4546 39.4708 29.8775C38.4916 30.4593 37.4674 30.9619 36.4081 31.3806L36.4269 31.429Z" fill="white"/>
<path d="M36.5833 31.5797C37.63 31.1714 38.6409 30.6768 39.6056 30.1008C40.279 29.6968 40.9274 29.2523 41.547 28.7698L41.5148 28.7295C40.0101 29.8977 38.3434 30.8406 36.5671 31.5287L36.5833 31.5797Z" fill="white"/>
</g>
<path opacity="0.2" d="M36.7498 19.3817C36.9999 19.3252 40.7832 22.1352 41.2807 22.6245C41.7781 23.1139 41.5496 23.1032 41.1435 23.9179C40.6327 24.9128 41.2269 25.784 40.8747 25.7141C40.6972 25.6819 39.9282 24.1008 38.8015 22.5493C37.6748 20.9977 36.3223 19.4651 36.7498 19.3817Z" fill="white"/>
<path opacity="0.85" d="M30.6869 31.6494C30.4745 31.3939 30.3239 31.082 30.504 30.8077C30.7435 30.5436 31.0609 30.3628 31.4102 30.2915C32.3434 30.0264 33.3436 30.1404 34.1932 30.6088C34.3894 30.7116 34.5645 30.8502 34.7095 31.0175C34.7809 31.1017 34.8348 31.1993 34.868 31.3045C34.9013 31.4098 34.9132 31.5206 34.9031 31.6306C34.774 32.655 33.2575 32.7895 32.4831 32.6524C31.9765 32.5627 31.4999 32.3493 31.0956 32.0312C30.9466 31.9183 30.8097 31.7903 30.6869 31.6494Z" fill="white"/>
<path d="M32.01 30.6314C31.6739 30.6314 30.9344 30.6314 30.9936 31.1396C31.0501 31.594 31.7438 31.9624 32.1471 32.0269C32.6553 32.1103 32.8678 31.4676 32.7199 31.0616C32.6597 30.9259 32.5594 30.8119 32.4325 30.735C32.3056 30.6581 32.1581 30.6219 32.01 30.6314Z" fill="white"/>
<path d="M33.5633 31.5147C33.2944 31.5147 32.9126 31.6062 32.8965 31.9369C32.8965 32.2058 33.2998 32.2058 33.4907 32.1413C33.9317 31.9988 33.9021 31.5067 33.5633 31.5147Z" fill="white"/>
<path d="M33.9834 30.955C34.0212 30.9627 34.0568 30.9785 34.0878 31.0013C34.1189 31.024 34.1448 31.0531 34.1636 31.0867C34.2308 31.2023 34.2201 31.3717 34.0722 31.4094C33.8517 31.3883 33.6427 31.3012 33.4725 31.1593C33.3489 30.9523 33.7979 30.9281 33.9001 30.9415L33.9834 30.955Z" fill="white"/>
<path opacity="0.85" d="M42.9744 27.2637C42.9143 27.292 42.8496 27.3093 42.7834 27.3148C42.6957 27.3199 42.6078 27.3062 42.5258 27.2747C42.4437 27.2432 42.3693 27.1945 42.3075 27.132C42.1835 27.008 42.0809 26.8645 42.0037 26.7071C41.6111 25.9972 40.6807 24.08 42.0037 23.7681C42.4258 23.6659 42.8829 24.0693 43.1196 24.3893C43.4602 24.8608 43.6196 25.4393 43.5686 26.0187C43.5121 26.4194 43.3696 27.0782 42.9744 27.2637Z" fill="white"/>
<path d="M42.5203 24.1529C42.4098 24.0899 42.2855 24.0553 42.1583 24.052C42.0312 24.0487 41.9052 24.0769 41.7916 24.1341C41.3372 24.5024 42.2702 25.2096 42.5633 25.3521C43.0339 25.5753 43.2463 25.2446 43.042 24.8144C42.9464 24.5472 42.7661 24.3186 42.5284 24.1636L42.5203 24.1529Z" fill="white"/>
<path d="M43.1654 25.9411C43.0794 25.882 42.9664 25.9411 42.8589 26.1885C42.7836 26.3606 42.6787 26.8043 42.9987 26.7774C43.4128 26.7424 43.3563 26.0702 43.1654 25.9411Z" fill="white"/>
<path d="M41.9742 25.7794C41.9881 25.8685 42.0275 25.9517 42.0876 26.019C42.1477 26.0863 42.226 26.1347 42.313 26.1585C42.7164 26.2042 42.434 25.1986 42.063 25.4997C42.0244 25.5341 41.9959 25.5782 41.9803 25.6274C41.9647 25.6766 41.9626 25.7291 41.9742 25.7794Z" fill="white"/>
<path opacity="0.15" d="M30.2264 31.5879C29.0238 31.6846 27.9 32.2241 27.0723 33.1018C28.0375 32.4345 29.102 31.9236 30.2264 31.5879Z" fill="black"/>
<path opacity="0.15" d="M35.7148 19.7881C37.6776 21.6672 39.3302 23.8453 40.6114 26.2415L35.7148 19.7881Z" fill="black"/>
<path opacity="0.15" d="M35.0102 29.4733C35.0102 29.4733 30.6864 27.2388 24.3379 26.4053L35.0102 29.4733Z" fill="black"/>
<path opacity="0.15" d="M44.1855 27.7402C43.8467 28.7109 42.6555 30.1872 40.8889 31.2358C39.1223 32.2845 36.8286 33.7043 34.2257 33.7876C31.6229 33.871 29.832 31.943 29.832 31.943C29.832 31.943 31.1765 34.078 34.2257 34.1453C37.275 34.2125 39.1626 32.86 40.9776 31.7602C42.8653 30.6066 43.9731 28.9771 44.1855 27.7402Z" fill="black"/>
<path opacity="0.2" d="M27.6642 32.4244C27.0458 30.8513 25.8734 29.6198 24.8947 29.2783C25.9541 29.3617 27.3604 30.4507 27.9063 32.2738C27.917 32.2738 27.7476 32.3733 27.6642 32.4244Z" fill="white"/>
<path opacity="0.2" d="M28.0059 32.6416C28.143 33.283 28.173 33.9426 28.0946 34.5938C28.0927 33.9673 27.9892 33.3452 27.7881 32.7518L28.0059 32.6416Z" fill="white"/>
<path opacity="0.2" d="M30.4037 30.1972C29.6777 30.5521 29.597 31.0307 29.0592 30.6005C28.5215 30.1703 24.558 27.3415 23.6142 26.9409C22.5628 26.4891 23.5201 26.43 25.9078 27.1721C28.2956 27.9143 32.4392 29.0329 32.614 29.2775C32.7888 29.5222 31.8046 29.5088 30.4037 30.1972Z" fill="white"/>
<path d="M19.4601 19.337L22.5389 26.0243C23.1439 27.073 29.5678 23.8194 33.4049 21.1143C35.2521 19.8129 36.5025 18.6351 36.2094 18.1296C34.65 16.1498 32.8981 14.3295 30.9794 12.6953C30.7805 12.897 30.5761 13.096 30.3637 13.2869C29.8567 13.7547 29.3254 14.1954 28.7718 14.6071C26.2873 16.4517 23.1305 18.0032 19.4601 19.337ZM20.2668 20.0899C20.2386 20.0243 20.2238 19.9537 20.2232 19.8823C20.2225 19.8109 20.2361 19.7401 20.2632 19.674C20.2902 19.608 20.3301 19.5479 20.3806 19.4975C20.4311 19.447 20.4911 19.407 20.5572 19.38C24.0286 18.049 26.8035 16.5943 29.0111 14.9459C29.5723 14.5266 30.1109 14.0778 30.6245 13.6015C30.7225 13.516 30.8481 13.4689 30.9781 13.4689C31.1081 13.4689 31.2337 13.516 31.3317 13.6015C32.9557 15.0456 34.4502 16.6292 35.798 18.334C35.7604 18.4684 35.4646 19.1407 33.136 20.7782C29.5301 23.3193 24.5314 25.8119 23.0337 25.8119C22.9776 25.8141 22.9215 25.8086 22.867 25.7958L20.2668 20.0899Z" fill="#37474F"/>
<path d="M22.8833 25.7849C22.9379 25.7978 22.994 25.8032 23.05 25.801C24.5424 25.801 29.5465 23.3084 33.1523 20.7673C35.4809 19.1244 35.7767 18.4576 35.8144 18.3231C34.4666 16.6183 32.9721 15.0347 31.3481 13.5906C31.2501 13.5051 31.1245 13.458 30.9945 13.458C30.8645 13.458 30.7388 13.5051 30.6409 13.5906C30.1272 14.067 29.5887 14.5157 29.0275 14.9351C26.8199 16.5834 24.0449 18.0381 20.5735 19.3691C20.5075 19.3961 20.4474 19.4361 20.397 19.4866C20.3465 19.5371 20.3066 19.5971 20.2795 19.6632C20.2525 19.7292 20.2389 19.8 20.2395 19.8714C20.2401 19.9428 20.255 20.0134 20.2831 20.079L22.8833 25.7849Z" fill="#263238"/>
<path opacity="0.2" d="M33.1526 20.7673C32.5691 21.1787 31.9533 21.574 31.3214 21.9827C30.02 19.8719 28.0947 17.0566 27.3525 16.0805C27.9387 15.7121 28.4926 15.3357 29.0143 14.9458C29.3477 14.6957 29.6677 14.4429 29.9689 14.1875C31.8914 15.9756 33.6581 18.6538 34.3921 19.8342C34.0614 20.1058 33.6527 20.4151 33.1526 20.7673Z" fill="white"/>
<path opacity="0.2" d="M26.1689 16.7764C26.4056 16.6455 26.6368 16.5111 26.8627 16.373C28.288 18.269 29.605 20.244 30.8073 22.2887C30.5385 22.4446 30.2964 22.5979 30.0383 22.7485C29.1994 21.3798 27.7393 19.0458 26.1689 16.7764Z" fill="white"/>
<path opacity="0.3" d="M26.7684 24.3326C24.9479 25.2038 23.0496 25.8007 22.8963 25.3947C22.743 24.9887 21.4147 22.3293 21.0329 21.2753C20.651 20.2212 20.565 20.1056 20.8151 19.7883C21.0651 19.471 22.4446 18.9547 24.6844 17.9061C26.9243 16.8574 29.0136 14.9482 29.0136 14.9482C26.806 16.5966 24.031 18.0513 20.5596 19.3823C20.4935 19.4093 20.4335 19.4493 20.3831 19.4997C20.3326 19.5502 20.2927 19.6103 20.2656 19.6763C20.2386 19.7424 20.225 19.8132 20.2256 19.8846C20.2262 19.956 20.241 20.0266 20.2692 20.0922L22.8829 25.7873C22.9374 25.8002 22.9935 25.8056 23.0496 25.8034C24.5419 25.8034 29.546 23.3108 33.1519 20.7698C32.4097 21.3076 28.5888 23.4614 26.7684 24.3326Z" fill="white"/>
<path d="M19.4522 25.4724C19.6565 26.4592 20.7509 26.669 21.5684 26.6421C21.8746 26.6468 22.1791 26.5949 22.4665 26.4888C22.7838 26.3059 22.6386 25.9268 22.4665 25.709C22.1788 25.3379 20.8935 24.5931 20.0868 24.5662C19.6162 24.5501 19.3124 24.7813 19.4522 25.4724Z" fill="#F3F3FA"/>
<path opacity="0.3" d="M19.4522 25.4724C19.6565 26.4592 20.7509 26.669 21.5684 26.6421C21.8746 26.6468 22.1791 26.5949 22.4665 26.4888C22.7838 26.3059 22.6386 25.9268 22.4665 25.709C22.1788 25.3379 20.8935 24.5931 20.0868 24.5662C19.6162 24.5501 19.3124 24.7813 19.4522 25.4724Z" fill="black"/>
<path d="M19.4522 25.4724C19.6565 26.4592 20.7509 26.669 21.5684 26.6421C21.8746 26.6468 22.1791 26.5949 22.4665 26.4888C22.7838 26.3059 22.6386 25.9268 22.4665 25.709C22.6251 26.0102 21.7835 26.1957 21.0306 25.9268C20.2777 25.6579 19.7211 25.0771 20.0868 24.5662C19.6162 24.5501 19.3124 24.7813 19.4522 25.4724Z" fill="#F3F3FA"/>
<path opacity="0.35" d="M19.4522 25.4724C19.6565 26.4592 20.7509 26.669 21.5684 26.6421C21.8746 26.6468 22.1791 26.5949 22.4665 26.4888C22.7838 26.3059 22.6386 25.9268 22.4665 25.709C22.6251 26.0102 21.7835 26.1957 21.0306 25.9268C20.2777 25.6579 19.7211 25.0771 20.0868 24.5662C19.6162 24.5501 19.3124 24.7813 19.4522 25.4724Z" fill="black"/>
<path d="M19.4522 25.473C19.6566 26.4599 20.751 26.6696 21.5684 26.6427C21.2196 26.6452 20.8765 26.5545 20.5745 26.3801C20.2725 26.2057 20.0224 25.9538 19.8502 25.6505C19.6055 25.1396 19.791 24.6422 20.0787 24.5749C19.6163 24.5507 19.3124 24.782 19.4522 25.473Z" fill="#37474F"/>
</svg>
