<svg width="48" height="48" viewBox="0 0 48 48" fill="none" xmlns="http://www.w3.org/2000/svg">
<path d="M25.9114 39.5518L26.1467 37.3633L23.6372 37.5292C23.6372 37.5292 23.6755 38.7183 23.7101 39.3931C23.7302 39.7907 23.194 40.5293 23.194 40.5293C23.194 40.5293 24.3722 41.1621 25.005 40.9415C25.6378 40.7208 25.9698 39.9329 25.9606 39.7633C25.9515 39.5937 25.9114 39.5518 25.9114 39.5518Z" fill="#FFA8A7"/>
<path d="M19.862 42.9783C19.8216 43.0755 19.8101 43.1822 19.8289 43.2857C19.8477 43.3892 19.8959 43.4851 19.9677 43.5619C20.2139 43.7662 20.9361 44.109 21.9009 44.0069C22.8657 43.9048 23.3909 43.6422 23.7812 43.3431C24.1715 43.044 24.7186 42.6318 25.1563 42.5497C25.5025 42.495 25.835 42.3743 26.1356 42.1941C26.2669 42.0792 26.256 41.5576 26.256 41.5576L19.862 42.9783Z" fill="#04568A"/>
<path d="M25.9114 39.5479C25.9458 39.5496 25.9786 39.5627 26.0047 39.5852C26.0308 39.6076 26.0486 39.6381 26.0555 39.6719C26.0828 39.8159 26.1065 40.2336 26.1667 40.4707C26.2597 40.8852 26.2849 41.312 26.2415 41.7345C26.185 42.0008 25.5211 42.174 25.098 42.3181C24.6028 42.5104 24.1383 42.7739 23.7193 43.1005C23.1128 43.5077 22.4064 43.741 21.6767 43.7753C20.9344 43.757 20.101 43.5181 19.9149 43.1917C19.6851 42.7905 19.5192 42.3236 20.628 41.8658C20.8377 41.7783 21.5764 41.3862 21.828 41.2421C22.5101 40.8573 22.9898 40.4998 23.3126 39.8013C23.3404 39.7141 23.3978 39.6393 23.4749 39.5898C23.5429 39.5637 23.6173 39.5586 23.6883 39.5752C24.0526 39.6204 24.4134 39.6911 24.7679 39.7868C24.9138 39.8561 25.1217 39.9363 25.1162 40.1132C25.1118 40.176 25.097 40.2376 25.0725 40.2956C25.0579 40.3321 25.0469 40.3795 25.0725 40.4014C25.098 40.4232 25.1472 40.4014 25.1764 40.3758C25.2862 40.2749 25.3874 40.1651 25.4792 40.0476C25.5326 39.9857 25.5939 39.9312 25.6615 39.8852C25.7217 39.8415 25.7983 39.8214 25.8439 39.774C25.8895 39.7266 25.9005 39.6317 25.9114 39.5479Z" fill="#3D9BD6"/>
<path d="M23.7232 43.1005C23.9183 42.9564 24.1244 42.816 24.3305 42.692C24.3305 42.692 23.0247 43.405 22.5067 43.0567C22.173 42.836 22.3371 42.5771 22.3462 42.4932C22.3554 42.4093 21.1754 41.8001 20.8489 41.7637C20.7578 41.8093 20.6812 41.8457 20.6319 41.8658C19.5231 42.3236 19.689 42.7904 19.9188 43.1917C20.1012 43.5181 20.7067 43.7789 21.666 43.7953C22.2842 43.8063 23.2563 43.4433 23.7232 43.1005Z" fill="#0066A6"/>
<path d="M22.4313 42.2489C21.742 42.4933 22.0338 42.6136 22.2234 42.6465C22.4131 42.6793 23.5785 42.0665 24.2897 41.5522C25.0302 41.0233 25.5025 40.4379 25.7779 40.2428C25.88 40.1698 25.9913 40.0805 26.0898 39.9966C26.0752 39.8561 26.0624 39.7266 26.0496 39.6592C26.0428 39.6254 26.0249 39.5949 25.9988 39.5725C25.9728 39.55 25.9399 39.5369 25.9056 39.5352C25.9056 39.619 25.9056 39.6956 25.8472 39.7577C25.7888 39.8197 25.7177 39.8251 25.6648 39.8689C25.5972 39.9148 25.5359 39.9694 25.4825 40.0312C25.3907 40.1488 25.2895 40.2586 25.1797 40.3595C24.5688 41.0726 23.1207 42.0118 22.4313 42.2489Z" fill="#0066A6"/>
<path d="M22.2752 42.5609C22.2907 42.5612 22.306 42.5568 22.319 42.5482C22.3257 42.5432 22.3314 42.5368 22.3357 42.5295C22.3399 42.5223 22.3426 42.5142 22.3436 42.5058C22.3447 42.4975 22.344 42.489 22.3416 42.4809C22.3393 42.4728 22.3353 42.4653 22.3299 42.4588C22.1475 42.2345 21.2356 41.6928 20.7286 41.7293C20.7195 41.7288 20.7103 41.7302 20.7018 41.7335C20.6933 41.7368 20.6855 41.7419 20.6791 41.7485C20.6728 41.7551 20.6679 41.763 20.6648 41.7716C20.6617 41.7802 20.6605 41.7894 20.6613 41.7985C20.6621 41.8077 20.6649 41.8165 20.6694 41.8245C20.6739 41.8325 20.6801 41.8394 20.6875 41.8447C20.6949 41.8501 20.7034 41.8538 20.7124 41.8556C20.7214 41.8574 20.7307 41.8572 20.7396 41.8551C21.2119 41.8168 22.0727 42.3512 22.2223 42.5299C22.228 42.5389 22.2358 42.5464 22.245 42.5518C22.2542 42.5572 22.2645 42.5603 22.2752 42.5609Z" fill="#04568A"/>
<path d="M22.8763 42.2268C22.892 42.2282 22.9076 42.2237 22.9201 42.214C22.9271 42.2092 22.933 42.2029 22.9374 42.1956C22.9418 42.1884 22.9446 42.1802 22.9456 42.1718C22.9467 42.1633 22.9459 42.1548 22.9434 42.1466C22.9409 42.1385 22.9366 42.131 22.931 42.1246C22.7486 41.9003 21.8368 41.3605 21.3298 41.3951C21.3127 41.3965 21.2968 41.4046 21.2856 41.4175C21.2743 41.4305 21.2686 41.4473 21.2696 41.4645C21.2705 41.473 21.2731 41.4813 21.2773 41.4889C21.2815 41.4964 21.2872 41.503 21.294 41.5083C21.3008 41.5136 21.3086 41.5174 21.317 41.5196C21.3253 41.5218 21.334 41.5223 21.3425 41.521C21.8131 41.4827 22.6739 42.0189 22.8252 42.1958C22.8306 42.2047 22.838 42.2122 22.8469 42.2176C22.8558 42.223 22.8659 42.2262 22.8763 42.2268Z" fill="#04568A"/>
<path d="M23.4806 41.9115C23.4957 41.9127 23.5106 41.9081 23.5225 41.8987C23.5295 41.8939 23.5354 41.8876 23.5398 41.8804C23.5442 41.8731 23.547 41.865 23.5481 41.8565C23.5491 41.8481 23.5483 41.8395 23.5458 41.8314C23.5433 41.8233 23.5391 41.8158 23.5334 41.8094C23.3511 41.5851 22.4392 41.0434 21.9322 41.0799C21.9231 41.0796 21.914 41.0812 21.9056 41.0847C21.8972 41.0882 21.8896 41.0934 21.8834 41.1001C21.8771 41.1067 21.8724 41.1146 21.8695 41.1233C21.8666 41.1319 21.8656 41.1411 21.8665 41.1501C21.8674 41.1592 21.8702 41.1679 21.8748 41.1758C21.8794 41.1837 21.8856 41.1905 21.8931 41.1958C21.9005 41.201 21.909 41.2046 21.9179 41.2064C21.9269 41.2081 21.9361 41.2079 21.945 41.2057C22.4173 41.1674 23.2781 41.7036 23.4277 41.8805C23.4333 41.8896 23.4411 41.8972 23.4503 41.9026C23.4595 41.908 23.4699 41.911 23.4806 41.9115Z" fill="#04568A"/>
<path d="M24.0402 41.5499C24.0554 41.5495 24.0701 41.5444 24.0822 41.5353C24.0892 41.5305 24.0951 41.5242 24.0995 41.5169C24.1039 41.5096 24.1067 41.5015 24.1077 41.4931C24.1088 41.4846 24.108 41.4761 24.1055 41.4679C24.103 41.4598 24.0987 41.4523 24.0931 41.4459C23.9107 41.2216 22.9989 40.6818 22.4919 40.7164C22.4748 40.7178 22.4589 40.7259 22.4477 40.7388C22.4364 40.7518 22.4307 40.7686 22.4317 40.7857C22.4326 40.7944 22.4352 40.8028 22.4394 40.8104C22.4435 40.818 22.4492 40.8247 22.456 40.8302C22.4628 40.8356 22.4706 40.8396 22.4789 40.842C22.4873 40.8444 22.496 40.8451 22.5046 40.8441C22.9752 40.804 23.8378 41.3402 23.9873 41.5171C23.9932 41.5261 24.001 41.5337 24.0101 41.5394C24.0193 41.5451 24.0295 41.5487 24.0402 41.5499Z" fill="#04568A"/>
<path d="M24.5877 41.1881C24.6027 41.1884 24.6174 41.1839 24.6297 41.1753C24.6368 41.1706 24.6429 41.1645 24.6475 41.1573C24.652 41.1501 24.655 41.142 24.6562 41.1335C24.6574 41.1251 24.6568 41.1165 24.6545 41.1083C24.6521 41.1001 24.648 41.0925 24.6425 41.086C24.3817 40.7668 23.4297 40.3127 22.9263 40.3565C22.9177 40.3569 22.9092 40.3591 22.9014 40.3628C22.8937 40.3666 22.8867 40.3718 22.8809 40.3782C22.8752 40.3847 22.8707 40.3922 22.8679 40.4003C22.865 40.4085 22.8638 40.4171 22.8643 40.4258C22.867 40.4432 22.8762 40.4589 22.8901 40.4697C22.904 40.4806 22.9215 40.4857 22.9391 40.4841C23.3932 40.4458 24.3032 40.8817 24.5349 41.1644C24.5414 41.172 24.5495 41.1781 24.5586 41.1822C24.5678 41.1863 24.5777 41.1883 24.5877 41.1881Z" fill="#04568A"/>
<path d="M30.8662 40.7484L30.288 38.6711L32.8413 38.2754L32.9562 40.2815C32.9562 40.2815 33.2279 41.0001 33.0729 41.2645C32.9179 41.5289 31.2181 41.828 31.0668 41.6548C30.9154 41.4815 30.8662 40.7484 30.8662 40.7484Z" fill="#FFA8A7"/>
<path d="M31.1288 45.2759C31.2127 45.9197 31.3532 46.3336 31.6359 46.6802C31.9185 47.0267 32.4164 47.0777 32.9125 46.899C33.4085 46.7203 34.0195 46.3336 34.1253 45.7555C34.2223 45.24 34.1891 44.7084 34.0286 44.209L31.1288 45.2759Z" fill="#04568A"/>
<path d="M32.9616 40.2853C33.1677 40.2725 33.1275 41.157 33.299 42.0124C33.4813 42.9242 33.8242 43.2744 33.9847 44.0276C34.1671 44.8848 34.1415 45.2842 33.8279 45.8605C33.5142 46.4368 32.3233 47.1261 31.6722 46.4495C31.1415 45.9024 31.0777 45.2149 31.0685 44.3322C31.0785 43.5869 31.0468 42.8417 30.9737 42.0999C30.8916 41.4488 30.6947 40.8707 30.8679 40.7741C30.888 40.8689 30.9081 40.9893 30.9281 41.0823C30.9482 41.1753 30.9865 41.5054 31.1014 41.4926C31.1053 41.4103 31.101 41.3278 31.0886 41.2464C31.0799 41.2087 31.0792 41.1696 31.0864 41.1317C31.0936 41.0937 31.1086 41.0576 31.1305 41.0257C31.2277 40.9477 31.3393 40.8895 31.4588 40.8543C31.6576 40.7905 32.0059 40.712 32.2175 40.6719C32.3178 40.65 32.4199 40.6318 32.5221 40.619C32.6085 40.6054 32.6965 40.6054 32.7829 40.619C32.8065 40.6216 32.8293 40.6296 32.8495 40.6422C32.8697 40.6548 32.8868 40.6718 32.8996 40.692C32.9113 40.7234 32.9169 40.7569 32.916 40.7905C32.9188 40.8529 32.9317 40.9145 32.9543 40.9728C32.9543 40.9984 32.9853 41.0257 33.0126 41.0166C33.0233 41.0114 33.032 41.0029 33.0376 40.9924C33.0431 40.982 33.0453 40.97 33.0436 40.9583C33.0436 40.8525 33.0181 40.7759 33.0035 40.6555C33.0035 40.599 32.9835 40.5242 32.978 40.4731C32.9725 40.4221 32.9707 40.3418 32.9616 40.2853Z" fill="#3D9BD6"/>
<path d="M33.9225 43.7822C33.9498 43.9062 34.1231 44.7269 33.8769 44.9129C33.6307 45.099 33.4136 44.4771 33.4136 44.4771C33.4136 44.4771 32.7516 44.3895 31.8251 44.8874C31.8835 45.0169 31.765 45.4838 31.4987 45.4254C31.2324 45.3671 31.0701 44.4205 31.0683 44.4078C31.0829 45.2522 31.1558 45.9124 31.672 46.4485C32.323 47.1251 33.5158 46.4376 33.8276 45.8595C34.1395 45.2813 34.1687 44.8838 33.9845 44.0266C33.9662 43.9391 33.9443 43.8588 33.9225 43.7822Z" fill="#0066A6"/>
<path d="M33.345 44.5428C33.3687 44.8601 33.7097 44.7051 33.7006 44.2546C33.6915 43.8042 33.345 42.7811 33.2994 42.0114C33.2264 40.9555 33.1681 40.2716 32.962 40.2844C32.962 40.2953 32.962 40.3062 32.962 40.3172L33.0167 40.7567C33.0167 40.8205 33.0367 40.8771 33.0404 40.9391C33.086 41.5847 33.1115 42.8394 33.2118 43.423C33.2788 43.7932 33.3232 44.1672 33.345 44.5428Z" fill="#0066A6"/>
<path d="M31.9298 44.8641C31.8194 44.5082 31.7311 44.1458 31.6653 43.779C31.5577 43.2027 31.1966 42.0519 31.0179 41.4318C30.9712 41.3197 30.9393 41.202 30.9231 41.0817C30.9048 40.9941 30.8848 40.8847 30.8665 40.7935V40.7734C30.7425 40.8464 30.7918 41.3461 30.8665 41.6051C30.9413 41.864 31.0216 42.1394 31.1091 42.5169C31.3316 43.2464 31.3681 44.3407 31.5103 44.7674C31.6526 45.1942 32.0228 45.1668 31.9298 44.8641Z" fill="#0066A6"/>
<path d="M31.8073 44.9152L31.8346 44.9042C32.3099 44.6337 32.8535 44.507 33.3994 44.5395C33.419 44.5415 33.4387 44.5366 33.455 44.5256C33.4713 44.5146 33.4833 44.4982 33.4887 44.4793C33.4906 44.4705 33.4905 44.4613 33.4885 44.4525C33.4865 44.4437 33.4825 44.4355 33.477 44.4283C33.4714 44.4212 33.4644 44.4154 33.4563 44.4113C33.4483 44.4072 33.4394 44.4049 33.4304 44.4045C32.8465 44.364 32.2638 44.498 31.7562 44.7893C31.7481 44.7937 31.741 44.7997 31.7352 44.8069C31.7295 44.8141 31.7254 44.8224 31.723 44.8313C31.7206 44.8401 31.72 44.8494 31.7213 44.8585C31.7227 44.8676 31.7258 44.8764 31.7307 44.8842C31.7386 44.8967 31.7503 44.9064 31.764 44.912C31.7777 44.9175 31.7929 44.9186 31.8073 44.9152Z" fill="#04568A"/>
<path d="M31.5944 44.2554L31.6181 44.2462C32.1569 43.9608 32.7613 43.8218 33.3707 43.8432C33.3903 43.8451 33.4099 43.8399 33.426 43.8285C33.4421 43.8171 33.4535 43.8003 33.4582 43.7812C33.4598 43.7722 33.4594 43.7629 33.4571 43.7541C33.4547 43.7453 33.4504 43.7371 33.4444 43.7301C33.4385 43.7231 33.4311 43.7175 33.4228 43.7138C33.4144 43.71 33.4054 43.7081 33.3962 43.7082C32.7522 43.6812 32.1128 43.828 31.5451 44.1332C31.5367 44.1372 31.5292 44.1429 31.5231 44.15C31.5171 44.157 31.5125 44.1653 31.5098 44.1742C31.507 44.1831 31.5062 44.1925 31.5072 44.2018C31.5083 44.211 31.5113 44.22 31.5159 44.228C31.5247 44.24 31.5369 44.249 31.5509 44.2539C31.5649 44.2588 31.5801 44.2593 31.5944 44.2554Z" fill="#04568A"/>
<path d="M33.2816 43.1936C33.2954 43.1903 33.3082 43.1836 33.3187 43.174C33.3293 43.1645 33.3372 43.1524 33.3418 43.1389C33.3442 43.1302 33.3447 43.1211 33.3433 43.1122C33.3419 43.1034 33.3385 43.0949 33.3335 43.0874C33.3284 43.08 33.3219 43.0737 33.3142 43.069C33.3064 43.0644 33.2978 43.0615 33.2889 43.0605C32.3551 42.9109 31.4761 43.4471 31.4396 43.4708C31.4313 43.475 31.424 43.4808 31.4181 43.488C31.4122 43.4952 31.4079 43.5035 31.4055 43.5125C31.4031 43.5214 31.4026 43.5308 31.4041 43.54C31.4056 43.5491 31.409 43.5579 31.4141 43.5656C31.427 43.5798 31.4444 43.5891 31.4634 43.5917C31.4824 43.5944 31.5017 43.5903 31.518 43.5802C31.518 43.5802 32.3807 43.0532 33.2488 43.1954C33.2597 43.1966 33.2708 43.196 33.2816 43.1936Z" fill="#04568A"/>
<path d="M33.1883 42.584C33.2024 42.5816 33.2156 42.5753 33.2265 42.566C33.2374 42.5567 33.2457 42.5447 33.2503 42.5311C33.2531 42.5225 33.2539 42.5134 33.2527 42.5044C33.2515 42.4954 33.2484 42.4867 33.2435 42.4791C33.2387 42.4714 33.2322 42.4649 33.2245 42.4601C33.2169 42.4552 33.2083 42.4521 33.1993 42.4509C32.5411 42.3524 31.8696 42.4984 31.3117 42.8612C31.3038 42.866 31.2969 42.8724 31.2916 42.88C31.2863 42.8876 31.2825 42.8961 31.2806 42.9052C31.2788 42.9143 31.2788 42.9236 31.2807 42.9327C31.2825 42.9418 31.2863 42.9503 31.2916 42.9579C31.3064 42.9704 31.3252 42.9772 31.3445 42.9772C31.3639 42.9772 31.3826 42.9704 31.3974 42.9579C31.9195 42.6259 32.543 42.4914 33.1555 42.5786C33.166 42.5823 33.1771 42.5841 33.1883 42.584Z" fill="#04568A"/>
<path d="M33.0841 41.9007C33.0976 41.898 33.1102 41.8918 33.1208 41.8829C33.1313 41.874 33.1394 41.8626 33.1443 41.8497C33.147 41.8412 33.1479 41.8322 33.1468 41.8233C33.1458 41.8144 33.1428 41.8059 33.1381 41.7982C33.1335 41.7906 33.1272 41.7841 33.1198 41.7791C33.1123 41.7741 33.1039 41.7708 33.0951 41.7694C32.1303 41.5871 31.2312 42.1743 31.1947 42.1998C31.1867 42.2043 31.1797 42.2104 31.1742 42.2177C31.1687 42.2251 31.1648 42.2335 31.1628 42.2424C31.1607 42.2513 31.1605 42.2606 31.1623 42.2696C31.164 42.2786 31.1676 42.2871 31.1728 42.2947C31.1856 42.3093 31.2034 42.3186 31.2227 42.3206C31.242 42.3227 31.2613 42.3173 31.2768 42.3056C31.2859 42.3056 32.154 41.7311 33.0495 41.9026C33.061 41.9047 33.0729 41.9041 33.0841 41.9007Z" fill="#04568A"/>
<path d="M31.4005 18.8159C31.8801 23.9078 32.1026 30.8891 32.1026 30.8891C32.1427 31.2757 32.4218 31.9341 32.637 33.8417C32.8649 35.8478 32.8722 38.6983 32.8722 38.6983C32.8722 38.6983 31.5318 39.4771 30.412 39.116C30.412 39.116 29.2995 34.6587 28.6868 32.2952C28.1086 30.0556 27.2916 26.6416 27.2916 26.6416L26.6879 30.0301C26.6879 30.0301 26.7882 31.4891 26.7645 32.5013C26.7372 33.6849 26.0752 38.2223 26.0752 38.2223C26.0752 38.2223 24.7548 39.1105 23.5839 38.2223C23.5839 38.2223 23.2356 31.5894 23.1772 30.1669C23.066 27.3765 23.086 21.96 23.1225 18.3545L31.4005 18.8159Z" fill="#3A4349"/>
<path opacity="0.3" d="M31.4005 18.8159C31.8801 23.9078 32.1026 30.8891 32.1026 30.8891C32.1427 31.2757 32.4218 31.9341 32.637 33.8417C32.8649 35.8478 32.8722 38.6983 32.8722 38.6983C32.8722 38.6983 31.5318 39.4771 30.412 39.116C30.412 39.116 29.2995 34.6587 28.6868 32.2952C28.1086 30.0556 27.2916 26.6416 27.2916 26.6416L26.6879 30.0301C26.6879 30.0301 26.7882 31.4891 26.7645 32.5013C26.7372 33.6849 26.0752 38.2223 26.0752 38.2223C26.0752 38.2223 24.7548 39.1105 23.5839 38.2223C23.5839 38.2223 23.2356 31.5894 23.1772 30.1669C23.066 27.3765 23.086 21.96 23.1225 18.3545L31.4005 18.8159Z" fill="black"/>
<path opacity="0.2" d="M27.2915 26.6445L26.655 23.0262C26.655 23.0262 25.3036 22.8438 24.6015 22.2256C24.6015 22.2256 25.0611 23.059 26.3395 23.3654L26.9669 26.6591L26.6879 30.0294L27.2915 26.6445Z" fill="black"/>
<path d="M32.9038 38.7549C32.6303 39.1397 31.3974 39.5409 30.3962 39.2108L30.2138 38.4303C30.9707 38.66 32.2746 38.4065 32.8801 37.9014L32.9038 38.7549Z" fill="#3A4349"/>
<path d="M26.0834 38.3497C25.7497 38.6798 24.4986 38.8604 23.5666 38.3588L23.5156 37.5564C24.2214 37.9211 25.5107 37.9211 26.1928 37.5254L26.0834 38.3497Z" fill="#3A4349"/>
<path d="M18.7315 15.5181C19.2111 15.487 21.7534 15.2226 21.7534 15.2226L22.4173 17.422C21.0458 17.3454 19.864 17.4366 18.5965 17.422C18.2365 17.4186 17.8769 17.4485 17.5224 17.5114C17.2543 17.5552 16.647 17.7029 16.3789 17.7175C15.0421 17.7886 14.7886 17.6847 14.2323 17.0536C14.1507 17.0238 14.0835 16.9641 14.0442 16.8866C14.0049 16.809 13.9965 16.7195 14.0208 16.636C13.8384 16.4226 14.039 16.1928 14.3855 16.1454C14.732 16.098 15.3503 16.0196 15.8299 15.932C16.067 15.8956 16.2603 15.8062 15.8992 15.7278C15.5381 15.6494 15.0311 15.5691 15.1023 15.0949C15.105 15.0755 15.1149 15.0577 15.1301 15.0452C15.1453 15.0327 15.1647 15.0264 15.1843 15.0275C16.1126 15.0986 16.6707 15.0895 17.3509 15.3576C17.8981 15.5709 18.1424 15.5545 18.7315 15.5181Z" fill="#FFA8A7"/>
<path d="M21.7677 15.1538C21.7677 15.1538 22.4462 11.7106 22.6176 10.8808C22.789 10.051 22.9477 9.09718 24.4742 8.70508L25.5556 11.8474C25.5556 11.8474 24.5909 14.8401 24.1058 16.2134C23.7538 17.2092 23.783 17.4463 22.9404 17.459C22.0978 17.4718 20.1902 17.4007 20.1902 17.4007C20.2741 16.6475 20.1719 15.7228 19.8856 15.4092L21.7677 15.1538Z" fill="#0066A6"/>
<path d="M12.1328 19.0088L17.8083 15.7334L23.4838 19.0088L17.8083 22.2861L12.1328 19.0088Z" fill="black"/>
<path d="M17.8086 15.7333V9.24805L12 12.6019L17.6044 15.85L17.8086 15.7333Z" fill="#0066A6"/>
<path d="M17.8085 9.24805V15.7333L18.011 15.85L23.6153 12.6019L17.8085 9.24805Z" fill="#04568A"/>
<path d="M12 12.6016V18.9318L17.8086 22.2856V15.9664L12 12.6016Z" fill="#EC805E"/>
<path d="M17.8085 15.9664V22.2856L23.6153 18.9318V12.6016L17.8085 15.9664Z" fill="#DA7D5F"/>
<path d="M17.8086 15.9658L17.9399 22.0425L22.8056 19.3999L17.8086 22.2851V15.9658Z" fill="black"/>
<path d="M18.6164 20.2518C18.5921 20.2523 18.5681 20.246 18.5471 20.2336C18.5185 20.213 18.4957 20.1854 18.4807 20.1535C18.4657 20.1216 18.4591 20.0864 18.4614 20.0512V19.4913V19.4494H18.4906L18.9283 19.1904V19.8178C18.9276 19.8981 18.9077 19.9771 18.8703 20.0482C18.8328 20.1193 18.7789 20.1803 18.7131 20.2263C18.6839 20.2437 18.6504 20.2525 18.6164 20.2518ZM18.5325 19.5224V20.0403C18.5294 20.0643 18.5322 20.0887 18.5408 20.1113C18.5494 20.1339 18.5635 20.154 18.5818 20.1698C18.5975 20.1763 18.6146 20.1787 18.6315 20.1768C18.6484 20.1749 18.6646 20.1687 18.6784 20.1588C18.7335 20.1186 18.7786 20.0663 18.8102 20.0059C18.8418 19.9455 18.8591 19.8787 18.8608 19.8105V19.7649H18.6985L18.6657 19.5461L18.5325 19.5224ZM18.7568 19.6956H18.859V19.309L18.5964 19.4622L18.7258 19.4859L18.7568 19.6956Z" fill="#E0E0E0"/>
<path d="M18.6878 20.6992C18.6787 20.6987 18.6702 20.6949 18.6638 20.6885C18.6574 20.6821 18.6536 20.6736 18.6531 20.6645V20.194C18.6519 20.1887 18.6519 20.1831 18.6531 20.1778C18.6544 20.1724 18.6568 20.1674 18.6602 20.1631C18.6636 20.1589 18.6679 20.1554 18.6729 20.153C18.6778 20.1506 18.6832 20.1494 18.6887 20.1494C18.6942 20.1494 18.6996 20.1506 18.7045 20.153C18.7095 20.1554 18.7138 20.1589 18.7172 20.1631C18.7206 20.1674 18.723 20.1724 18.7243 20.1778C18.7255 20.1831 18.7255 20.1887 18.7243 20.194V20.6645C18.7238 20.6739 18.7197 20.6827 18.713 20.6891C18.7062 20.6956 18.6972 20.6992 18.6878 20.6992Z" fill="#E0E0E0"/>
<path d="M18.4835 20.8181C18.4772 20.8177 18.4712 20.8159 18.4658 20.8127C18.4604 20.8095 18.4559 20.8051 18.4525 20.7999C18.4503 20.7958 18.4489 20.7914 18.4484 20.7868C18.448 20.7822 18.4484 20.7775 18.4498 20.7731C18.4511 20.7687 18.4534 20.7646 18.4563 20.7611C18.4593 20.7575 18.4629 20.7546 18.4671 20.7525L18.8756 20.5154C18.8795 20.5131 18.8839 20.5116 18.8884 20.511C18.8929 20.5104 18.8975 20.5107 18.9019 20.5119C18.9063 20.5131 18.9105 20.5152 18.9141 20.518C18.9177 20.5207 18.9207 20.5242 18.923 20.5282C18.9273 20.5365 18.9283 20.5461 18.926 20.5552C18.9236 20.5643 18.918 20.5722 18.9102 20.5774L18.5017 20.8127C18.4964 20.8164 18.49 20.8183 18.4835 20.8181Z" fill="#E0E0E0"/>
<path d="M19.9409 20.0001C19.9276 20.001 19.9142 19.9978 19.9026 19.9909C19.8886 19.9822 19.8772 19.9697 19.8698 19.9549C19.8624 19.9401 19.8592 19.9235 19.8607 19.907V19.8177C19.8607 19.8085 19.8644 19.7997 19.8708 19.7932C19.8773 19.7867 19.8862 19.783 19.8954 19.783C19.9045 19.783 19.9134 19.7867 19.9199 19.7932C19.9264 19.7997 19.93 19.8085 19.93 19.8177V19.9143C19.93 19.9289 19.93 19.9362 19.93 19.938C19.9378 19.9401 19.9459 19.9401 19.9537 19.938C19.9752 19.9178 19.992 19.8931 20.003 19.8657C20.0141 19.8383 20.019 19.8089 20.0175 19.7794V19.1538C20.0175 19.1491 20.0185 19.1445 20.0203 19.1401C20.0222 19.1358 20.0249 19.1319 20.0283 19.1287C20.0317 19.1254 20.0358 19.1229 20.0402 19.1213C20.0446 19.1197 20.0493 19.1189 20.054 19.1192C20.0632 19.1192 20.072 19.1228 20.0785 19.1293C20.085 19.1358 20.0887 19.1447 20.0887 19.1538V19.7794C20.0906 19.8212 20.0825 19.8629 20.0651 19.901C20.0476 19.9391 20.0213 19.9724 19.9884 19.9982C19.9729 20.0024 19.9567 20.003 19.9409 20.0001Z" fill="#E0E0E0"/>
<path d="M19.5703 19.4534V19.3914C19.5785 19.2354 19.6234 19.0836 19.7014 18.9483C19.7794 18.813 19.8882 18.698 20.019 18.6127C20.0655 18.5723 20.1235 18.5474 20.1849 18.5414C20.2463 18.5355 20.3079 18.5487 20.3614 18.5794C20.4149 18.61 20.4576 18.6566 20.4834 18.7125C20.5093 18.7685 20.5172 18.8311 20.5059 18.8917V18.9118L19.5703 19.4534ZM20.2305 18.6181C20.1659 18.6194 20.1028 18.6383 20.0481 18.6728C19.9361 18.746 19.8412 18.8426 19.7701 18.9559C19.6989 19.0693 19.6532 19.1967 19.636 19.3294L20.4275 18.8716C20.4306 18.8272 20.4221 18.7826 20.4029 18.7424C20.3838 18.7021 20.3545 18.6675 20.318 18.6418C20.2907 18.6292 20.2606 18.6236 20.2305 18.6254V18.6181Z" fill="#E0E0E0"/>
<path d="M21.2046 19.2861C21.2 19.2863 21.1954 19.2856 21.1911 19.284C21.1867 19.2823 21.1828 19.2798 21.1795 19.2765C21.1763 19.2732 21.1737 19.2693 21.1721 19.265C21.1704 19.2606 21.1697 19.256 21.17 19.2514V18.0532C21.17 18.044 21.1736 18.0352 21.1801 18.0287C21.1866 18.0222 21.1954 18.0186 21.2046 18.0186C21.2138 18.0186 21.2226 18.0222 21.2291 18.0287C21.2356 18.0352 21.2393 18.044 21.2393 18.0532V19.2514C21.2395 19.256 21.2388 19.2606 21.2372 19.265C21.2355 19.2693 21.233 19.2732 21.2297 19.2765C21.2264 19.2798 21.2225 19.2823 21.2182 19.284C21.2139 19.2856 21.2092 19.2863 21.2046 19.2861Z" fill="#E0E0E0"/>
<path d="M21.1021 18.3268H21.0875C21.0833 18.325 21.0795 18.3224 21.0763 18.3191C21.0731 18.3159 21.0706 18.312 21.0689 18.3078C21.0672 18.3035 21.0663 18.299 21.0664 18.2944C21.0665 18.2899 21.0674 18.2854 21.0692 18.2812L21.1951 17.9912L21.3337 18.1535C21.3397 18.1605 21.3427 18.1697 21.3421 18.1789C21.3414 18.1881 21.337 18.1967 21.33 18.2028C21.323 18.2088 21.3139 18.2118 21.3047 18.2111C21.2954 18.2105 21.2868 18.2061 21.2808 18.1991L21.2151 18.1225L21.1331 18.3049C21.1308 18.3113 21.1266 18.3169 21.121 18.3208C21.1155 18.3247 21.1089 18.3268 21.1021 18.3268Z" fill="#E0E0E0"/>
<path d="M21.5345 19.1014C21.5248 19.1014 21.5155 19.0975 21.5087 19.0907C21.5018 19.0838 21.498 19.0746 21.498 19.0649V17.8667C21.4985 17.8573 21.5025 17.8485 21.5093 17.8421C21.5161 17.8356 21.5251 17.832 21.5345 17.832C21.5435 17.8325 21.5521 17.8363 21.5585 17.8427C21.5649 17.8491 21.5687 17.8576 21.5691 17.8667V19.0649C21.5691 19.0742 21.5655 19.0833 21.5591 19.09C21.5526 19.0968 21.5438 19.1009 21.5345 19.1014Z" fill="#E0E0E0"/>
<path d="M21.4269 18.1401H21.4123C21.404 18.1358 21.3975 18.1286 21.3942 18.1199C21.3908 18.1111 21.3908 18.1015 21.394 18.0927L21.5199 17.8027L21.6603 17.965C21.6635 17.9683 21.6661 17.9721 21.6679 17.9763C21.6697 17.9806 21.6706 17.9851 21.6706 17.9897C21.6706 17.9942 21.6697 17.9988 21.6679 18.003C21.6661 18.0072 21.6635 18.0111 21.6603 18.0143C21.6535 18.021 21.6443 18.0247 21.6348 18.0247C21.6252 18.0247 21.616 18.021 21.6092 18.0143L21.5436 17.9377L21.4633 18.1201C21.46 18.1267 21.4548 18.1322 21.4482 18.1358C21.4417 18.1394 21.4343 18.1409 21.4269 18.1401Z" fill="#E0E0E0"/>
<path d="M13.4356 17.0945L15.2594 18.1504C15.2835 18.1662 15.3035 18.1875 15.3177 18.2126C15.332 18.2376 15.3401 18.2657 15.3414 18.2945V19.5711C15.3414 19.6751 15.2667 19.7188 15.1773 19.6659L13.3536 18.61C13.3295 18.5942 13.3095 18.5729 13.2952 18.5478C13.2809 18.5228 13.2728 18.4947 13.2715 18.4659V17.1893C13.2715 17.0817 13.3444 17.0416 13.4356 17.0945Z" fill="#FAFAFA"/>
<path d="M13.3896 17.2939L13.4517 17.3286V18.4502L13.3896 18.4155V17.2939Z" fill="black"/>
<path d="M13.6436 17.4395L13.7512 17.5015V18.6249L13.6436 18.5611V17.4395Z" fill="black"/>
<path d="M13.8965 17.5859L13.9585 17.6224V18.744L13.8965 18.7075V17.5859Z" fill="black"/>
<path d="M14.0879 17.6934L14.2119 17.7681V18.8897L14.0879 18.815V17.6934Z" fill="black"/>
<path d="M14.4042 17.877L14.4662 17.9134V19.035L14.4023 18.9986L14.4042 17.877Z" fill="black"/>
<path d="M14.5861 17.9814L14.7193 18.0599V19.1815L14.5861 19.103V17.9814Z" fill="black"/>
<path d="M14.9089 18.1709L14.9709 18.2055V19.3271L14.9089 19.2925V18.1709Z" fill="black"/>
<path d="M15.0547 18.2529L15.0857 18.2693V19.3928L15.0547 19.3745V18.2529Z" fill="black"/>
<path d="M14.7939 18.1094L14.8249 18.1276V19.2492L14.7939 19.231V18.1094Z" fill="black"/>
<path d="M14.2832 17.8096L14.3142 17.8278V18.9494L14.2832 18.9312V17.8096Z" fill="black"/>
<path d="M14.0039 17.6494L14.0349 17.6677V18.7893L14.0039 18.771V17.6494Z" fill="black"/>
<path d="M13.8037 17.5381L13.8347 17.5563V18.6779L13.8037 18.6615V17.5381Z" fill="black"/>
<path d="M13.532 17.374L13.563 17.3923V18.5139L13.532 18.4956V17.374Z" fill="black"/>
<path d="M15.1621 18.3174L15.2241 18.352V19.4755L15.1621 19.439V18.3174Z" fill="black"/>
<path d="M17.8086 9.24707L12 12.6009L17.8086 15.9657L23.6154 12.6009L17.8086 9.24707Z" fill="#FFA285"/>
<path opacity="0.1" d="M12 12.6016L17.8086 15.7256L23.6154 12.6016L17.8086 15.9664L12 12.6016Z" fill="white"/>
<path d="M14.5801 11.111L20.3942 14.4667C20.7973 14.2338 21.0233 14.1032 21.4264 13.8703L15.6141 10.5146L14.5801 11.111Z" fill="#3A4349"/>
<path d="M21.4268 13.8701V15.1814L21.3028 15.1103L21.1714 15.3346L21.042 15.258L20.9125 15.4841L20.783 15.4075L20.6535 15.6319L20.524 15.5589L20.3945 15.7814V14.4665L21.4268 13.8701Z" fill="#3A4349"/>
<path opacity="0.25" d="M21.4268 13.8701V15.1814L21.3028 15.1103L21.1714 15.3346L21.042 15.258L20.9125 15.4841L20.783 15.4075L20.6535 15.6319L20.524 15.5589L20.3945 15.7814V14.4665L21.4268 13.8701Z" fill="black"/>
<path d="M29.0807 8.28125C29.595 8.38703 30.2461 8.52016 30.9045 8.70071C31.4901 8.83399 32.0556 9.04434 32.5859 9.32625C32.5624 10.9228 32.3958 12.514 32.0881 14.0807C31.975 14.6005 31.5975 16.0394 31.5409 17.141C31.4586 18.2872 31.4898 19.4387 31.6339 20.5787C31.6339 20.5787 29.936 21.8389 26.3068 21.5654C23.4581 21.352 23.0879 20.3034 23.0879 20.3034C23.0879 20.3034 23.1408 15.5616 23.2137 13.4534C23.3122 10.6941 23.8739 9.1913 24.4903 8.71165L26.6332 8.31225L29.0807 8.28125Z" fill="#3D9BD6"/>
<path d="M29.7629 2.60449C29.7629 2.60449 30.1897 2.63732 30.4687 3.1735C30.6073 3.44342 30.7095 3.934 30.3246 5.3401C30.1779 5.88803 29.9505 6.41109 29.6499 6.89211C29.5612 7.04717 29.4162 7.16211 29.245 7.21309L29.2742 6.13343L29.3143 5.38023C29.3143 5.38023 28.707 4.8331 28.6541 4.28598C28.6 3.9087 28.6718 3.52409 28.8584 3.19174L29.7629 2.60449Z" fill="#1E1F20"/>
<path d="M29.911 2.64082C29.8052 2.03351 29.0356 1.30949 27.5493 1.22924C26.3328 1.16359 25.6508 1.59399 25.1966 2.29248C24.6915 3.05845 25.0526 3.92291 25.0526 3.92291L28.8824 3.67305L29.911 2.64082Z" fill="#1E1F20"/>
<path d="M30.2611 6.44936C29.7012 6.7211 29.4459 6.27976 29.4459 6.27976L29.362 8.51019C28.2878 9.94912 25.4191 9.42206 26.5954 8.35153V7.84453C26.4328 7.8403 26.2707 7.82446 26.1103 7.79711C25.616 7.71869 25.3042 7.32476 25.1565 6.78676C24.8942 5.66323 24.8942 4.49441 25.1565 3.37089C25.2148 3.11009 25.3261 2.82376 25.5668 2.70704C26.1613 2.4116 26.7121 2.83653 27.5401 3.15933C27.883 3.29247 28.7146 3.35265 28.9353 3.2487C28.6453 3.56785 28.6489 4.57638 29.0739 4.98672C29.1273 5.09147 29.1997 5.18544 29.2872 5.26393C29.4696 5.42077 29.6173 5.01408 29.7687 4.85541C29.8427 4.79306 29.9302 4.74879 30.0243 4.72611C30.1184 4.70342 30.2165 4.70294 30.3108 4.7247C30.4051 4.74646 30.493 4.78987 30.5677 4.85149C30.6423 4.91311 30.7016 4.99125 30.7408 5.07973C30.8006 5.20091 30.8357 5.3328 30.8439 5.4677C30.8521 5.60259 30.8334 5.73777 30.7887 5.86532C30.744 5.99287 30.6744 6.11023 30.5838 6.21052C30.4932 6.3108 30.3835 6.392 30.2611 6.44936Z" fill="#FFA8A7"/>
<path d="M26.5973 7.8403C27.1449 7.85696 27.6911 7.7748 28.2095 7.59774C28.5925 7.43543 28.939 6.91566 29.0448 6.40137C29.0448 6.81536 28.8624 7.55032 28.2807 7.86036C27.6989 8.1704 27.0223 8.18134 26.5955 8.19046L26.5973 7.8403Z" fill="#F28F8F"/>
<path d="M27.3817 4.11525L27.9744 4.1809C27.9821 4.1006 27.9583 4.02044 27.9079 3.95744C27.8575 3.89445 27.7845 3.85358 27.7045 3.84351C27.6652 3.83924 27.6256 3.84297 27.5879 3.85446C27.5501 3.86595 27.5151 3.88496 27.485 3.91036C27.4548 3.93576 27.4301 3.96701 27.4123 4.00223C27.3946 4.03744 27.3841 4.07589 27.3817 4.11525Z" fill="#303131"/>
<path d="M25.4799 3.97039L26.038 3.74789C26.026 3.71017 26.0064 3.67531 25.9804 3.64546C25.9544 3.6156 25.9225 3.59138 25.8868 3.5743C25.8511 3.55721 25.8123 3.54762 25.7727 3.54611C25.7332 3.5446 25.6937 3.5512 25.6568 3.56552C25.5805 3.59678 25.5193 3.65653 25.4863 3.73211C25.4533 3.80768 25.451 3.89315 25.4799 3.97039Z" fill="#303131"/>
<path d="M27.8704 4.67958C27.8686 4.7275 27.8526 4.7738 27.8245 4.81264C27.7963 4.85147 27.7573 4.88109 27.7123 4.89775C27.6673 4.91441 27.6184 4.91736 27.5718 4.90623C27.5251 4.89511 27.4828 4.87041 27.4502 4.83524C27.4176 4.80008 27.3961 4.75604 27.3886 4.70868C27.381 4.66133 27.3876 4.61279 27.4076 4.56919C27.4276 4.5256 27.46 4.48891 27.5009 4.46376C27.5417 4.43861 27.5891 4.42613 27.637 4.4279C27.7012 4.43075 27.7617 4.45875 27.8053 4.50585C27.849 4.55295 27.8724 4.61536 27.8704 4.67958Z" fill="#222323"/>
<path d="M25.9457 4.57543C25.9439 4.62335 25.9279 4.66966 25.8997 4.70849C25.8716 4.74732 25.8325 4.77694 25.7876 4.7936C25.7426 4.81026 25.6937 4.81321 25.647 4.80209C25.6004 4.79096 25.5581 4.76626 25.5255 4.7311C25.4929 4.69593 25.4714 4.65189 25.4638 4.60454C25.4562 4.55719 25.4628 4.50864 25.4828 4.46505C25.5028 4.42145 25.5353 4.38476 25.5761 4.35961C25.617 4.33446 25.6643 4.32199 25.7123 4.32375C25.7451 4.32151 25.778 4.32665 25.8086 4.33877C25.8392 4.3509 25.8667 4.36972 25.8891 4.39385C25.9115 4.41798 25.9282 4.44681 25.938 4.47823C25.9477 4.50964 25.9504 4.54286 25.9457 4.57543Z" fill="#222323"/>
<path d="M26.8873 4.18164L26.6867 5.73L25.8697 5.42726C26.1108 4.94072 26.4587 4.51492 26.8873 4.18164Z" fill="#F28F8F"/>
<path d="M27.3047 6.0752L26.6736 6.2831C26.6855 6.32536 26.7058 6.3648 26.7332 6.39909C26.7606 6.43339 26.7946 6.46183 26.8332 6.48275C26.8718 6.50366 26.9142 6.51662 26.9579 6.52086C27.0016 6.5251 27.0457 6.52053 27.0876 6.50742C27.1727 6.4775 27.2429 6.41573 27.2834 6.33512C27.3239 6.2545 27.3315 6.16132 27.3047 6.0752Z" fill="#B16668"/>
<path d="M27.2396 6.18758C27.2663 6.18487 27.2932 6.18487 27.3199 6.18758C27.3216 6.23253 27.3142 6.27736 27.2979 6.3193C27.2816 6.36123 27.2569 6.39937 27.2252 6.43135C27.1936 6.46333 27.1557 6.48846 27.114 6.5052C27.0722 6.52193 27.0274 6.5299 26.9825 6.52862C26.973 6.44956 26.9945 6.3699 27.0424 6.30633C27.0903 6.24276 27.161 6.2002 27.2396 6.18758Z" fill="#F28F8F"/>
<path d="M24.1565 15.9319L24.3389 15.7623C24.366 15.7423 24.3977 15.7291 24.431 15.7241C24.4644 15.719 24.4985 15.7221 24.5304 15.7331L26.9176 16.2802C27.0206 16.3105 27.1158 16.3625 27.197 16.4326C27.2781 16.5028 27.3433 16.5895 27.3882 16.6869L29.0113 20.836C29.0316 20.8691 29.0407 20.9078 29.0375 20.9465C29.0342 20.9853 29.0186 21.0219 28.9931 21.0512L28.8107 21.2244C28.7834 21.2449 28.7516 21.2585 28.7179 21.2639C28.6842 21.2693 28.6497 21.2664 28.6174 21.2554L26.2319 20.7083C26.1289 20.6783 26.0335 20.6265 25.9523 20.5563C25.871 20.4861 25.8059 20.3993 25.7614 20.3016C25.4422 19.4882 24.4574 16.9769 24.1401 16.1654C24.115 16.1307 24.1029 16.0883 24.1059 16.0457C24.1089 16.003 24.1268 15.9627 24.1565 15.9319Z" fill="#3D9BD6"/>
<path d="M26.954 16.5674C27.0616 16.6431 27.1466 16.7464 27.2002 16.8665L28.8288 21.0027C28.8469 21.0355 28.8555 21.0727 28.8536 21.1101C28.8516 21.1475 28.8393 21.1835 28.8179 21.2143L29.0003 21.052C29.0258 21.0227 29.0414 20.9861 29.0447 20.9474C29.048 20.9086 29.0388 20.8699 29.0185 20.8368L27.3972 16.6987C27.3463 16.5868 27.2678 16.4895 27.1692 16.416L26.954 16.5674Z" fill="#2E2E2E"/>
<path d="M28.8285 21.0029L27.2072 16.8667C27.1626 16.7687 27.0973 16.6817 27.0157 16.6115C26.9342 16.5413 26.8383 16.4896 26.7349 16.46L24.3494 15.9128C24.1671 15.8691 24.0649 15.9803 24.1361 16.1627C24.4534 16.9743 25.4382 19.4855 25.7574 20.2989C25.8019 20.3966 25.867 20.4835 25.9482 20.5537C26.0294 20.6239 26.1248 20.6757 26.2279 20.7056L28.6133 21.2528C28.7957 21.2965 28.8924 21.1853 28.8285 21.0029Z" fill="#3D3D3D"/>
<path d="M27.2334 17.746L26.9288 16.9727C26.9208 16.9542 26.9088 16.9378 26.8937 16.9245C26.8786 16.9113 26.8606 16.9016 26.8413 16.8961L26.4583 16.8086C26.4236 16.8086 26.4054 16.8214 26.4181 16.8542L26.7227 17.6293C26.7313 17.6474 26.7435 17.6635 26.7585 17.6767C26.7736 17.6899 26.7912 17.6998 26.8102 17.7059L27.1932 17.7934C27.2279 17.8098 27.2461 17.7806 27.2334 17.746Z" fill="#838383"/>
<path d="M26.9176 17.1605C26.8946 17.1164 26.8628 17.0775 26.8242 17.0461C26.7857 17.0148 26.7411 16.9916 26.6933 16.9781C26.6021 16.958 26.5546 17.0073 26.5857 17.0894C26.6086 17.1334 26.6404 17.1724 26.679 17.2037C26.7175 17.2351 26.7621 17.2582 26.81 17.2717C26.903 17.2918 26.9504 17.2425 26.9176 17.1605Z" fill="#04568A"/>
<path d="M27.0651 17.5508C27.0434 17.5059 27.012 17.4662 26.9732 17.4347C26.9345 17.4032 26.8893 17.3806 26.8408 17.3685C26.7496 17.3466 26.7022 17.3958 26.735 17.4797C26.7568 17.5247 26.7881 17.5643 26.8269 17.5959C26.8657 17.6274 26.9109 17.65 26.9593 17.6621C27.0505 17.684 27.0979 17.6274 27.0651 17.5508Z" fill="#04568A"/>
<path d="M27.981 18.2309L28.0795 18.4844C27.7208 18.5774 27.3546 18.6384 26.9852 18.6668C26.8594 18.6668 26.3888 18.4461 26.0059 18.3476C25.6229 18.2492 25.3767 18.4771 25.5736 18.6303C25.6787 18.7161 25.7903 18.7935 25.9074 18.8619C25.7469 19.0224 25.6356 19.172 25.9603 19.4455C25.9306 19.5295 25.9278 19.6207 25.9523 19.7063C25.9768 19.7919 26.0274 19.8678 26.097 19.9233C26.4189 20.2069 26.784 20.4372 27.1785 20.6054C27.3883 20.6875 28.4843 20.6164 28.5773 20.5653C28.8691 20.3921 29.1476 20.1977 29.4108 19.9835C29.7583 19.7411 30.1299 19.5352 30.5196 19.3689C30.8534 19.2577 33.8279 18.0285 34.3495 17.7604C34.8711 17.4923 35.7227 16.9178 35.0115 16.3579C34.3002 15.798 33.206 15.4643 32.3488 16.0187C31.7269 16.4199 30.1603 17.2953 29.4527 17.7075C29.2654 17.83 29.0386 17.8769 28.8181 17.8388C28.489 17.8088 28.1576 17.8137 27.8296 17.8534L27.981 18.2309Z" fill="#FFA8A7"/>
<path d="M31.6847 8.9834C33.0452 9.37368 33.4574 9.61624 33.7364 10.353C34.1887 11.5512 35.2264 15.6528 35.2829 16.7234C35.3121 17.2504 32.7716 17.338 32.7716 17.338L32.3485 16.0139C32.3485 16.0139 31.4713 13.0212 31.2725 12.3883C31.0464 11.6734 30.7856 9.67642 31.6847 8.9834Z" fill="#FFA8A7"/>
<path d="M25.9111 18.8564C26.068 18.9458 26.2175 19.0388 26.3671 19.1391C26.4437 19.1865 26.5166 19.2376 26.5914 19.2868C26.6209 19.3115 26.6571 19.3268 26.6953 19.3306C26.7373 19.3306 26.7792 19.3416 26.823 19.3452C27.175 19.3707 27.5324 19.3707 27.8881 19.3999C27.7057 19.4182 27.5324 19.4273 27.3537 19.4327C27.1749 19.4388 26.996 19.4358 26.8175 19.4236C26.7717 19.4209 26.726 19.4154 26.6808 19.4072C26.6549 19.4034 26.6298 19.3961 26.606 19.3853C26.5841 19.3739 26.5634 19.3604 26.544 19.3452C26.4728 19.2923 26.3999 19.2413 26.3306 19.1865C26.1829 19.0862 26.0424 18.9732 25.9111 18.8564Z" fill="#F28F8F"/>
<path d="M25.959 19.4404C26.1067 19.5407 26.2526 19.641 26.404 19.7341C26.4806 19.7796 26.5553 19.8271 26.6319 19.8708C26.6702 19.8909 26.7085 19.9164 26.7468 19.9347C26.7845 19.948 26.8237 19.9565 26.8636 19.9602C27.035 19.9839 27.2137 19.9876 27.3906 19.9967C27.5675 20.0058 27.7554 20.0094 27.925 20.0295C27.5686 20.0654 27.2096 20.0684 26.8526 20.0386C26.8037 20.0343 26.7558 20.0226 26.7104 20.004C26.6684 19.9821 26.6319 19.9584 26.5936 19.9347C26.517 19.8872 26.4423 19.838 26.3693 19.7851C26.224 19.6808 26.0869 19.5655 25.959 19.4404Z" fill="#F28F8F"/>
<path d="M26.3828 20.1494C26.505 20.1987 26.6217 20.2515 26.7476 20.2935C26.8656 20.3363 26.9879 20.3662 27.1123 20.3829C27.2392 20.3929 27.3666 20.3929 27.4935 20.3829C27.624 20.3789 27.7546 20.3869 27.8838 20.4066L27.4971 20.4503C27.3663 20.4668 27.234 20.4668 27.1032 20.4503C26.8424 20.4094 26.5952 20.3062 26.3828 20.1494Z" fill="#F28F8F"/>
<path d="M31.6506 8.91895C32.3709 9.13415 33.1716 9.31834 33.4852 9.73416C33.7989 10.15 33.9995 10.7026 34.4372 12.4242C34.8749 14.1458 35.3345 15.7853 35.3491 16.5823C35.3637 17.3793 35.1831 17.4012 34.3661 17.8334C33.5491 18.2656 31.8731 18.82 31.8731 18.82C31.8731 18.82 31.9442 17.4395 30.6895 16.9963L32.2852 16.0206C32.2852 16.0206 31.3405 12.9822 31.1764 12.5008C31.0123 12.0193 30.5946 9.52807 31.6506 8.91895Z" fill="#0066A6"/>
<path d="M32.2939 16.0128C32.717 15.7666 33.2058 15.4511 33.7529 15.5314C33.4137 15.2961 32.6824 15.3837 32.2009 15.7283L32.2939 16.0128Z" fill="#04568A"/>
<path d="M25.2314 2.81402H25.2496C26.3439 2.66994 27.6296 3.00551 28.6527 3.6347L28.753 3.69671L28.7786 3.71677C29.2202 3.9936 29.6113 4.34395 29.9348 4.75265C30.0236 4.72043 30.118 4.70704 30.2122 4.71332C30.3064 4.7196 30.3983 4.74542 30.4819 4.78913C30.502 4.7253 30.5677 4.45356 30.5768 4.40249C30.75 3.39579 30.9415 2.19212 28.7056 1.29119C27.1937 0.683884 25.8059 1.07416 25.4448 2.02069C25.3645 2.21947 25.3025 2.60064 25.2314 2.81402Z" fill="#3D9BD6"/>
<path d="M28.8296 3.49126C28.5649 2.97313 28.1655 2.5359 27.6734 2.22558C27.1262 1.84989 25.9153 1.70764 25.3736 1.66023C24.4271 1.57633 24.1791 1.75506 24.1535 1.89184C24.1535 1.92467 24.1171 2.07421 24.1098 2.11069C24.1028 2.14204 24.1067 2.17482 24.1207 2.2037C24.2392 2.43167 24.9651 2.88395 24.9651 2.88395C26.1815 2.6797 27.6369 3.02438 28.784 3.71558L28.8296 3.49126Z" fill="#3A4349"/>
<path d="M28.7784 3.71527C27.6272 3.03656 26.2887 2.74507 24.9595 2.88364C24.9595 2.88364 24.23 2.43135 24.1151 2.20338C24.0513 2.07572 24.1516 1.78028 25.3243 1.8824C25.8714 1.93165 27.0678 2.0739 27.6222 2.44776C28.1146 2.75851 28.5141 3.19641 28.7784 3.71527Z" fill="#0066A6"/>
</svg>
