<svg width="280" height="210" viewBox="0 0 280 210" fill="none" xmlns="http://www.w3.org/2000/svg">
<path d="M280 184.545H0V184.685H280V184.545Z" fill="#EBEBEB"/>
<path d="M77.0902 188.383H58.543V188.523H77.0902V188.383Z" fill="#EBEBEB"/>
<path d="M118.658 193.546H95.8379V193.686H118.658V193.546Z" fill="#EBEBEB"/>
<path d="M57.9827 191.782H29.3779V191.922H57.9827V191.782Z" fill="#EBEBEB"/>
<path d="M251.944 189.33H199.785V189.47H251.944V189.33Z" fill="#EBEBEB"/>
<path d="M194.802 189.33H191.257V189.47H194.802V189.33Z" fill="#EBEBEB"/>
<path d="M178.886 191.709H155.237V191.849H178.886V191.709Z" fill="#EBEBEB"/>
<path d="M132.72 159.405H24.5895C23.7424 159.404 22.9305 159.064 22.332 158.461C21.7336 157.857 21.3975 157.039 21.3975 156.187V3.19036C21.4048 2.34262 21.7442 1.53204 22.3419 0.934684C22.9395 0.337331 23.7472 0.00145223 24.5895 0H132.72C133.568 0 134.381 0.339096 134.981 0.942689C135.581 1.54628 135.917 2.36493 135.917 3.21854V156.187C135.917 157.04 135.581 157.859 134.981 158.463C134.381 159.066 133.568 159.405 132.72 159.405ZM24.5895 0.112734C23.7795 0.114227 23.0032 0.439134 22.431 1.01614C21.8588 1.59314 21.5375 2.3751 21.5375 3.19036V156.187C21.5375 157.002 21.8588 157.784 22.431 158.361C23.0032 158.938 23.7795 159.263 24.5895 159.264H132.72C133.53 159.263 134.307 158.938 134.88 158.361C135.453 157.784 135.776 157.002 135.777 156.187V3.19036C135.776 2.37458 135.453 1.59264 134.88 1.01579C134.307 0.438951 133.53 0.114224 132.72 0.112734H24.5895Z" fill="#EBEBEB"/>
<path d="M253.853 159.405H145.717C144.87 159.404 144.057 159.064 143.458 158.461C142.858 157.858 142.521 157.04 142.52 156.187V3.19036C142.528 2.3421 142.869 1.53153 143.468 0.934331C144.066 0.337134 144.874 0.00143639 145.717 0H253.853C254.694 0.00293361 255.501 0.339468 256.097 0.936662C256.694 1.53386 257.032 2.34359 257.04 3.19036V156.187C257.04 157.038 256.704 157.855 256.107 158.459C255.51 159.062 254.699 159.402 253.853 159.405ZM145.717 0.112734C144.907 0.114224 144.13 0.438951 143.557 1.01579C142.984 1.59264 142.661 2.37458 142.66 3.19036V156.187C142.661 157.002 142.984 157.784 143.557 158.361C144.13 158.938 144.907 159.263 145.717 159.264H253.853C254.664 159.263 255.44 158.938 256.014 158.361C256.587 157.784 256.909 157.002 256.911 156.187V3.19036C256.909 2.37458 256.587 1.59264 256.014 1.01579C255.44 0.438951 254.664 0.114224 253.853 0.112734H145.717Z" fill="#EBEBEB"/>
<path d="M129.019 184.545V71.146H83.7986V184.545H129.019Z" fill="#F0F0F0"/>
<path d="M126.532 107.373V73.9927H86.2794V107.373H126.532Z" fill="#E6E6E6"/>
<path d="M126.537 143.752V110.372H86.2843V143.752H126.537Z" fill="#E6E6E6"/>
<path d="M126.537 180.126V146.745H86.2843V180.126H126.537Z" fill="#E6E6E6"/>
<path d="M126.537 107.373V73.9927H110.706V107.373H126.537Z" fill="#E0E0E0"/>
<path d="M126.532 143.747V110.366H110.701V143.747H126.532Z" fill="#E0E0E0"/>
<path d="M103.617 130.416H92.6465V143.752H103.617V130.416Z" fill="#FAFAFA"/>
<path d="M88.0153 143.747H92.6465V130.41H88.0153V143.747Z" fill="#F0F0F0"/>
<path d="M121.336 130.416H110.365V143.752H121.336V130.416Z" fill="#FAFAFA"/>
<path d="M105.739 143.747H110.37V130.41H105.739V143.747Z" fill="#F0F0F0"/>
<path d="M112.672 117.079H101.701V130.415H112.672V117.079Z" fill="#FAFAFA"/>
<path d="M97.07 130.416H101.701V117.08H97.07V130.416Z" fill="#F0F0F0"/>
<path d="M126.537 180.126V146.745H110.706V180.126H126.537Z" fill="#E0E0E0"/>
<path d="M83.7988 184.545V71.146H71.518V184.545H83.7988Z" fill="#F5F5F5"/>
<path d="M123.804 151.559H91.1172V180.126H123.804V151.559Z" fill="#F0F0F0"/>
<path d="M86.2846 180.12H91.123V151.553H86.2846V180.12Z" fill="#E0E0E0"/>
<path d="M123.804 78.8066H91.1172V107.373H123.804V78.8066Z" fill="#F0F0F0"/>
<path d="M86.2846 107.367H91.123V78.8005H86.2846V107.367Z" fill="#E0E0E0"/>
<path d="M238.561 184.545V18.415L160.653 18.415V184.545H238.561Z" fill="#FAFAFA"/>
<path d="M160.652 184.545V18.415H160.361V184.545H160.652Z" fill="#F0F0F0"/>
<path d="M229.88 23.8657H166.286V184.545H229.88V23.8657Z" fill="#E6E6E6"/>
<path d="M233.285 23.8657H167.877V184.545H233.285V23.8657Z" fill="#F0F0F0"/>
<path d="M228.52 105.541V107.565L230.53 105.541H228.52Z" fill="#E0E0E0"/>
<path d="M228.52 179.748V28.668L172.643 28.668V179.748H228.52Z" fill="#FAFAFA"/>
<path d="M218.132 104.718C217.722 104.718 217.328 104.882 217.039 105.174C216.749 105.466 216.586 105.861 216.586 106.274C216.586 106.687 216.749 107.082 217.039 107.374C217.328 107.666 217.722 107.83 218.132 107.83H227.92V104.718H218.132Z" fill="#F5F5F5"/>
<path d="M184.9 179.748L201.952 28.668H213.438L196.386 179.748H184.9Z" fill="white"/>
<path d="M198.855 179.748L215.907 28.668H220.387L203.335 179.748H198.855Z" fill="white"/>
<path d="M228.52 179.742V28.6626H227.915V179.742H228.52Z" fill="#E6E6E6"/>
<path d="M229.998 105.761H220.214C219.805 105.759 219.413 105.595 219.123 105.304C218.834 105.012 218.67 104.617 218.669 104.205C218.67 103.793 218.834 103.398 219.123 103.107C219.413 102.815 219.805 102.651 220.214 102.649H229.998C230.408 102.649 230.801 102.813 231.091 103.105C231.38 103.397 231.543 103.793 231.543 104.205C231.543 104.618 231.38 105.013 231.091 105.305C230.801 105.597 230.408 105.761 229.998 105.761Z" fill="#EBEBEB"/>
<path d="M63.3136 37.6812H35.8232V81.698H63.3136V37.6812Z" fill="#E0E0E0"/>
<path d="M64.9659 37.6812H36.5459V81.698H64.9659V37.6812Z" fill="#F5F5F5"/>
<path d="M38.9316 40.8887V78.4854H62.5916V40.8887H38.9316Z" fill="white"/>
<path d="M102.127 16.4424H74.6367V60.4592H102.127V16.4424Z" fill="#E0E0E0"/>
<path d="M103.785 16.4424H75.3652V60.4592H103.785V16.4424Z" fill="#F5F5F5"/>
<path d="M77.7451 19.6553V57.252H101.405V19.6553H77.7451Z" fill="white"/>
<path d="M140 210C199.966 210 248.579 207.143 248.579 203.619C248.579 200.095 199.966 197.238 140 197.238C80.0341 197.238 31.4219 200.095 31.4219 203.619C31.4219 207.143 80.0341 210 140 210Z" fill="#F5F5F5"/>
<path d="M91.633 39.5864C92.837 41.1929 92.9826 43.1657 91.689 46.3504C91.129 47.6581 90.401 48.9377 88.777 46.745C87.153 44.5523 85.7586 40.5447 88.217 40.1895C90.6754 39.8344 91.633 39.5864 91.633 39.5864Z" fill="#263238"/>
<path d="M91.1123 198.349H95.2731L95.4523 188.648H91.2915L91.1123 198.349Z" fill="#FFC3BD"/>
<path d="M60.2227 190.909L64.2547 191.94L68.4267 183.006L64.3947 181.975L60.2227 190.909Z" fill="#FFC3BD"/>
<path d="M64.7923 191.512L60.3627 190.007C60.2854 189.98 60.2012 189.981 60.1246 190.01C60.048 190.039 59.9837 190.094 59.9427 190.165L58.0667 193.451C58.0217 193.532 57.995 193.623 57.9887 193.716C57.9825 193.809 57.9967 193.902 58.0304 193.989C58.0642 194.075 58.1165 194.154 58.1838 194.217C58.2511 194.281 58.3316 194.33 58.4195 194.359C59.9763 194.86 60.7547 195.024 62.7035 195.689C63.9019 196.095 67.3123 197.538 68.9699 198.101C70.6275 198.665 71.3499 197.081 70.7227 196.698C67.8947 195.007 66.0523 193.197 65.3523 191.98C65.2276 191.761 65.0288 191.595 64.7923 191.512Z" fill="#263238"/>
<path d="M95.2335 197.848H90.7199C90.6387 197.847 90.5597 197.875 90.4965 197.926C90.4332 197.978 90.3895 198.049 90.3727 198.129L89.5999 201.872C89.5835 201.964 89.5872 202.057 89.6109 202.147C89.6346 202.237 89.6776 202.32 89.737 202.391C89.7964 202.462 89.8706 202.519 89.9543 202.558C90.0381 202.597 90.1293 202.617 90.2215 202.616C91.8567 202.616 94.2255 202.492 96.2807 202.492C98.6943 202.492 99.1983 202.622 102.021 202.622C103.729 202.622 104.16 200.886 103.443 200.728C100.167 200.012 99.0919 199.933 96.2359 198.191C95.9392 197.987 95.5926 197.868 95.2335 197.848Z" fill="#263238"/>
<path d="M94.1533 65.8983L99.8317 64.0664C99.8317 64.0664 105.701 77.741 107.672 78.5921C110.349 79.7194 112.443 81.6416 115.876 81.9741C116.341 82.5096 117.102 84.2288 117.029 84.8714C112.421 86.6187 105.32 84.7643 103.365 82.9436C98.8909 78.8063 94.1533 65.8983 94.1533 65.8983Z" fill="#FFC3BD"/>
<path d="M92.8255 62.7534C91.2295 66.4172 97.6415 78.0513 97.6415 78.0513L106.126 74.1056C105.084 70.5547 103.674 67.1238 101.92 63.8694C99.2543 59.1853 94.5783 58.7288 92.8255 62.7534Z" fill="#3D9BD6"/>
<path opacity="0.5" d="M92.8255 62.7534C91.2295 66.4172 97.6415 78.0513 97.6415 78.0513L106.126 74.1056C105.084 70.5547 103.674 67.1238 101.92 63.8694C99.2543 59.1853 94.5783 58.7288 92.8255 62.7534Z" fill="black"/>
<path d="M115.17 81.9801L118.373 80.2891L120.003 85.0295C120.003 85.0295 118.956 85.4974 115.965 85.1253L115.17 81.9801Z" fill="#FFC3BD"/>
<path d="M121.565 79.0996L122.59 83.1524L120.003 85.0463L118.373 80.3059L121.565 79.0996Z" fill="#FFC3BD"/>
<path opacity="0.2" d="M95.4523 188.654L95.3627 193.654H91.1963L91.2915 188.654H95.4523Z" fill="black"/>
<path opacity="0.2" d="M64.3887 181.975L68.4263 183.006L66.2703 187.611L62.2383 186.58L64.3887 181.975Z" fill="black"/>
<path d="M98.264 60.3748C98.264 60.3748 103.483 74.7653 99.384 98.3153H77.1408C76.9 94.8769 78.6416 76.3604 74.9512 60.1606C77.4032 59.6821 79.8837 59.3658 82.3768 59.2137C85.5269 59.0303 88.685 59.0303 91.8352 59.2137C94.0044 59.4347 96.1537 59.8229 98.264 60.3748Z" fill="#3D9BD6"/>
<path opacity="0.5" d="M98.264 60.3748C98.264 60.3748 103.483 74.7653 99.384 98.3153H77.1408C76.9 94.8769 78.6416 76.3604 74.9512 60.1606C77.4032 59.6821 79.8837 59.3658 82.3768 59.2137C85.5269 59.0303 88.685 59.0303 91.8352 59.2137C94.0044 59.4347 96.1537 59.8229 98.264 60.3748Z" fill="black"/>
<path opacity="0.2" d="M79.8842 64.1625C80.3154 66.8287 79.6379 73.1812 77.2915 80.5765C77.1779 74.2617 76.5108 67.9693 75.2979 61.7726V61.7387C76.7595 61.5922 79.4642 61.6598 79.8842 64.1625Z" fill="black"/>
<path d="M83.3952 50.3076C84.0672 53.374 84.4536 57.1675 82.376 59.2136C82.376 59.2136 83.6752 62.3194 89.3312 62.3194C94.5 62.3194 91.8344 59.2136 91.8344 59.2136C88.424 58.3962 88.4744 54.1744 89.0344 51.7957L83.3952 50.3076Z" fill="#FFC3BD"/>
<path d="M89.3316 62.3193C88.7412 63.1926 88.3915 64.2079 88.318 65.2616C88.318 65.2616 81.1724 62.7477 81.4132 59.0613C81.4132 59.0613 82.4044 58.4582 83.0316 57.9678C83.0316 57.9734 83.334 60.8763 89.3316 62.3193Z" fill="white"/>
<path d="M89.332 62.3194C89.9393 63.1553 90.4292 64.0714 90.788 65.0419C90.788 65.0419 93.9464 62.8549 92.8936 59.2136C92.2988 58.9778 91.6865 58.7894 91.0624 58.6499C91.0624 58.6499 91.544 61.5359 89.332 62.3194Z" fill="white"/>
<path opacity="0.2" d="M89.0406 51.7957C88.6214 53.4521 88.6699 55.1934 89.1806 56.8236C88.6527 56.7443 88.1393 56.5867 87.6574 56.3558C85.7198 55.4483 84.7398 54.0222 83.7094 51.8972C83.6198 51.3335 83.519 50.8262 83.4014 50.3076L89.0406 51.7957Z" fill="black"/>
<path d="M94.2316 49.1971C94.0181 49.662 93.7136 50.0788 93.3364 50.4227C92.9593 50.7665 92.5171 51.0302 92.0364 51.1981C90.7428 51.6378 90.0036 50.471 90.2836 49.1858C90.5356 48.0585 91.51 46.4126 92.8428 46.5309C93.1357 46.5649 93.416 46.6704 93.6591 46.8383C93.9023 47.0062 94.101 47.2314 94.2379 47.4942C94.3748 47.7571 94.4458 48.0497 94.4447 48.3464C94.4436 48.6432 94.3704 48.9353 94.2316 49.1971Z" fill="#FFC3BD"/>
<path opacity="0.2" d="M94.2316 49.1971C94.0181 49.662 93.7136 50.0788 93.3364 50.4227C92.9593 50.7665 92.5171 51.0302 92.0364 51.1981C90.7428 51.6378 90.0036 50.471 90.2836 49.1858C90.5356 48.0585 91.51 46.4126 92.8428 46.5309C93.1357 46.5649 93.416 46.6704 93.6591 46.8383C93.9023 47.0062 94.101 47.2314 94.2379 47.4942C94.3748 47.7571 94.4458 48.0497 94.4447 48.3464C94.4436 48.6432 94.3704 48.9353 94.2316 49.1971Z" fill="black"/>
<path d="M81.5029 45.9109C82.2645 50.0313 82.5053 52.4833 84.8181 54.3941C88.3013 57.2745 93.0893 54.8451 93.5485 50.595C93.9629 46.7733 92.6525 40.6745 88.4693 39.44C87.553 39.1645 86.5811 39.1338 85.6493 39.3509C84.7176 39.5681 83.858 40.0256 83.1552 40.6784C82.4523 41.3313 81.9304 42.157 81.6407 43.0745C81.351 43.9919 81.3035 44.9694 81.5029 45.9109Z" fill="#FFC3BD"/>
<path d="M84.3367 41.1986C85.2775 42.9685 84.7847 44.124 83.4855 47.2749C82.9255 48.5826 82.0407 49.9749 80.5735 47.6695C79.1903 45.4938 77.0791 41.4692 78.8935 41.0295C81.3183 40.4771 84.3367 41.1986 84.3367 41.1986Z" fill="#263238"/>
<path d="M83.1548 42.3542C84.8348 42.9179 86.1676 42.0668 86.4868 41.2551C87.8308 41.8526 89.5948 41.9315 90.166 41.1649C91.286 41.1649 92.4844 41.3678 93.022 39.7557C93.5596 38.1436 92.8932 36.695 91.1348 35.8777C91.0956 36.2384 90.1828 36.7063 89.326 36.1088C88.8455 35.8365 88.2971 35.7097 87.7467 35.7437C87.1963 35.7777 86.6674 35.971 86.2236 36.3004C84.3924 35.8213 83.0988 35.5564 82.046 36.7683C80.3044 36.4019 78.182 37.9914 78.4732 39.3724C77.1068 41.0634 78.4284 42.467 79.8284 42.7094C80.1084 43.4027 82.7852 43.0701 83.1548 42.3542Z" fill="#263238"/>
<path d="M80.2318 50.6794C80.8797 51.5027 81.8228 52.037 82.8582 52.1675C84.219 52.3253 84.6558 51.0402 84.0734 49.8452C83.547 48.7686 82.2029 47.3989 80.9373 47.7878C79.6717 48.1767 79.4366 49.6536 80.2318 50.6794Z" fill="#FFC3BD"/>
<path d="M84.7676 98.3149C84.7676 98.3149 85.21 103.58 85.77 110.716C86.414 118.804 87.2036 129.317 87.674 137.304C87.674 137.349 87.674 137.383 87.674 137.417C87.7636 138.933 87.842 140.359 87.9036 141.661C88.5364 154.71 89.8356 192.684 89.8356 192.684H96.8804C96.8804 192.684 100.425 153.932 100.576 140.652C100.716 127.879 99.3836 98.3149 99.3836 98.3149H84.7676Z" fill="#263238"/>
<path d="M89.3202 190.52C89.2922 190.52 89.3762 192.837 89.3762 192.837H97.5018L97.7818 190.232L89.3202 190.52Z" fill="#3D9BD6"/>
<path opacity="0.2" d="M85.7695 110.716C86.4135 118.805 87.2031 129.317 87.6735 137.304C87.6735 137.349 87.6735 137.383 87.6735 137.417C89.3983 129.83 90.0983 120.394 89.8519 104.859L85.7695 110.716Z" fill="black"/>
<path d="M91.4985 98.3154C91.4985 98.3154 87.5785 128.573 85.2545 140.591C82.7345 153.718 68.3649 187.178 68.3649 187.178L60.9785 185.289C60.9785 185.289 71.5009 154.778 72.8057 141.78C74.2169 127.688 77.1401 98.3436 77.1401 98.3436L91.4985 98.3154Z" fill="#263238"/>
<path d="M61.4211 183.311C61.3931 183.311 60.5811 185.306 60.5811 185.306L68.6955 187.386L69.9611 185.171L61.4211 183.311Z" fill="#3D9BD6"/>
<path d="M87.814 46.418C87.8588 46.7562 88.066 47.0099 88.2844 46.9817C88.5028 46.9535 88.6428 46.666 88.598 46.3278C88.5532 45.9896 88.346 45.7642 88.1332 45.7642C87.9204 45.7642 87.7748 46.0798 87.814 46.418Z" fill="#263238"/>
<path d="M91.5601 46.0237C91.5993 46.3619 91.8065 46.5873 92.0249 46.5873C92.2433 46.5873 92.3833 46.2717 92.3385 45.9335C92.2937 45.5953 92.0921 45.3416 91.8737 45.3698C91.6553 45.398 91.5153 45.6855 91.5601 46.0237Z" fill="#263238"/>
<path d="M90.3896 46.3169C90.9102 47.3084 91.562 48.2243 92.3272 49.0394C92.1204 49.2283 91.8744 49.3683 91.607 49.4492C91.3396 49.5301 91.0576 49.55 90.7816 49.5073L90.3896 46.3169Z" fill="#ED847E"/>
<path d="M89.9476 50.4483C89.9728 50.4429 89.9952 50.4285 90.0106 50.4078C90.0261 50.387 90.0335 50.3614 90.0316 50.3355C90.0275 50.3096 90.0135 50.2863 89.9926 50.2705C89.9717 50.2547 89.9455 50.2477 89.9196 50.251C89.5057 50.315 89.0827 50.28 88.6847 50.1488C88.2868 50.0176 87.9252 49.7938 87.6292 49.4957C87.6098 49.4786 87.5849 49.4692 87.5592 49.4692C87.5335 49.4692 87.5086 49.4786 87.4892 49.4957C87.4711 49.5146 87.4609 49.5399 87.4609 49.5661C87.4609 49.5924 87.4711 49.6177 87.4892 49.6366C87.8053 49.959 88.1932 50.2008 88.6208 50.342C89.0484 50.4832 89.5032 50.5196 89.9476 50.4483Z" fill="#263238"/>
<path d="M86.5369 45.3023C86.5661 45.2986 86.5943 45.2886 86.6194 45.2731C86.6445 45.2575 86.666 45.2368 86.6825 45.2122C86.7981 44.9946 86.9645 44.8085 87.1674 44.6701C87.3704 44.5316 87.6037 44.4449 87.8473 44.4174C87.873 44.4159 87.8983 44.4094 87.9215 44.3981C87.9447 44.3869 87.9655 44.3711 87.9827 44.3517C87.9999 44.3323 88.0131 44.3097 88.0215 44.2852C88.03 44.2607 88.0336 44.2347 88.0321 44.2088C88.0292 44.156 88.0059 44.1064 87.9672 44.0706C87.9285 44.0348 87.8774 44.0156 87.8249 44.0172C87.5159 44.0457 87.2187 44.1507 86.9598 44.3228C86.7009 44.4949 86.4883 44.7288 86.3409 45.0036C86.3161 45.0495 86.3099 45.1032 86.3234 45.1536C86.337 45.2039 86.3693 45.2471 86.4137 45.2742C86.4495 45.2993 86.4937 45.3094 86.5369 45.3023Z" fill="#263238"/>
<path d="M93.0727 44.4903C93.101 44.485 93.1277 44.4734 93.1511 44.4565C93.1723 44.4415 93.1902 44.4222 93.2038 44.3999C93.2174 44.3776 93.2262 44.3528 93.2299 44.3269C93.2336 44.3011 93.232 44.2747 93.2251 44.2495C93.2183 44.2243 93.2065 44.2008 93.1903 44.1803C93.0138 43.9187 92.7781 43.7031 92.5025 43.5512C92.227 43.3993 91.9195 43.3155 91.6055 43.3066C91.5795 43.3073 91.5539 43.3133 91.5303 43.3243C91.5067 43.3354 91.4855 43.3511 91.4682 43.3707C91.4509 43.3902 91.4378 43.4131 91.4296 43.438C91.4214 43.4628 91.4184 43.4891 91.4207 43.5152C91.4236 43.568 91.4468 43.6176 91.4856 43.6534C91.5243 43.6892 91.5753 43.7084 91.6279 43.7068C91.8765 43.7165 92.1194 43.7854 92.3365 43.9079C92.5536 44.0304 92.7387 44.203 92.8767 44.4114C92.8993 44.4411 92.9295 44.464 92.9639 44.4779C92.9984 44.4918 93.036 44.4961 93.0727 44.4903Z" fill="#263238"/>
<path d="M72.7998 66.417L78.159 69.3086C78.159 69.3086 72.055 82.6168 72.8502 84.5953C73.931 87.2896 75.6502 93.2419 77.4982 96.173C77.3526 96.8494 76.4454 98.4277 75.8854 98.7715C71.6126 96.1223 66.6958 87.0867 66.6062 84.4544C66.4046 78.4569 72.7998 66.417 72.7998 66.417Z" fill="#FFC3BD"/>
<path d="M74.9511 60.1602C71.0311 60.7239 66.8535 74.4661 66.8535 74.4661L75.2535 79.1671C75.2535 79.1671 78.7367 72.6342 80.4111 67.7866C82.1527 62.708 79.1567 59.5402 74.9511 60.1602Z" fill="#3D9BD6"/>
<path opacity="0.5" d="M74.9511 60.1602C71.0311 60.7239 66.8535 74.4661 66.8535 74.4661L75.2535 79.1671C75.2535 79.1671 78.7367 72.6342 80.4111 67.7866C82.1527 62.708 79.1567 59.5402 74.9511 60.1602Z" fill="black"/>
<path d="M65.8783 192.656C66.1365 192.768 66.4249 192.788 66.6959 192.712C66.7862 192.674 66.8656 192.614 66.9272 192.537C66.9887 192.461 67.0305 192.37 67.0487 192.273C67.0652 192.217 67.0666 192.158 67.0528 192.101C67.039 192.045 67.0105 191.993 66.9703 191.951C66.6063 191.579 65.0887 191.951 64.9151 191.951C64.8965 191.956 64.8796 191.966 64.8666 191.98C64.8536 191.994 64.8452 192.011 64.8423 192.03C64.8404 192.05 64.8441 192.07 64.853 192.088C64.8619 192.106 64.8757 192.121 64.8927 192.132C65.1996 192.345 65.5305 192.521 65.8783 192.656ZM66.7183 192.03C66.7614 192.038 66.8009 192.06 66.8303 192.092C66.8422 192.112 66.8484 192.134 66.8484 192.157C66.8484 192.18 66.8422 192.203 66.8303 192.222C66.8187 192.288 66.7913 192.351 66.7503 192.404C66.7093 192.457 66.656 192.499 66.5951 192.526C66.0869 192.578 65.5781 192.433 65.1727 192.121C65.676 191.983 66.2024 191.952 66.7183 192.03Z" fill="#3D9BD6"/>
<path d="M64.9102 192.172H64.9606C65.4366 192.081 66.495 191.478 66.551 190.999C66.5591 190.925 66.5419 190.85 66.5022 190.786C66.4626 190.723 66.4028 190.675 66.3326 190.65C66.2635 190.62 66.1893 190.605 66.1142 190.605C66.0392 190.605 65.9649 190.62 65.8958 190.65C65.3358 190.875 64.871 191.997 64.8486 192.042C64.8403 192.057 64.8359 192.075 64.8359 192.093C64.8359 192.11 64.8403 192.128 64.8486 192.143C64.8647 192.16 64.8868 192.171 64.9102 192.172ZM66.2094 190.819H66.2486C66.3662 190.875 66.3606 190.937 66.355 190.965C66.355 191.241 65.6158 191.737 65.1174 191.907C65.2686 191.585 65.599 190.96 65.9686 190.813C66.0471 190.787 66.1322 190.789 66.2094 190.819Z" fill="#3D9BD6"/>
<path d="M96.9866 198.592C97.3396 198.624 97.6931 198.535 97.989 198.338C98.0541 198.277 98.1039 198.201 98.134 198.117C98.1642 198.033 98.174 197.942 98.1626 197.853C98.1585 197.799 98.141 197.746 98.1116 197.7C98.0823 197.653 98.0421 197.615 97.9946 197.588C97.4794 197.307 95.8274 198.152 95.6426 198.259C95.6245 198.269 95.6099 198.283 95.6009 198.302C95.5918 198.32 95.5888 198.341 95.5922 198.361C95.5951 198.381 95.6042 198.4 95.6183 198.415C95.6323 198.43 95.6505 198.441 95.6706 198.445C96.1041 198.533 96.5445 198.582 96.9866 198.592ZM97.7146 197.729C97.7779 197.726 97.8411 197.738 97.8994 197.763C97.9188 197.774 97.9351 197.789 97.9469 197.808C97.9586 197.827 97.9654 197.848 97.9666 197.87C97.9752 197.929 97.9694 197.989 97.9499 198.045C97.9304 198.101 97.8977 198.151 97.8546 198.192C97.6026 198.417 96.9194 198.457 95.9954 198.304C96.5318 198.016 97.1132 197.821 97.7146 197.729Z" fill="#3D9BD6"/>
<path d="M95.6929 198.445H95.7601C96.2585 198.214 97.2273 197.318 97.1433 196.839C97.1433 196.726 97.0369 196.585 96.7681 196.562C96.6681 196.547 96.566 196.554 96.4691 196.583C96.3721 196.612 96.283 196.663 96.2081 196.731C95.6873 197.165 95.6033 198.293 95.6033 198.344C95.6011 198.361 95.6036 198.378 95.6105 198.394C95.6174 198.41 95.6285 198.424 95.6425 198.434C95.6584 198.441 95.6755 198.445 95.6929 198.445ZM96.6673 196.754H96.7233C96.9025 196.754 96.9137 196.839 96.9193 196.861C96.9697 197.149 96.3145 197.859 95.7993 198.169C95.8316 197.695 96.0119 197.243 96.3145 196.878C96.412 196.792 96.5378 196.746 96.6673 196.748V196.754Z" fill="#3D9BD6"/>
<path d="M76.7205 95.6323L80.6405 96.0382L77.9133 100.018C77.9133 100.018 74.4749 99.5498 74.3125 96.8104L76.7205 95.6323Z" fill="#FFC3BD"/>
<path d="M82.9025 97.5769L80.2594 101.055L77.9521 100.018L80.6794 96.0381L82.9025 97.5769Z" fill="#FFC3BD"/>
<path d="M224.106 95.412L228.026 141.114C228.34 144.834 226.083 148.098 222.986 148.363L136.824 155.803C133.744 156.074 130.961 153.244 130.664 149.53L126.744 103.822C126.667 102.964 126.733 102.099 126.94 101.263C127.556 98.7094 129.427 96.7535 131.768 96.5787L217.929 89.1327C220.264 88.9298 222.409 90.5137 223.479 92.9149C223.824 93.7067 224.035 94.5504 224.106 95.412Z" fill="#3D9BD6"/>
<path opacity="0.1" d="M224.106 95.412L228.026 141.114C228.34 144.834 226.083 148.098 222.986 148.363L136.824 155.803C133.744 156.074 130.961 153.244 130.664 149.53L126.744 103.822C126.667 102.964 126.733 102.099 126.94 101.263C127.556 98.7094 129.427 96.7535 131.768 96.5787L217.929 89.1327C220.264 88.9298 222.409 90.5137 223.479 92.9149C223.824 93.7067 224.035 94.5504 224.106 95.412Z" fill="black"/>
<path d="M234.335 122.353L233.724 122.428L233.971 124.487L234.582 124.413L234.335 122.353Z" fill="#3D9BD6"/>
<path d="M233.143 112.411L232.531 112.485L233.452 120.157L234.064 120.083L233.143 112.411Z" fill="#3D9BD6"/>
<path d="M227.965 87.2389L233.598 134.113C234.052 137.924 231.846 141.362 228.687 141.746L140.325 152.506C137.166 152.889 134.204 150.082 133.745 146.266L128.111 99.3972C128.004 98.5158 128.042 97.6226 128.223 96.7536C128.783 94.11 130.62 92.0526 133.022 91.7595L221.385 81.0047C223.787 80.7116 226.072 82.2617 227.231 84.6967C227.613 85.4976 227.861 86.3566 227.965 87.2389Z" fill="#3D9BD6"/>
<path opacity="0.1" d="M227.231 84.6967L187.152 111.86C185.191 113.209 182.935 114.064 180.577 114.351C178.218 114.639 175.825 114.351 173.6 113.511L128.24 96.7536C128.8 94.11 130.637 92.0526 133.039 91.7595L221.402 81.0047C223.787 80.7116 226.072 82.2617 227.231 84.6967Z" fill="black"/>
<path d="M212.279 94.826L200.765 102.627L196.996 105.186L187.152 111.86C185.241 113.18 183.048 114.028 180.751 114.335C178.454 114.643 176.117 114.401 173.93 113.63L173.577 113.512L168.056 111.471L155.624 106.877L149.811 104.73L143.225 102.295L142.749 90.5759L141.68 64.5345L192.264 62.4658L211.545 77.1719L211.747 82.1716L212.279 94.826Z" fill="#3D9BD6"/>
<path opacity="0.7" d="M212.279 94.826L200.765 102.627L196.996 105.186L187.152 111.86C185.241 113.18 183.048 114.028 180.751 114.335C178.454 114.643 176.117 114.401 173.93 113.63L173.577 113.512L168.056 111.471L155.624 106.877L149.811 104.73L143.225 102.295L142.749 90.5759L141.68 64.5345L192.264 62.4658L211.545 77.1719L211.747 82.1716L212.279 94.826Z" fill="#FAFAFA"/>
<g opacity="0.9">
<path d="M205.15 82.352L149.15 84.6405C148.838 84.6529 148.533 84.542 148.301 84.3314C148.068 84.1208 147.927 83.8272 147.907 83.5132C147.896 83.1997 148.007 82.8943 148.216 82.6618C148.425 82.4292 148.716 82.2878 149.027 82.2675L205.027 79.979C205.339 79.9665 205.644 80.0775 205.876 80.2881C206.109 80.4987 206.25 80.7923 206.27 81.1063C206.282 81.4201 206.172 81.7263 205.963 81.9592C205.753 82.1921 205.462 82.3331 205.15 82.352Z" fill="white"/>
<path d="M205.447 89.8433L149.447 92.1318C149.135 92.1442 148.83 92.0333 148.598 91.8227C148.365 91.6121 148.224 91.3184 148.204 91.0044C148.193 90.6904 148.304 90.3844 148.513 90.1509C148.722 89.9175 149.012 89.7748 149.324 89.7531L205.324 87.4646C205.636 87.4536 205.94 87.565 206.172 87.7754C206.404 87.9857 206.545 88.2785 206.567 88.5919C206.577 88.9056 206.465 89.2109 206.257 89.444C206.048 89.6771 205.758 89.8202 205.447 89.8433Z" fill="white"/>
<path d="M205.749 97.3286L149.749 99.617C149.437 99.6295 149.132 99.5185 148.9 99.3079C148.667 99.0973 148.526 98.8037 148.506 98.4897C148.494 98.1759 148.604 97.8697 148.813 97.6368C149.023 97.404 149.314 97.2629 149.626 97.244L205.626 94.9555C205.938 94.9432 206.242 95.0543 206.473 95.265C206.704 95.4757 206.845 95.7694 206.863 96.0829C206.876 96.3958 206.766 96.7012 206.558 96.9339C206.35 97.1666 206.059 97.3082 205.749 97.3286Z" fill="white"/>
<path d="M200.765 102.627L196.996 105.186L155.623 106.877L149.811 104.729C149.859 104.724 149.908 104.724 149.956 104.729L200.765 102.627Z" fill="white"/>
<path d="M185.438 111.956V112.001C185.439 112.307 185.323 112.603 185.115 112.827C184.907 113.051 184.622 113.187 184.318 113.207L173.953 113.63L173.6 113.511L168.078 111.471L184.223 110.806C184.534 110.801 184.835 110.918 185.062 111.133C185.289 111.348 185.424 111.643 185.438 111.956Z" fill="white"/>
</g>
<path opacity="0.1" d="M211.568 77.1719L198.173 76.5913L192.287 62.4658L211.568 77.1719Z" fill="#263238"/>
<path d="M211.568 77.1719L198.57 74.9341L192.287 62.4658L211.568 77.1719Z" fill="#3D9BD6"/>
<path d="M237.333 22.5073C237.333 33.9723 224.851 45.24 222.981 45.24C221.11 45.24 208.628 33.9666 208.628 22.5073C208.628 14.8245 215.051 8.59033 222.981 8.59033C230.91 8.59033 237.333 14.8245 237.333 22.5073Z" fill="#3D9BD6"/>
<path opacity="0.1" d="M220.315 19.6497C217.717 22.5188 214.189 23.5447 212.436 21.9044C210.683 20.2641 211.366 16.6679 213.959 13.7989C216.552 10.9298 220.085 9.90393 221.844 11.5104C223.602 13.1168 222.913 16.7807 220.315 19.6497Z" fill="white"/>
<path opacity="0.1" d="M212.659 31.199C212.318 30.3422 212.407 29.508 212.861 29.3163C213.315 29.1247 213.981 29.6771 214.3 30.5339C214.619 31.3906 214.552 32.2249 214.099 32.4109C213.645 32.5969 213.001 32.0501 212.659 31.199Z" fill="white"/>
<path d="M222.364 81.3146C222.304 81.3131 222.246 81.2883 222.203 81.2453C222.161 81.2023 222.136 81.1443 222.135 81.0835C222.118 80.3232 222.346 79.5778 222.784 78.9584C223.16 78.4035 223.361 77.7474 223.361 77.0758C223.361 76.4042 223.16 75.7481 222.784 75.1931C222.361 74.5662 222.135 73.8259 222.135 73.0681C222.135 72.3103 222.361 71.57 222.784 70.9431C223.16 70.3893 223.362 69.7341 223.362 69.0633C223.362 68.3924 223.16 67.7372 222.784 67.1834C222.361 66.5577 222.135 65.8182 222.135 65.0612C222.135 64.3042 222.361 63.5647 222.784 62.939C223.16 62.3852 223.362 61.73 223.362 61.0592C223.362 60.3884 223.16 59.7332 222.784 59.1793C222.361 58.5536 222.135 57.8141 222.135 57.0571C222.135 56.3001 222.361 55.5607 222.784 54.9349C223.16 54.3811 223.362 53.7259 223.362 53.0551C223.362 52.3843 223.16 51.7291 222.784 51.1753C222.361 50.5495 222.135 49.81 222.135 49.0531C222.135 48.2961 222.361 47.5566 222.784 46.9308C223.168 46.3826 223.364 45.724 223.344 45.0538C223.353 44.998 223.381 44.9472 223.424 44.9104C223.466 44.8737 223.521 44.8535 223.577 44.8535C223.633 44.8535 223.687 44.8737 223.73 44.9104C223.772 44.9472 223.8 44.998 223.809 45.0538C223.825 45.8123 223.597 46.5556 223.159 47.1732C222.777 47.7241 222.581 48.3841 222.599 49.0559C222.58 49.726 222.776 50.3846 223.159 50.9329C223.583 51.5586 223.809 52.2981 223.809 53.0551C223.809 53.8121 223.583 54.5516 223.159 55.1773C222.78 55.7299 222.577 56.3856 222.577 57.0571C222.577 57.7287 222.78 58.3843 223.159 58.937C223.583 59.5627 223.809 60.3022 223.809 61.0592C223.809 61.8162 223.583 62.5556 223.159 63.1814C222.78 63.734 222.577 64.3897 222.577 65.0612C222.577 65.7328 222.78 66.3884 223.159 66.941C223.583 67.5668 223.809 68.3063 223.809 69.0633C223.809 69.8202 223.583 70.5597 223.159 71.1855C222.78 71.739 222.577 72.3956 222.577 73.0681C222.577 73.7406 222.78 74.3973 223.159 74.9508C223.582 75.5777 223.809 76.318 223.809 77.0758C223.809 77.8336 223.582 78.5739 223.159 79.2008C222.775 79.7508 222.579 80.4115 222.599 81.0835C222.599 81.1143 222.593 81.1448 222.581 81.1732C222.57 81.2016 222.552 81.2274 222.53 81.2489C222.508 81.2704 222.482 81.2873 222.454 81.2986C222.425 81.3099 222.395 81.3153 222.364 81.3146Z" fill="#263238"/>
<path d="M222.981 44.6992C222.539 44.6992 219.621 47.3485 219.621 50.0428H226.352C226.352 47.3485 223.44 44.6992 222.981 44.6992Z" fill="#3D9BD6"/>
<path d="M223.642 44.7891H222.32C222.212 44.7891 222.124 44.8774 222.124 44.9863V45.1273C222.124 45.2362 222.212 45.3245 222.32 45.3245H223.642C223.75 45.3245 223.838 45.2362 223.838 45.1273V44.9863C223.838 44.8774 223.75 44.7891 223.642 44.7891Z" fill="#263238"/>
<path d="M147.28 33.2229C147.28 44.6822 134.797 55.95 132.927 55.95C131.057 55.95 118.574 44.6766 118.574 33.2229C118.574 25.5345 124.997 19.3003 132.927 19.3003C140.857 19.3003 147.28 25.5345 147.28 33.2229Z" fill="#263238"/>
<path opacity="0.1" d="M130.6 30.829C133.197 27.9591 133.881 24.3292 132.127 22.7213C130.373 21.1134 126.846 22.1364 124.249 25.0063C121.652 27.8762 120.969 31.5061 122.722 33.114C124.476 34.7218 128.003 33.6988 130.6 30.829Z" fill="white"/>
<path opacity="0.1" d="M122.942 42.3767C122.6 41.5199 122.69 40.6857 123.143 40.4941C123.597 40.3024 124.263 40.8548 124.583 41.7116C124.902 42.5684 124.835 43.4026 124.381 43.5942C123.927 43.7859 123.283 43.2335 122.942 42.3767Z" fill="white"/>
<path d="M132.289 92.0245C132.228 92.0245 132.17 92.0002 132.127 91.9569C132.084 91.9135 132.059 91.8547 132.059 91.7935C132.043 91.0332 132.271 90.2878 132.709 89.6684C133.085 89.1135 133.286 88.4574 133.286 87.7858C133.286 87.1141 133.085 86.4581 132.709 85.9031C132.286 85.2762 132.06 84.5359 132.06 83.7781C132.06 83.0203 132.286 82.28 132.709 81.6531C133.092 81.1048 133.289 80.4462 133.269 79.7761C133.288 79.1043 133.091 78.4443 132.709 77.8934C132.286 77.2677 132.059 76.5282 132.059 75.7712C132.059 75.0142 132.286 74.2747 132.709 73.649C133.092 73.1007 133.289 72.4421 133.269 71.772C133.288 71.1002 133.091 70.4402 132.709 69.8893C132.286 69.2636 132.059 68.5241 132.059 67.7671C132.059 67.0101 132.286 66.2707 132.709 65.6449C133.085 65.092 133.286 64.4377 133.286 63.7679C133.286 63.0981 133.085 62.4438 132.709 61.8909C132.286 61.2651 132.059 60.5257 132.059 59.7687C132.059 59.0117 132.286 58.2722 132.709 57.6465C133.091 57.0956 133.288 56.4356 133.269 55.7638C133.27 55.703 133.295 55.645 133.338 55.602C133.381 55.559 133.438 55.5341 133.499 55.5327C133.56 55.5327 133.618 55.5571 133.661 55.6004C133.704 55.6437 133.728 55.7025 133.728 55.7638C133.746 56.5234 133.52 57.2684 133.084 57.8888C132.705 58.4403 132.502 59.0951 132.502 59.7659C132.502 60.4366 132.705 61.0914 133.084 61.6429C133.504 62.27 133.728 63.009 133.728 63.7651C133.728 64.5212 133.504 65.2601 133.084 65.8873C132.702 66.4382 132.506 67.0982 132.524 67.7699C132.504 68.4401 132.701 69.0987 133.084 69.6469C133.504 70.2741 133.728 71.013 133.728 71.7692C133.728 72.5253 133.504 73.2642 133.084 73.8914C132.702 74.4422 132.506 75.1023 132.524 75.774C132.504 76.4442 132.701 77.1028 133.084 77.651C133.504 78.2782 133.728 79.0171 133.728 79.7732C133.728 80.5294 133.504 81.2683 133.084 81.8954C132.705 82.4489 132.501 83.1056 132.501 83.7781C132.501 84.4506 132.705 85.1072 133.084 85.6607C133.504 86.2888 133.729 87.0287 133.729 87.7858C133.729 88.5429 133.504 89.2828 133.084 89.9108C132.701 90.4613 132.505 91.1216 132.524 91.7935C132.524 91.8243 132.518 91.8548 132.506 91.8832C132.494 91.9116 132.477 91.9374 132.455 91.9589C132.433 91.9804 132.407 91.9973 132.379 92.0086C132.35 92.0199 132.32 92.0253 132.289 92.0245Z" fill="#3D9BD6"/>
<path d="M132.905 55.4141C132.463 55.4141 129.545 58.0577 129.545 60.752H136.265C136.276 58.0577 133.342 55.4141 132.905 55.4141Z" fill="#263238"/>
<path d="M133.565 55.499H132.244C132.136 55.499 132.048 55.5873 132.048 55.6963V55.8372C132.048 55.9462 132.136 56.0345 132.244 56.0345H133.565C133.674 56.0345 133.761 55.9462 133.761 55.8372V55.6963C133.761 55.5873 133.674 55.499 133.565 55.499Z" fill="#3D9BD6"/>
<path d="M230.751 91.7796C234.143 88.6445 234.368 83.3351 231.253 79.9209C228.139 76.5067 222.864 76.2804 219.472 79.4156C216.08 82.5507 215.855 87.8601 218.97 91.2743C222.085 94.6886 227.359 94.9148 230.751 91.7796Z" fill="#DE5753"/>
<path d="M226.766 81.5459V90.0009H224.448V84.4657C224.105 84.7313 223.74 84.9652 223.356 85.1646C222.929 85.3687 222.487 85.5383 222.034 85.6719V83.7837C222.691 83.5945 223.308 83.2849 223.854 82.8705C224.285 82.514 224.631 82.0653 224.868 81.5572L226.766 81.5459Z" fill="white"/>
</svg>
