<svg width="24" height="24" viewBox="0 0 24 24" fill="none" xmlns="http://www.w3.org/2000/svg">
<path d="M16.6195 2.99004C16.5034 2.87363 16.3655 2.78127 16.2136 2.71826C16.0617 2.65524 15.8989 2.6228 15.7345 2.6228C15.5701 2.6228 15.4073 2.65524 15.2554 2.71826C15.1036 2.78127 14.9656 2.87363 14.8495 2.99004L6.53951 11.3C6.44681 11.3926 6.37326 11.5024 6.32308 11.6234C6.2729 11.7444 6.24707 11.8741 6.24707 12.005C6.24707 12.136 6.2729 12.2657 6.32308 12.3867C6.37326 12.5076 6.44681 12.6175 6.53951 12.71L14.8495 21.02C15.3395 21.51 16.1295 21.51 16.6195 21.02C17.1095 20.53 17.1095 19.74 16.6195 19.25L9.37951 12L16.6295 4.75004C17.1095 4.27004 17.1095 3.47004 16.6195 2.99004Z" fill="#1C1E21"/>
</svg>
