<svg width="12" height="9" viewBox="0 0 12 9" fill="none" xmlns="http://www.w3.org/2000/svg">
<path d="M3.71223 7.29482L1.20997 4.78984C1.14454 4.72354 1.06661 4.6709 0.980708 4.63497C0.894801 4.59904 0.802626 4.58054 0.709524 4.58054C0.616422 4.58054 0.524247 4.59904 0.43834 4.63497C0.352434 4.6709 0.274506 4.72354 0.209074 4.78984C0.142843 4.85534 0.0902585 4.93336 0.0543694 5.01936C0.0184802 5.10536 0 5.19763 0 5.29084C0 5.38404 0.0184802 5.47632 0.0543694 5.56232C0.0902585 5.64832 0.142843 5.72633 0.209074 5.79183L3.20463 8.79066C3.48345 9.06978 3.93385 9.06978 4.21268 8.79066L11.7909 1.21129C11.8572 1.14579 11.9097 1.06778 11.9456 0.981777C11.9815 0.895777 12 0.803501 12 0.710298C12 0.617095 11.9815 0.524818 11.9456 0.438818C11.9097 0.352818 11.8572 0.274805 11.7909 0.209302C11.7255 0.142998 11.6476 0.0903568 11.5617 0.0544285C11.4758 0.0185002 11.3836 0 11.2905 0C11.1974 0 11.1052 0.0185002 11.0193 0.0544285C10.9334 0.0903568 10.8555 0.142998 10.79 0.209302L3.71223 7.29482Z" fill="white"/>
</svg>
