<svg width="24" height="24" viewBox="0 0 24 24" fill="none" xmlns="http://www.w3.org/2000/svg">
<circle cx="12" cy="12" r="12" fill="#F3F3FA"/>
<path d="M12 4.5C9.0975 4.5 6.75 6.8475 6.75 9.75C6.75 13.6875 12 19.5 12 19.5C12 19.5 17.25 13.6875 17.25 9.75C17.25 6.8475 14.9025 4.5 12 4.5ZM12 11.625C11.5027 11.625 11.0258 11.4275 10.6742 11.0758C10.3225 10.7242 10.125 10.2473 10.125 9.75C10.125 9.25272 10.3225 8.77581 10.6742 8.42417C11.0258 8.07254 11.5027 7.875 12 7.875C12.4973 7.875 12.9742 8.07254 13.3258 8.42417C13.6775 8.77581 13.875 9.25272 13.875 9.75C13.875 10.2473 13.6775 10.7242 13.3258 11.0758C12.9742 11.4275 12.4973 11.625 12 11.625Z" fill="#2A3037"/>
</svg>
