<svg width="24" height="24" viewBox="0 0 24 24" fill="none" xmlns="http://www.w3.org/2000/svg">
<path d="M6.00005 6.8002H12C12.4 6.8002 12.8 6.5002 12.8 6.0002C12.8 5.5002 12.5 5.2002 12 5.2002H6.00005C5.60005 5.2002 5.20005 5.5002 5.20005 6.0002C5.20005 6.5002 5.60005 6.8002 6.00005 6.8002Z" fill="#1C1E21"/>
<path d="M6.00005 10.8002H18C18.4 10.8002 18.8 10.5002 18.8 10.0002C18.8 9.5002 18.4 9.2002 18 9.2002H6.00005C5.60005 9.2002 5.20005 9.5002 5.20005 10.0002C5.20005 10.5002 5.60005 10.8002 6.00005 10.8002Z" fill="#1C1E21"/>
<path d="M6.00005 14.8002H12C12.4 14.8002 12.8 14.5002 12.8 14.0002C12.8 13.5002 12.5 13.2002 12 13.2002H6.00005C5.60005 13.2002 5.20005 13.5002 5.20005 14.0002C5.20005 14.5002 5.60005 14.8002 6.00005 14.8002Z" fill="#1C1E21"/>
<path d="M6.00005 18.8002H18C18.4 18.8002 18.8 18.5002 18.8 18.0002C18.8 17.5002 18.5 17.2002 18 17.2002H6.00005C5.60005 17.2002 5.20005 17.5002 5.20005 18.0002C5.20005 18.5002 5.60005 18.8002 6.00005 18.8002Z" fill="#1C1E21"/>
</svg>
