<svg width="24" height="24" viewBox="0 0 24 24" fill="none" xmlns="http://www.w3.org/2000/svg">
<path fill-rule="evenodd" clip-rule="evenodd" d="M12.0007 18.8569C15.8053 18.8569 18.8578 15.834 18.8578 12.0306C18.8578 8.22601 15.8053 5.14258 12.0007 5.14258C8.19613 5.14258 5.14355 8.22601 5.14355 12.0306C5.14355 15.834 8.19613 18.8569 12.0007 18.8569Z" stroke="#1C1E21" stroke-linecap="round" stroke-linejoin="round"/>
<path d="M12 16C14.2091 16 16 14.2091 16 12C16 9.79086 14.2091 8 12 8C9.79086 8 8 9.79086 8 12C8 14.2091 9.79086 16 12 16Z" fill="#1C1E21"/>
<path d="M2.85742 11.9998H5.14314M18.8574 11.9998H21.1431M12.0003 2.85693V5.14265M12.0003 18.8569V21.1426" stroke="#1C1E21" stroke-linecap="round" stroke-linejoin="round"/>
</svg>
