<svg width="20" height="20" viewBox="0 0 20 20" fill="none" xmlns="http://www.w3.org/2000/svg">
<rect width="20" height="20" rx="8" fill="#3D9BD6"/>
<path d="M15.0003 10.8337H10.8337V15.0003C10.8337 15.4587 10.4587 15.8337 10.0003 15.8337C9.54199 15.8337 9.16699 15.4587 9.16699 15.0003V10.8337H5.00033C4.54199 10.8337 4.16699 10.4587 4.16699 10.0003C4.16699 9.54199 4.54199 9.16699 5.00033 9.16699H9.16699V5.00033C9.16699 4.54199 9.54199 4.16699 10.0003 4.16699C10.4587 4.16699 10.8337 4.54199 10.8337 5.00033V9.16699H15.0003C15.4587 9.16699 15.8337 9.54199 15.8337 10.0003C15.8337 10.4587 15.4587 10.8337 15.0003 10.8337Z" fill="white"/>
</svg>
