<svg width="24" height="24" viewBox="0 0 24 24" fill="none" xmlns="http://www.w3.org/2000/svg">
<path d="M18 6.8002H12C11.6 6.8002 11.2 6.5002 11.2 6.0002C11.2 5.5002 11.5 5.2002 12 5.2002H18C18.4 5.2002 18.8 5.5002 18.8 6.0002C18.8 6.5002 18.4 6.8002 18 6.8002Z" fill="#1C1E21"/>
<path d="M18 10.8002H5.99995C5.59995 10.8002 5.19995 10.5002 5.19995 10.0002C5.19995 9.5002 5.59995 9.2002 5.99995 9.2002H18C18.4 9.2002 18.8 9.5002 18.8 10.0002C18.8 10.5002 18.4 10.8002 18 10.8002Z" fill="#1C1E21"/>
<path d="M18 14.8002H12C11.6 14.8002 11.2 14.5002 11.2 14.0002C11.2 13.5002 11.5 13.2002 12 13.2002H18C18.4 13.2002 18.8 13.5002 18.8 14.0002C18.8 14.5002 18.4 14.8002 18 14.8002Z" fill="#1C1E21"/>
<path d="M18 18.8002H5.99995C5.59995 18.8002 5.19995 18.5002 5.19995 18.0002C5.19995 17.5002 5.49995 17.2002 5.99995 17.2002H18C18.4 17.2002 18.8 17.5002 18.8 18.0002C18.8 18.5002 18.4 18.8002 18 18.8002Z" fill="#1C1E21"/>
</svg>
