<svg width="24" height="24" viewBox="0 0 24 24" fill="none" xmlns="http://www.w3.org/2000/svg">
<path d="M12.7497 21.7502C12.6495 21.7503 12.5504 21.7302 12.4581 21.6913C12.3658 21.6524 12.2822 21.5954 12.2123 21.5236C12.1424 21.4519 12.0876 21.3669 12.051 21.2736C12.0145 21.1803 11.9971 21.0807 11.9997 20.9805V12.3813C11.9997 12.2819 11.9602 12.1865 11.8899 12.1161C11.8195 12.0458 11.7242 12.0063 11.6247 12.0063H3.01892C2.86118 12.0082 2.70672 11.9612 2.57672 11.8718C2.44673 11.7824 2.34756 11.655 2.29283 11.5071C2.2305 11.3306 2.23638 11.1373 2.30932 10.9649C2.38226 10.7926 2.51699 10.6538 2.68705 10.5757L20.687 2.31865C20.8261 2.25493 20.9813 2.23526 21.1319 2.26228C21.2825 2.28929 21.4212 2.3617 21.5294 2.46978C21.6377 2.57787 21.7103 2.71647 21.7375 2.867C21.7647 3.01753 21.7453 3.17278 21.6817 3.31193L13.4317 21.3119C13.372 21.4427 13.276 21.5535 13.155 21.6312C13.0341 21.7089 12.8934 21.7502 12.7497 21.7502Z" fill="#3D9BD6"/>
</svg>
