<svg width="48" height="48" viewBox="0 0 48 48" fill="none" xmlns="http://www.w3.org/2000/svg">
<rect width="48" height="48" rx="8" fill="#F3F3FA"/>
<path d="M25.734 35.338C28.3485 33.0348 33 25.3272 33 21.0089C33 18.6196 32.0518 16.3281 30.364 14.6386C28.6761 12.9491 26.3869 12 24 12C21.6131 12 19.3239 12.9491 17.636 14.6386C15.9482 16.3281 15 18.6196 15 21.0089C15 25.3272 19.65 33.0348 22.266 35.338C22.7432 35.7644 23.3604 36 24 36C24.6396 36 25.2568 35.7644 25.734 35.338ZM21 21.0089C21 20.2125 21.3161 19.4486 21.8787 18.8855C22.4413 18.3223 23.2044 18.0059 24 18.0059C24.7956 18.0059 25.5587 18.3223 26.1213 18.8855C26.6839 19.4486 27 20.2125 27 21.0089C27 21.8053 26.6839 22.5691 26.1213 23.1323C25.5587 23.6955 24.7956 24.0119 24 24.0119C23.2044 24.0119 22.4413 23.6955 21.8787 23.1323C21.3161 22.5691 21 21.8053 21 21.0089Z" fill="#1C1E21"/>
</svg>
