<svg width="21" height="20" viewBox="0 0 21 20" fill="none" xmlns="http://www.w3.org/2000/svg">
<path d="M0.500011 10C0.500513 7.8076 1.22149 5.67612 2.552 3.93359C3.8825 2.19107 5.74878 0.93408 7.86361 0.356076C9.97845 -0.221928 12.2246 -0.0889115 14.2565 0.734655C16.2883 1.55822 17.9932 3.02669 19.1087 4.91407C20.2243 6.80144 20.6886 9.00312 20.4304 11.1803C20.1721 13.3574 19.2056 15.3893 17.6794 16.9633C16.1533 18.5374 14.1521 19.5662 11.984 19.8916C9.8159 20.2169 7.60093 19.8207 5.68001 18.764L1.79201 19.948C1.61859 20.0008 1.43408 20.0055 1.2582 19.9616C1.08232 19.9176 0.921695 19.8267 0.793506 19.6985C0.665318 19.5703 0.574387 19.4097 0.530441 19.2338C0.486494 19.0579 0.491185 18.8734 0.544011 18.7L1.72801 14.806C0.91992 13.3332 0.497486 11.6799 0.500011 10ZM6.50001 9C6.50001 9.26522 6.60537 9.51957 6.7929 9.70711C6.98044 9.89464 7.2348 10 7.50001 10H13.5C13.7652 10 14.0196 9.89464 14.2071 9.70711C14.3947 9.51957 14.5 9.26522 14.5 9C14.5 8.73478 14.3947 8.48043 14.2071 8.29289C14.0196 8.10536 13.7652 8 13.5 8H7.50001C7.2348 8 6.98044 8.10536 6.7929 8.29289C6.60537 8.48043 6.50001 8.73478 6.50001 9ZM7.50001 12C7.2348 12 6.98044 12.1054 6.7929 12.2929C6.60537 12.4804 6.50001 12.7348 6.50001 13C6.50001 13.2652 6.60537 13.5196 6.7929 13.7071C6.98044 13.8946 7.2348 14 7.50001 14H11.5C11.7652 14 12.0196 13.8946 12.2071 13.7071C12.3947 13.5196 12.5 13.2652 12.5 13C12.5 12.7348 12.3947 12.4804 12.2071 12.2929C12.0196 12.1054 11.7652 12 11.5 12H7.50001Z" fill="white"/>
</svg>
