<svg width="16" height="16" viewBox="0 0 16 16" fill="none" xmlns="http://www.w3.org/2000/svg">
<path d="M2 8C2 6.4087 2.63214 4.88258 3.75736 3.75736C4.88258 2.63214 6.4087 2 8 2C9.5913 2 11.1174 2.63214 12.2426 3.75736C13.3679 4.88258 14 6.4087 14 8C14 9.5913 13.3679 11.1174 12.2426 12.2426C11.1174 13.3679 9.5913 14 8 14C6.4087 14 4.88258 13.3679 3.75736 12.2426C2.63214 11.1174 2 9.5913 2 8ZM8 4.25C7.00544 4.25 6.05161 4.64509 5.34835 5.34835C4.64509 6.05161 4.25 7.00544 4.25 8C4.25 8.99456 4.64509 9.94839 5.34835 10.6517C6.05161 11.3549 7.00544 11.75 8 11.75C8.99456 11.75 9.94839 11.3549 10.6517 10.6517C11.3549 9.94839 11.75 8.99456 11.75 8C11.75 7.00544 11.3549 6.05161 10.6517 5.34835C9.94839 4.64509 8.99456 4.25 8 4.25Z" fill="#3D9BD6"/>
</svg>
