<svg width="24" height="25" viewBox="0 0 24 25" fill="none" xmlns="http://www.w3.org/2000/svg">
<g clip-path="url(#clip0_102_27833)">
<path d="M20.2346 6.18609C20.6666 4.99109 19.5086 3.83309 18.3136 4.26609L3.70855 9.54809C2.50955 9.98209 2.36455 11.6181 3.46755 12.2571L8.12955 14.9561L12.2926 10.7931C12.4812 10.6109 12.7338 10.5101 12.996 10.5124C13.2582 10.5147 13.509 10.6199 13.6944 10.8053C13.8798 10.9907 13.9849 11.2415 13.9872 11.5037C13.9895 11.7659 13.8887 12.0185 13.7066 12.2071L9.54355 16.3701L12.2436 21.0321C12.8816 22.1351 14.5176 21.9891 14.9516 20.7911L20.2346 6.18609Z" fill="white"/>
</g>
<defs>
<clipPath id="clip0_102_27833">
<rect width="24" height="24" fill="white" transform="translate(0 0.5)"/>
</clipPath>
</defs>
</svg>
