<svg width="24" height="24" viewBox="0 0 24 24" fill="none" xmlns="http://www.w3.org/2000/svg">
<path d="M17.25 22C16.4167 22 15.7083 21.7083 15.125 21.125C14.5417 20.5417 14.25 19.8333 14.25 19C14.25 18.8833 14.2583 18.7623 14.275 18.637C14.2917 18.5117 14.3167 18.3993 14.35 18.3L7.3 14.2C7.01667 14.45 6.7 14.646 6.35 14.788C6 14.93 5.63333 15.0007 5.25 15C4.41667 15 3.70833 14.7083 3.125 14.125C2.54167 13.5417 2.25 12.8333 2.25 12C2.25 11.1667 2.54167 10.4583 3.125 9.875C3.70833 9.29167 4.41667 9 5.25 9C5.63333 9 6 9.071 6.35 9.213C6.7 9.355 7.01667 9.55067 7.3 9.8L14.35 5.7C14.3167 5.6 14.2917 5.48767 14.275 5.363C14.2583 5.23833 14.25 5.11733 14.25 5C14.25 4.16667 14.5417 3.45833 15.125 2.875C15.7083 2.29167 16.4167 2 17.25 2C18.0833 2 18.7917 2.29167 19.375 2.875C19.9583 3.45833 20.25 4.16667 20.25 5C20.25 5.83333 19.9583 6.54167 19.375 7.125C18.7917 7.70833 18.0833 8 17.25 8C16.8667 8 16.5 7.92933 16.15 7.788C15.8 7.64667 15.4833 7.45067 15.2 7.2L8.15 11.3C8.18333 11.4 8.20833 11.5127 8.225 11.638C8.24167 11.7633 8.25 11.884 8.25 12C8.25 12.1167 8.24167 12.2377 8.225 12.363C8.20833 12.4883 8.18333 12.6007 8.15 12.7L15.2 16.8C15.4833 16.55 15.8 16.3543 16.15 16.213C16.5 16.0717 16.8667 16.0007 17.25 16C18.0833 16 18.7917 16.2917 19.375 16.875C19.9583 17.4583 20.25 18.1667 20.25 19C20.25 19.8333 19.9583 20.5417 19.375 21.125C18.7917 21.7083 18.0833 22 17.25 22Z" fill="#3D9BD6"/>
</svg>
